rawline-200i.ufo
<glyph name="exclam" format="2">
  <advance width="473"/>
  <unicode hex="0021"/>
  <outline>
    <contour>
      <point x="162" y="426" type="line"/>
      <point x="381" y="1468" type="line"/>
      <point x="453" y="1468" type="line"/>
      <point x="231" y="426" type="line"/>
    </contour>
    <contour>
      <point x="70" y="0" type="line"/>
      <point x="111" y="188" type="line"/>
      <point x="188" y="188" type="line"/>
      <point x="141" y="0" type="line"/>
    </contour>
  </outline>
</glyph>
<glyph name="quotedbl" format="2">
  <advance width="479"/>
  <unicode hex="0022"/>
  <outline>
    <contour>
      <point x="252" y="1139" type="line"/>
      <point x="319" y="1458" type="line"/>
      <point x="385" y="1458" type="line"/>
      <point x="315" y="1139" type="line"/>
    </contour>
    <contour>
      <point x="377" y="1139" type="line"/>
      <point x="444" y="1458" type="line"/>
      <point x="510" y="1458" type="line"/>
      <point x="440" y="1139" type="line"/>
    </contour>
  </outline>
</glyph>
<glyph name="numbersign" format="2">
  <advance width="1292"/>
  <unicode hex="0023"/>
  <outline>
    <contour>
      <point x="1290" y="971" type="line"/>
      <point x="1055" y="971" type="line"/>
      <point x="850" y="506" type="line"/>
      <point x="1112" y="506" type="line"/>
      <point x="1100" y="444" type="line"/>
      <point x="821" y="444" type="line"/>
      <point x="627" y="0" type="line"/>
      <point x="561" y="0" type="line"/>
      <point x="760" y="444" type="line"/>
      <point x="324" y="444" type="line"/>
      <point x="129" y="0" type="line"/>
      <point x="63" y="0" type="line"/>
      <point x="262" y="444" type="line"/>
      <point x="43" y="444" type="line"/>
      <point x="55" y="506" type="line"/>
      <point x="291" y="506" type="line"/>
      <point x="494" y="971" type="line"/>
      <point x="233" y="971" type="line"/>
      <point x="248" y="1030" type="line"/>
      <point x="522" y="1030" type="line"/>
      <point x="711" y="1454" type="line"/>
      <point x="774" y="1454" type="line"/>
      <point x="584" y="1030" type="line"/>
      <point x="1020" y="1030" type="line"/>
      <point x="1206" y="1454" type="line"/>
      <point x="1272" y="1454" type="line"/>
      <point x="1081" y="1030" type="line"/>
      <point x="1303" y="1030" type="line"/>
    </contour>
    <contour>
      <point x="786" y="506" type="line"/>
      <point x="991" y="971" type="line"/>
      <point x="557" y="971" type="line"/>
      <point x="352" y="506" type="line"/>
    </contour>
  </outline>
</glyph>
<glyph name="dollar" format="2">
  <advance width="1208"/>
  <unicode hex="0024"/>
  <outline>
    <contour>
      <point x="817" y="1464" type="line"/>
      <point x="1072" y="1461"/>
      <point x="1190" y="1292" type="qcurve"/>
      <point x="1141" y="1239" type="line"/>
      <point x="1087" y="1324"/>
      <point x="926" y="1397"/>
      <point x="803" y="1399" type="qcurve"/>
      <point x="666" y="760" type="line"/>
      <point x="748" y="741"/>
      <point x="865" y="705"/>
      <point x="975" y="651"/>
      <point x="1042" y="585"/>
      <point x="1081" y="493"/>
      <point x="1081" y="434" type="qcurve" smooth="yes"/>
      <point x="1081" y="225"/>
      <point x="765" y="-10"/>
      <point x="504" y="-10" type="qcurve"/>
      <point x="465" y="-197" type="line"/>
      <point x="414" y="-197" type="line"/>
      <point x="455" y="-8" type="line"/>
      <point x="169" y="4"/>
      <point x="6" y="211" type="qcurve"/>
      <point x="59" y="264" type="line"/>
      <point x="194" y="68"/>
      <point x="469" y="53" type="qcurve"/>
      <point x="608" y="700" type="line"/>
      <point x="510" y="721"/>
      <point x="380" y="766"/>
      <point x="274" y="834"/>
      <point x="225" y="930"/>
      <point x="225" y="995" type="qcurve" smooth="yes"/>
      <point x="225" y="1202"/>
      <point x="526" y="1453"/>
      <point x="766" y="1464" type="qcurve"/>
      <point x="811" y="1669" type="line"/>
      <point x="862" y="1669" type="line"/>
    </contour>
    <contour>
      <point x="301" y="1016" type="qcurve" smooth="yes"/>
      <point x="301" y="914"/>
      <point x="449" y="811"/>
      <point x="623" y="768" type="qcurve"/>
      <point x="756" y="1399" type="line"/>
      <point x="526" y="1390"/>
      <point x="301" y="1181"/>
    </contour>
    <contour>
      <point x="1004" y="416" type="qcurve" smooth="yes"/>
      <point x="1004" y="525"/>
      <point x="837" y="645"/>
      <point x="651" y="690" type="qcurve"/>
      <point x="516" y="51" type="line"/>
      <point x="518" y="51" type="line" smooth="yes"/>
      <point x="743" y="51"/>
      <point x="1004" y="240"/>
    </contour>
  </outline>
</glyph>
<glyph name="percent" format="2">
  <advance width="1345"/>
  <unicode hex="0025"/>
  <outline>
    <contour>
      <point x="209" y="1137" type="qcurve" smooth="yes"/>
      <point x="209" y="1270"/>
      <point x="421" y="1475"/>
      <point x="553" y="1475" type="qcurve" smooth="yes"/>
      <point x="650" y="1475"/>
      <point x="774" y="1339"/>
      <point x="774" y="1239" type="qcurve" smooth="yes"/>
      <point x="774" y="1106"/>
      <point x="562" y="903"/>
      <point x="430" y="903" type="qcurve" smooth="yes"/>
      <point x="333" y="903"/>
      <point x="209" y="1037"/>
    </contour>
    <contour>
      <point x="-14" y="33" type="line"/>
      <point x="657" y="721" type="line"/>
      <point x="1370" y="1458" type="line"/>
      <point x="1405" y="1423" type="line"/>
      <point x="20" y="-4" type="line"/>
    </contour>
    <contour>
      <point x="715" y="1231" type="qcurve" smooth="yes"/>
      <point x="715" y="1312"/>
      <point x="615" y="1421"/>
      <point x="541" y="1421" type="qcurve" smooth="yes"/>
      <point x="438" y="1421"/>
      <point x="270" y="1251"/>
      <point x="270" y="1147" type="qcurve" smooth="yes"/>
      <point x="270" y="1064"/>
      <point x="366" y="954"/>
      <point x="442" y="954" type="qcurve" smooth="yes"/>
      <point x="545" y="954"/>
      <point x="715" y="1126"/>
    </contour>
    <contour>
      <point x="618" y="215" type="qcurve" smooth="yes"/>
      <point x="618" y="348"/>
      <point x="832" y="551"/>
      <point x="963" y="551" type="qcurve" smooth="yes"/>
      <point x="1060" y="551"/>
      <point x="1182" y="417"/>
      <point x="1182" y="317" type="qcurve" smooth="yes"/>
      <point x="1182" y="182"/>
      <point x="972" y="-20"/>
      <point x="840" y="-20" type="qcurve" smooth="yes"/>
      <point x="743" y="-20"/>
      <point x="618" y="114"/>
    </contour>
    <contour>
      <point x="1122" y="305" type="qcurve" smooth="yes"/>
      <point x="1122" y="387"/>
      <point x="1023" y="500"/>
      <point x="950" y="500" type="qcurve" smooth="yes"/>
      <point x="847" y="500"/>
      <point x="678" y="328"/>
      <point x="678" y="221" type="qcurve" smooth="yes"/>
      <point x="678" y="141"/>
      <point x="774" y="33"/>
      <point x="850" y="33" type="qcurve" smooth="yes"/>
      <point x="953" y="33"/>
      <point x="1122" y="201"/>
    </contour>
  </outline>
</glyph>
<glyph name="ampersand" format="2">
  <advance width="1370"/>
  <unicode hex="0026"/>
  <outline>
    <contour>
      <point x="1329" y="791" type="line"/>
      <point x="1128" y="791" type="line"/>
      <point x="1063" y="508"/>
      <point x="907" y="297" type="qcurve"/>
      <point x="1116" y="0" type="line"/>
      <point x="1022" y="0" type="line"/>
      <point x="860" y="236" type="line"/>
      <point x="756" y="114"/>
      <point x="510" y="-20"/>
      <point x="383" y="-20" type="qcurve" smooth="yes"/>
      <point x="231" y="-20"/>
      <point x="39" y="168"/>
      <point x="39" y="319" type="qcurve" smooth="yes"/>
      <point x="39" y="467"/>
      <point x="238" y="713"/>
      <point x="451" y="836" type="qcurve"/>
      <point x="384" y="937"/>
      <point x="328" y="1069"/>
      <point x="328" y="1126" type="qcurve" smooth="yes"/>
      <point x="328" y="1264"/>
      <point x="574" y="1473"/>
      <point x="735" y="1473" type="qcurve" smooth="yes"/>
      <point x="845" y="1473"/>
      <point x="1018" y="1358"/>
      <point x="1061" y="1257" type="qcurve"/>
      <point x="1014" y="1214" type="line"/>
      <point x="975" y="1307"/>
      <point x="822" y="1415"/>
      <point x="725" y="1415" type="qcurve" smooth="yes"/>
      <point x="596" y="1415"/>
      <point x="395" y="1244"/>
      <point x="395" y="1135" type="qcurve" smooth="yes"/>
      <point x="395" y="1032"/>
      <point x="522" y="850" type="qcurve" smooth="yes"/>
      <point x="870" y="350" type="line"/>
      <point x="1021" y="570"/>
      <point x="1073" y="852" type="qcurve"/>
      <point x="1341" y="852" type="line"/>
    </contour>
    <contour>
      <point x="395" y="43" type="qcurve" smooth="yes"/>
      <point x="509" y="43"/>
      <point x="729" y="172"/>
      <point x="823" y="289" type="qcurve"/>
      <point x="506" y="752" type="line" smooth="yes"/>
      <point x="493" y="772"/>
      <point x="483" y="784" type="qcurve"/>
      <point x="293" y="674"/>
      <point x="113" y="454"/>
      <point x="113" y="326" type="qcurve" smooth="yes"/>
      <point x="113" y="200"/>
      <point x="270" y="43"/>
    </contour>
  </outline>
</glyph>
<glyph name="quotesingle" format="2">
  <advance width="352"/>
  <unicode hex="0027"/>
  <outline>
    <contour>
      <point x="252" y="1137" type="line"/>
      <point x="319" y="1458" type="line"/>
      <point x="385" y="1458" type="line"/>
      <point x="315" y="1137" type="line"/>
    </contour>
  </outline>
</glyph>
<glyph name="parenleft" format="2">
  <advance width="487"/>
  <unicode hex="0028"/>
  <outline>
    <contour>
      <point x="551" y="1495" type="qcurve"/>
      <point x="598" y="1462" type="line"/>
      <point x="522" y="1374"/>
      <point x="381" y="1169"/>
      <point x="247" y="924"/>
      <point x="166" y="659"/>
      <point x="166" y="543" type="qcurve" smooth="yes"/>
      <point x="166" y="409"/>
      <point x="226" y="99"/>
      <point x="281" y="-27" type="qcurve"/>
      <point x="221" y="-59" type="line"/>
      <point x="162" y="75"/>
      <point x="98" y="385"/>
      <point x="98" y="526" type="qcurve" smooth="yes"/>
      <point x="98" y="615"/>
      <point x="129" y="787"/>
      <point x="194" y="954"/>
      <point x="267" y="1100"/>
      <point x="382" y="1271"/>
      <point x="479" y="1403"/>
    </contour>
  </outline>
</glyph>
<glyph name="parenright" format="2">
  <advance width="487"/>
  <unicode hex="0029"/>
  <outline>
    <contour>
      <point x="-20" y="-59" type="qcurve"/>
      <point x="-66" y="-27" type="line"/>
      <point x="360" y="464"/>
      <point x="360" y="868" type="qcurve" smooth="yes"/>
      <point x="360" y="1017"/>
      <point x="296" y="1354"/>
      <point x="250" y="1462" type="qcurve"/>
      <point x="311" y="1495" type="line"/>
      <point x="430" y="1170"/>
      <point x="430" y="887" type="qcurve" smooth="yes"/>
      <point x="430" y="653"/>
      <point x="203" y="200"/>
    </contour>
  </outline>
</glyph>
<glyph name="asterisk" format="2">
  <advance width="612"/>
  <unicode hex="002A"/>
  <outline>
    <contour>
      <point x="289" y="1145" type="line"/>
      <point x="395" y="1264" type="line"/>
      <point x="274" y="1309" type="line"/>
      <point x="299" y="1358" type="line"/>
      <point x="422" y="1311" type="line"/>
      <point x="451" y="1456" type="line"/>
      <point x="504" y="1456" type="line"/>
      <point x="471" y="1311" type="line"/>
      <point x="616" y="1358" type="line"/>
      <point x="616" y="1309" type="line"/>
      <point x="477" y="1264" type="line"/>
      <point x="535" y="1145" type="line"/>
      <point x="485" y="1114" type="line"/>
      <point x="430" y="1235" type="line"/>
      <point x="324" y="1114" type="line"/>
    </contour>
  </outline>
</glyph>
<glyph name="plus" format="2">
  <advance width="841"/>
  <unicode hex="002B"/>
  <outline>
    <contour>
      <point x="752" y="758" type="line"/>
      <point x="752" y="696" type="line"/>
      <point x="475" y="696" type="line"/>
      <point x="475" y="397" type="line"/>
      <point x="408" y="397" type="line"/>
      <point x="408" y="696" type="line"/>
      <point x="131" y="696" type="line"/>
      <point x="131" y="758" type="line"/>
      <point x="408" y="758" type="line"/>
      <point x="408" y="1057" type="line"/>
      <point x="475" y="1057" type="line"/>
      <point x="475" y="758" type="line"/>
    </contour>
  </outline>
</glyph>
<glyph name="comma" format="2">
  <advance width="423"/>
  <unicode hex="002C"/>
  <outline>
    <contour>
      <point x="49" y="-166" type="line"/>
      <point x="106" y="-12" type="line"/>
      <point x="80" y="-12" type="line"/>
      <point x="115" y="152" type="line"/>
      <point x="190" y="152" type="line"/>
      <point x="154" y="-12" type="line"/>
      <point x="90" y="-166" type="line"/>
    </contour>
  </outline>
</glyph>
<glyph name="hyphen" format="2">
  <advance width="827"/>
  <unicode hex="002D"/>
  <outline>
    <contour>
      <point x="117" y="522" type="line"/>
      <point x="129" y="590" type="line"/>
      <point x="686" y="590" type="line"/>
      <point x="672" y="522" type="line"/>
    </contour>
  </outline>
</glyph>
<glyph name="period" format="2">
  <advance width="342"/>
  <unicode hex="002E"/>
  <outline>
    <contour>
      <point x="12" y="0" type="line"/>
      <point x="45" y="152" type="line"/>
      <point x="109" y="152" type="line"/>
      <point x="76" y="0" type="line"/>
    </contour>
  </outline>
</glyph>
<glyph name="zero" format="2">
  <advance width="1325"/>
  <unicode hex="0030"/>
  <outline>
    <contour>
      <point x="106" y="559" type="qcurve" smooth="yes"/>
      <point x="106" y="680"/>
      <point x="181" y="937"/>
      <point x="320" y="1165"/>
      <point x="499" y="1347"/>
      <point x="725" y="1454"/>
      <point x="840" y="1454" type="qcurve" smooth="yes"/>
      <point x="927" y="1454"/>
      <point x="1070" y="1385"/>
      <point x="1165" y="1270"/>
      <point x="1231" y="1118"/>
      <point x="1260" y="956"/>
      <point x="1260" y="872" type="qcurve" smooth="yes"/>
      <point x="1260" y="750"/>
      <point x="1185" y="494"/>
      <point x="1047" y="267"/>
      <point x="868" y="86"/>
      <point x="642" y="-20"/>
      <point x="526" y="-20" type="qcurve" smooth="yes"/>
      <point x="441" y="-20"/>
      <point x="298" y="48"/>
      <point x="202" y="161"/>
      <point x="136" y="312"/>
      <point x="106" y="475"/>
    </contour>
    <contour>
      <point x="1188" y="964"/>
      <point x="1143" y="1147"/>
      <point x="1056" y="1297"/>
      <point x="915" y="1386"/>
      <point x="827" y="1386" type="qcurve" smooth="yes"/>
      <point x="718" y="1386"/>
      <point x="512" y="1277"/>
      <point x="359" y="1099"/>
      <point x="242" y="878"/>
      <point x="182" y="645"/>
      <point x="182" y="541" type="qcurve" smooth="yes"/>
      <point x="182" y="441"/>
      <point x="224" y="268"/>
      <point x="308" y="128"/>
      <point x="449" y="47"/>
      <point x="541" y="47" type="qcurve" smooth="yes"/>
      <point x="649" y="47"/>
      <point x="854" y="153"/>
      <point x="1009" y="326"/>
      <point x="1127" y="539"/>
      <point x="1188" y="764"/>
    </contour>
  </outline>
</glyph>
<glyph name="one" format="2">
  <advance width="724"/>
  <unicode hex="0031"/>
  <outline>
    <contour>
      <point x="10" y="66" type="line"/>
      <point x="268" y="66" type="line"/>
      <point x="547" y="1380" type="line"/>
      <point x="500" y="1327"/>
      <point x="279" y="1204"/>
      <point x="207" y="1204" type="qcurve"/>
      <point x="221" y="1272" type="line"/>
      <point x="259" y="1272"/>
      <point x="357" y="1313"/>
      <point x="442" y="1370"/>
      <point x="520" y="1431"/>
      <point x="564" y="1471"/>
      <point x="567" y="1475" type="qcurve"/>
      <point x="639" y="1475" type="line"/>
      <point x="340" y="66" type="line"/>
      <point x="586" y="66" type="line"/>
      <point x="571" y="0" type="line"/>
      <point x="-4" y="0" type="line"/>
    </contour>
  </outline>
</glyph>
<glyph name="two" format="2">
  <advance width="1105"/>
  <unicode hex="0032"/>
  <outline>
    <contour>
      <point x="500" y="657" type="qcurve" smooth="yes"/>
      <point x="531" y="669"/>
      <point x="645" y="711"/>
      <point x="716" y="738"/>
      <point x="819" y="786"/>
      <point x="885" y="830"/>
      <point x="959" y="898"/>
      <point x="1001" y="972"/>
      <point x="1030" y="1074"/>
      <point x="1030" y="1133" type="qcurve" smooth="yes"/>
      <point x="1030" y="1250"/>
      <point x="887" y="1405"/>
      <point x="745" y="1405" type="qcurve" smooth="yes"/>
      <point x="665" y="1405"/>
      <point x="515" y="1359"/>
      <point x="399" y="1281"/>
      <point x="322" y="1214"/>
      <point x="289" y="1176" type="qcurve"/>
      <point x="248" y="1217" type="line"/>
      <point x="257" y="1228"/>
      <point x="297" y="1272"/>
      <point x="398" y="1355"/>
      <point x="512" y="1422"/>
      <point x="680" y="1473"/>
      <point x="766" y="1473" type="qcurve" smooth="yes"/>
      <point x="933" y="1473"/>
      <point x="1106" y="1284"/>
      <point x="1106" y="1143" type="qcurve" smooth="yes"/>
      <point x="1106" y="1090"/>
      <point x="1086" y="995"/>
      <point x="1053" y="920"/>
      <point x="1000" y="850"/>
      <point x="947" y="799"/>
      <point x="871" y="749"/>
      <point x="808" y="715"/>
      <point x="720" y="676"/>
      <point x="659" y="652"/>
      <point x="570" y="618"/>
      <point x="545" y="608" type="qcurve" smooth="yes"/>
      <point x="441" y="567"/>
      <point x="278" y="457"/>
      <point x="180" y="350"/>
      <point x="109" y="223"/>
      <point x="78" y="123"/>
      <point x="68" y="66" type="qcurve"/>
      <point x="885" y="66" type="line"/>
      <point x="870" y="0" type="line"/>
      <point x="-27" y="0" type="line"/>
      <point x="-10" y="110"/>
      <point x="62" y="295"/>
      <point x="156" y="432"/>
      <point x="283" y="545"/>
      <point x="418" y="623"/>
    </contour>
  </outline>
</glyph>
<glyph name="three" format="2">
  <advance width="1138"/>
  <unicode hex="0033"/>
  <outline>
    <contour>
      <point x="41" y="348" type="qcurve"/>
      <point x="100" y="371" type="line"/>
      <point x="100" y="219"/>
      <point x="295" y="49"/>
      <point x="451" y="49" type="qcurve" smooth="yes"/>
      <point x="571" y="49"/>
      <point x="783" y="147"/>
      <point x="913" y="321"/>
      <point x="913" y="424" type="qcurve" smooth="yes"/>
      <point x="913" y="555"/>
      <point x="700" y="707"/>
      <point x="512" y="707" type="qcurve" smooth="yes"/>
      <point x="444" y="707" type="line"/>
      <point x="457" y="770" type="line"/>
      <point x="526" y="770" type="line" smooth="yes"/>
      <point x="761" y="770"/>
      <point x="1024" y="956"/>
      <point x="1024" y="1118" type="qcurve" smooth="yes"/>
      <point x="1024" y="1250"/>
      <point x="852" y="1407"/>
      <point x="709" y="1407" type="qcurve" smooth="yes"/>
      <point x="581" y="1407"/>
      <point x="353" y="1282"/>
      <point x="293" y="1180" type="qcurve"/>
      <point x="246" y="1219" type="line"/>
      <point x="319" y="1335"/>
      <point x="581" y="1473"/>
      <point x="725" y="1473" type="qcurve" smooth="yes"/>
      <point x="893" y="1473"/>
      <point x="1098" y="1282"/>
      <point x="1098" y="1128" type="qcurve" smooth="yes"/>
      <point x="1098" y="985"/>
      <point x="912" y="782"/>
      <point x="741" y="739" type="qcurve"/>
      <point x="855" y="715"/>
      <point x="987" y="548"/>
      <point x="987" y="434" type="qcurve" smooth="yes"/>
      <point x="987" y="308"/>
      <point x="829" y="98"/>
      <point x="577" y="-18"/>
      <point x="438" y="-18" type="qcurve" smooth="yes"/>
      <point x="260" y="-18"/>
      <point x="41" y="175"/>
    </contour>
  </outline>
</glyph>
<glyph name="four" format="2">
  <advance width="1091"/>
  <unicode hex="0034"/>
  <outline>
    <contour>
      <point x="649" y="0" type="line"/>
      <point x="737" y="420" type="line"/>
      <point x="12" y="420" type="line"/>
      <point x="27" y="481" type="line"/>
      <point x="979" y="1454" type="line"/>
      <point x="1028" y="1454" type="line"/>
      <point x="821" y="485" type="line"/>
      <point x="993" y="485" type="line"/>
      <point x="979" y="420" type="line"/>
      <point x="807" y="420" type="line"/>
      <point x="719" y="0" type="line"/>
    </contour>
    <contour>
      <point x="756" y="485" type="line"/>
      <point x="936" y="1337" type="line"/>
      <point x="111" y="485" type="line"/>
    </contour>
  </outline>
</glyph>
<glyph name="five" format="2">
  <advance width="1093"/>
  <unicode hex="0035"/>
  <outline>
    <contour>
      <point x="20" y="272" type="qcurve"/>
      <point x="82" y="293" type="line"/>
      <point x="112" y="181"/>
      <point x="289" y="45"/>
      <point x="410" y="45" type="qcurve" smooth="yes"/>
      <point x="503" y="45"/>
      <point x="682" y="120"/>
      <point x="818" y="248"/>
      <point x="901" y="430"/>
      <point x="901" y="530" type="qcurve" smooth="yes"/>
      <point x="901" y="671"/>
      <point x="728" y="850"/>
      <point x="592" y="850" type="qcurve" smooth="yes"/>
      <point x="488" y="850"/>
      <point x="279" y="750"/>
      <point x="201" y="659" type="qcurve"/>
      <point x="129" y="659" type="line"/>
      <point x="451" y="1454" type="line"/>
      <point x="1110" y="1454" type="line"/>
      <point x="1096" y="1386" type="line"/>
      <point x="492" y="1386" type="line"/>
      <point x="242" y="764" type="line"/>
      <point x="321" y="837"/>
      <point x="513" y="915"/>
      <point x="610" y="915" type="qcurve" smooth="yes"/>
      <point x="770" y="915"/>
      <point x="973" y="707"/>
      <point x="973" y="543" type="qcurve" smooth="yes"/>
      <point x="973" y="424"/>
      <point x="873" y="211"/>
      <point x="710" y="65"/>
      <point x="502" y="-20"/>
      <point x="395" y="-20" type="qcurve" smooth="yes"/>
      <point x="251" y="-20"/>
      <point x="51" y="139"/>
    </contour>
  </outline>
</glyph>
<glyph name="seven" format="2">
  <advance width="970"/>
  <unicode hex="0037"/>
  <outline>
    <contour>
      <point x="1008" y="1386" type="line"/>
      <point x="205" y="1386" type="line"/>
      <point x="219" y="1454" type="line"/>
      <point x="1135" y="1454" type="line"/>
      <point x="119" y="0" type="line"/>
      <point x="41" y="0" type="line"/>
    </contour>
  </outline>
</glyph>
<glyph name="nine" format="2">
  <advance width="1191"/>
  <unicode hex="0039"/>
  <outline>
    <contour>
      <point x="532" y="471" type="qcurve" smooth="yes"/>
      <point x="678" y="471"/>
      <point x="955" y="649"/>
      <point x="1030" y="791" type="qcurve"/>
      <point x="954" y="441"/>
      <point x="638" y="45"/>
      <point x="444" y="45" type="qcurve" smooth="yes"/>
      <point x="324" y="45"/>
      <point x="160" y="188"/>
      <point x="147" y="305" type="qcurve"/>
      <point x="88" y="272" type="line"/>
      <point x="107" y="137"/>
      <point x="292" y="-20"/>
      <point x="432" y="-20" type="qcurve" smooth="yes"/>
      <point x="585" y="-20"/>
      <point x="853" y="157"/>
      <point x="1035" y="448"/>
      <point x="1139" y="825"/>
      <point x="1139" y="1024" type="qcurve" smooth="yes"/>
      <point x="1139" y="1227"/>
      <point x="930" y="1464"/>
      <point x="754" y="1464" type="qcurve" smooth="yes"/>
      <point x="642" y="1464"/>
      <point x="422" y="1369"/>
      <point x="256" y="1211"/>
      <point x="154" y="994"/>
      <point x="154" y="879" type="qcurve" smooth="yes"/>
      <point x="154" y="706"/>
      <point x="365" y="471"/>
    </contour>
    <contour>
      <point x="1069" y="1042" type="qcurve" smooth="yes"/>
      <point x="1069" y="912"/>
      <point x="919" y="675"/>
      <point x="680" y="535"/>
      <point x="555" y="535" type="qcurve" smooth="yes"/>
      <point x="411" y="535"/>
      <point x="225" y="742"/>
      <point x="225" y="893" type="qcurve" smooth="yes"/>
      <point x="225" y="1024"/>
      <point x="374" y="1261"/>
      <point x="611" y="1401"/>
      <point x="737" y="1401" type="qcurve" smooth="yes"/>
      <point x="881" y="1401"/>
      <point x="1069" y="1193"/>
    </contour>
  </outline>
</glyph>
<glyph name="colon" format="2">
  <advance width="335"/>
  <unicode hex="003A"/>
  <outline>
    <contour>
      <point x="197" y="907" type="line"/>
      <point x="229" y="1059" type="line"/>
      <point x="293" y="1059" type="line"/>
      <point x="260" y="907" type="line"/>
    </contour>
    <contour>
      <point x="4" y="0" type="line"/>
      <point x="37" y="152" type="line"/>
      <point x="98" y="152" type="line"/>
      <point x="68" y="0" type="line"/>
    </contour>
  </outline>
</glyph>
<glyph name="semicolon" format="2">
  <advance width="346"/>
  <unicode hex="003B"/>
  <outline>
    <contour>
      <point x="201" y="907" type="line"/>
      <point x="233" y="1059" type="line"/>
      <point x="297" y="1059" type="line"/>
      <point x="264" y="907" type="line"/>
    </contour>
    <contour>
      <point x="-27" y="-166" type="line"/>
      <point x="31" y="-12" type="line"/>
      <point x="4" y="-12" type="line"/>
      <point x="39" y="152" type="line"/>
      <point x="115" y="152" type="line"/>
      <point x="78" y="-12" type="line"/>
      <point x="14" y="-166" type="line"/>
    </contour>
  </outline>
</glyph>
<glyph name="less" format="2">
  <advance width="1110"/>
  <unicode hex="003C"/>
  <outline>
    <contour>
      <point x="63" y="553" type="line"/>
      <point x="918" y="1065" type="line"/>
      <point x="918" y="989" type="line"/>
      <point x="164" y="530" type="line"/>
      <point x="918" y="70" type="line"/>
      <point x="918" y="-6" type="line"/>
      <point x="63" y="506" type="line"/>
    </contour>
  </outline>
</glyph>
<glyph name="equal" format="2">
  <advance width="937"/>
  <unicode hex="003D"/>
  <outline>
    <contour>
      <point x="154" y="621" type="line"/>
      <point x="154" y="680" type="line"/>
      <point x="760" y="680" type="line"/>
      <point x="760" y="621" type="line"/>
    </contour>
    <contour>
      <point x="154" y="451" type="line"/>
      <point x="154" y="510" type="line"/>
      <point x="760" y="510" type="line"/>
      <point x="760" y="451" type="line"/>
    </contour>
  </outline>
</glyph>
<glyph name="greater" format="2">
  <advance width="1110"/>
  <unicode hex="003E"/>
  <outline>
    <contour>
      <point x="1010" y="506" type="line"/>
      <point x="156" y="-6" type="line"/>
      <point x="156" y="70" type="line"/>
      <point x="909" y="530" type="line"/>
      <point x="156" y="989" type="line"/>
      <point x="156" y="1065" type="line"/>
      <point x="1010" y="553" type="line"/>
    </contour>
  </outline>
</glyph>
<glyph name="question" format="2">
  <advance width="925"/>
  <unicode hex="003F"/>
  <outline>
    <contour>
      <point x="281" y="381" type="line"/>
      <point x="305" y="495"/>
      <point x="379" y="647"/>
      <point x="462" y="723"/>
      <point x="524" y="754" type="qcurve" smooth="yes"/>
      <point x="545" y="765"/>
      <point x="621" y="800"/>
      <point x="671" y="823"/>
      <point x="741" y="863"/>
      <point x="787" y="901"/>
      <point x="838" y="959"/>
      <point x="867" y="1023"/>
      <point x="887" y="1111"/>
      <point x="887" y="1163" type="qcurve" smooth="yes"/>
      <point x="887" y="1283"/>
      <point x="747" y="1409"/>
      <point x="641" y="1409" type="qcurve" smooth="yes"/>
      <point x="529" y="1409"/>
      <point x="311" y="1283"/>
      <point x="240" y="1180" type="qcurve"/>
      <point x="193" y="1208" type="line"/>
      <point x="272" y="1332"/>
      <point x="526" y="1473"/>
      <point x="653" y="1473" type="qcurve" smooth="yes"/>
      <point x="782" y="1473"/>
      <point x="954" y="1313"/>
      <point x="954" y="1169" type="qcurve" smooth="yes"/>
      <point x="954" y="1114"/>
      <point x="934" y="1018"/>
      <point x="907" y="949"/>
      <point x="852" y="883"/>
      <point x="810" y="843"/>
      <point x="730" y="794"/>
      <point x="684" y="770"/>
      <point x="590" y="724"/>
      <point x="569" y="713" type="qcurve" smooth="yes"/>
      <point x="526" y="692"/>
      <point x="470" y="651"/>
      <point x="408" y="578"/>
      <point x="362" y="463"/>
      <point x="344" y="381" type="qcurve"/>
    </contour>
    <contour>
      <point x="201" y="0" type="line"/>
      <point x="240" y="186" type="line"/>
      <point x="303" y="186" type="line"/>
      <point x="264" y="0" type="line"/>
    </contour>
  </outline>
</glyph>
<glyph name="at" format="2">
  <advance width="1628"/>
  <unicode hex="0040"/>
  <outline>
    <contour>
      <point x="1448" y="614" type="qcurve" smooth="yes"/>
      <point x="1448" y="863"/>
      <point x="1151" y="1186"/>
      <point x="915" y="1186" type="qcurve" smooth="yes"/>
      <point x="764" y="1186"/>
      <point x="467" y="1043"/>
      <point x="242" y="809"/>
      <point x="102" y="491"/>
      <point x="102" y="326" type="qcurve" smooth="yes"/>
      <point x="102" y="77"/>
      <point x="398" y="-250"/>
      <point x="631" y="-250" type="qcurve" smooth="yes"/>
      <point x="777" y="-250"/>
      <point x="936" y="-172" type="qcurve"/>
      <point x="948" y="-217" type="line"/>
      <point x="773" y="-299"/>
      <point x="610" y="-299" type="qcurve" smooth="yes"/>
      <point x="451" y="-299"/>
      <point x="195" y="-136"/>
      <point x="53" y="149"/>
      <point x="53" y="324" type="qcurve" smooth="yes"/>
      <point x="53" y="465"/>
      <point x="151" y="742"/>
      <point x="322" y="966"/>
      <point x="541" y="1140"/>
      <point x="799" y="1235"/>
      <point x="926" y="1235" type="qcurve" smooth="yes"/>
      <point x="1176" y="1235"/>
      <point x="1497" y="891"/>
      <point x="1497" y="625" type="qcurve" smooth="yes"/>
      <point x="1497" y="514"/>
      <point x="1437" y="281"/>
      <point x="1334" y="89"/>
      <point x="1181" y="-33"/>
      <point x="1096" y="-33" type="qcurve" smooth="yes"/>
      <point x="1040" y="-33"/>
      <point x="985" y="27"/>
      <point x="985" y="92" type="qcurve" smooth="yes"/>
      <point x="985" y="141"/>
      <point x="991" y="168" type="qcurve"/>
      <point x="921" y="100"/>
      <point x="740" y="18"/>
      <point x="655" y="18" type="qcurve" smooth="yes"/>
      <point x="522" y="18"/>
      <point x="358" y="219"/>
      <point x="358" y="377" type="qcurve" smooth="yes"/>
      <point x="358" y="519"/>
      <point x="493" y="772"/>
      <point x="719" y="924"/>
      <point x="846" y="924" type="qcurve" smooth="yes"/>
      <point x="942" y="924"/>
      <point x="1082" y="828"/>
      <point x="1114" y="741" type="qcurve"/>
      <point x="1151" y="922" type="line"/>
      <point x="1208" y="922" type="line"/>
      <point x="1055" y="203" type="line" smooth="yes"/>
      <point x="1040" y="137"/>
      <point x="1040" y="104" type="qcurve" smooth="yes"/>
      <point x="1040" y="18"/>
      <point x="1118" y="18" type="qcurve" smooth="yes"/>
      <point x="1202" y="18"/>
      <point x="1357" y="199"/>
      <point x="1448" y="476"/>
    </contour>
    <contour>
      <point x="1020" y="295" type="qcurve"/>
      <point x="1096" y="670" type="line"/>
      <point x="1068" y="764"/>
      <point x="933" y="868"/>
      <point x="840" y="868" type="qcurve" smooth="yes"/>
      <point x="733" y="868"/>
      <point x="537" y="736"/>
      <point x="416" y="512"/>
      <point x="416" y="387" type="qcurve" smooth="yes"/>
      <point x="416" y="249"/>
      <point x="560" y="74"/>
      <point x="676" y="74" type="qcurve" smooth="yes"/>
      <point x="778" y="74"/>
      <point x="984" y="205"/>
    </contour>
  </outline>
</glyph>
<glyph name="A" format="2">
  <advance width="1327"/>
  <unicode hex="0041"/>
  <anchor x="0" y="0" name="Anchor-11"/>
  <anchor x="0" y="0" name="Anchor-10"/>
  <anchor x="852" y="1454" name="Anchor-9"/>
  <anchor x="1163" y="0" name="Anchor-8"/>
  <anchor x="551" y="0" name="Anchor-7"/>
  <outline>
    <contour>
      <point x="819" y="1454" type="line"/>
      <point x="881" y="1454" type="line"/>
      <point x="1163" y="0" type="line"/>
      <point x="1087" y="0" type="line"/>
      <point x="991" y="502" type="line"/>
      <point x="303" y="502" type="line"/>
      <point x="-6" y="0" type="line"/>
      <point x="-84" y="0" type="line"/>
    </contour>
    <contour>
      <point x="983" y="563" type="line"/>
      <point x="831" y="1364" type="line"/>
      <point x="336" y="563" type="line"/>
    </contour>
  </outline>
</glyph>
<glyph name="F" format="2">
  <advance width="1193"/>
  <unicode hex="0046"/>
  <outline>
    <contour>
      <point x="371" y="1454" type="line"/>
      <point x="1266" y="1454" type="line"/>
      <point x="1251" y="1389" type="line"/>
      <point x="428" y="1389" type="line"/>
      <point x="299" y="774" type="line"/>
      <point x="997" y="774" type="line"/>
      <point x="985" y="711" type="line"/>
      <point x="283" y="711" type="line"/>
      <point x="133" y="0" type="line"/>
      <point x="61" y="0" type="line"/>
    </contour>
  </outline>
</glyph>
<glyph name="G" format="2">
  <advance width="1409"/>
  <unicode hex="0047"/>
  <anchor x="0" y="0" name="Anchor-11"/>
  <anchor x="0" y="0" name="Anchor-10"/>
  <anchor x="905" y="1448" name="Anchor-9"/>
  <anchor x="0" y="0" name="Anchor-8"/>
  <anchor x="623" y="0" name="Anchor-7"/>
  <outline>
    <contour>
      <point x="913" y="637" type="line"/>
      <point x="926" y="698" type="line"/>
      <point x="1309" y="698" type="line"/>
      <point x="1159" y="0" type="line"/>
      <point x="1096" y="0" type="line"/>
      <point x="1147" y="238" type="line"/>
      <point x="887" y="-10"/>
      <point x="612" y="-10" type="qcurve" smooth="yes"/>
      <point x="492" y="-10"/>
      <point x="295" y="93"/>
      <point x="171" y="266"/>
      <point x="104" y="482"/>
      <point x="104" y="600" type="qcurve" smooth="yes"/>
      <point x="104" y="730"/>
      <point x="186" y="987"/>
      <point x="337" y="1203"/>
      <point x="537" y="1370"/>
      <point x="789" y="1464"/>
      <point x="922" y="1464" type="qcurve" smooth="yes"/>
      <point x="1109" y="1464"/>
      <point x="1333" y="1293"/>
      <point x="1370" y="1147" type="qcurve"/>
      <point x="1303" y="1116" type="line"/>
      <point x="1225" y="1397"/>
      <point x="913" y="1397" type="qcurve" smooth="yes"/>
      <point x="759" y="1397"/>
      <point x="480" y="1257"/>
      <point x="287" y="1032"/>
      <point x="174" y="746"/>
      <point x="174" y="602" type="qcurve" smooth="yes"/>
      <point x="174" y="454"/>
      <point x="285" y="207"/>
      <point x="499" y="57"/>
      <point x="637" y="57" type="qcurve" smooth="yes"/>
      <point x="890" y="57"/>
      <point x="1165" y="326" type="qcurve"/>
      <point x="1231" y="637" type="line"/>
    </contour>
  </outline>
</glyph>
<glyph name="J" format="2">
  <advance width="944"/>
  <unicode hex="004A"/>
  <anchor x="0" y="0" name="Anchor-11"/>
  <anchor x="0" y="0" name="Anchor-10"/>
  <anchor x="913" y="1448" name="Anchor-9"/>
  <anchor x="0" y="0" name="Anchor-8"/>
  <anchor x="0" y="0" name="Anchor-7"/>
  <outline>
    <contour>
      <point x="-68" y="68" type="qcurve"/>
      <point x="-29" y="125" type="line"/>
      <point x="69" y="41"/>
      <point x="233" y="41" type="qcurve" smooth="yes"/>
      <point x="299" y="41"/>
      <point x="409" y="73"/>
      <point x="493" y="128"/>
      <point x="564" y="223"/>
      <point x="615" y="324"/>
      <point x="664" y="475"/>
      <point x="700" y="615"/>
      <point x="721" y="715" type="qcurve" smooth="yes"/>
      <point x="879" y="1452" type="line"/>
      <point x="948" y="1452" type="line"/>
      <point x="791" y="715" type="line" smooth="yes"/>
      <point x="771" y="620"/>
      <point x="738" y="482"/>
      <point x="693" y="331"/>
      <point x="645" y="227"/>
      <point x="581" y="122"/>
      <point x="505" y="55"/>
      <point x="410" y="1"/>
      <point x="292" y="-23"/>
      <point x="221" y="-23" type="qcurve" smooth="yes"/>
      <point x="54" y="-23"/>
    </contour>
  </outline>
</glyph>
<glyph name="L" format="2">
  <advance width="1132"/>
  <unicode hex="004C"/>
  <anchor x="940" y="1065" name="Anchor-11"/>
  <anchor x="608" y="727" name="Anchor-10"/>
  <anchor x="401" y="1454" name="Anchor-9"/>
  <anchor x="0" y="0" name="Anchor-8"/>
  <anchor x="520" y="0" name="Anchor-7"/>
  <outline>
    <contour>
      <point x="371" y="1454" type="line"/>
      <point x="442" y="1454" type="line"/>
      <point x="145" y="66" type="line"/>
      <point x="991" y="66" type="line"/>
      <point x="977" y="0" type="line"/>
      <point x="61" y="0" type="line"/>
    </contour>
  </outline>
</glyph>
<glyph name="M" format="2">
  <advance width="1728"/>
  <unicode hex="004D"/>
  <anchor x="0" y="0" name="Anchor-11"/>
  <anchor x="0" y="0" name="Anchor-10"/>
  <anchor x="1061" y="1454" name="Anchor-9"/>
  <anchor x="0" y="0" name="Anchor-8"/>
  <anchor x="752" y="0" name="Anchor-7"/>
  <outline>
    <contour>
      <point x="371" y="1454" type="line"/>
      <point x="438" y="1454" type="line"/>
      <point x="813" y="373" type="line"/>
      <point x="1649" y="1454" type="line"/>
      <point x="1714" y="1454" type="line"/>
      <point x="1405" y="0" type="line"/>
      <point x="1335" y="0" type="line"/>
      <point x="1614" y="1315" type="line"/>
      <point x="817" y="283" type="line"/>
      <point x="770" y="283" type="line"/>
      <point x="414" y="1315" type="line"/>
      <point x="133" y="0" type="line"/>
      <point x="61" y="0" type="line"/>
    </contour>
  </outline>
</glyph>
<glyph name="P" format="2">
  <advance width="1220"/>
  <unicode hex="0050"/>
  <outline>
    <contour>
      <point x="371" y="1454" type="line"/>
      <point x="926" y="1454" type="line" smooth="yes"/>
      <point x="1025" y="1454"/>
      <point x="1175" y="1347"/>
      <point x="1247" y="1184"/>
      <point x="1247" y="1090" type="qcurve" smooth="yes"/>
      <point x="1247" y="962"/>
      <point x="1116" y="718"/>
      <point x="888" y="561"/>
      <point x="760" y="561" type="qcurve" smooth="yes"/>
      <point x="252" y="561" type="line"/>
      <point x="133" y="0" type="line"/>
      <point x="61" y="0" type="line"/>
    </contour>
    <contour>
      <point x="772" y="627" type="line" smooth="yes"/>
      <point x="880" y="627"/>
      <point x="1071" y="768"/>
      <point x="1178" y="979"/>
      <point x="1178" y="1087" type="qcurve" smooth="yes"/>
      <point x="1178" y="1212"/>
      <point x="1033" y="1389"/>
      <point x="920" y="1389" type="qcurve" smooth="yes"/>
      <point x="428" y="1389" type="line"/>
      <point x="266" y="627" type="line"/>
    </contour>
  </outline>
</glyph>
<glyph name="T" format="2">
  <advance width="1179"/>
  <unicode hex="0054"/>
  <anchor x="0" y="0" name="Anchor-11"/>
  <anchor x="0" y="0" name="Anchor-10"/>
  <anchor x="760" y="1448" name="Anchor-9"/>
  <anchor x="0" y="0" name="Anchor-8"/>
  <anchor x="453" y="0" name="Anchor-7"/>
  <outline>
    <contour>
      <point x="713" y="1389" type="line"/>
      <point x="197" y="1389" type="line"/>
      <point x="209" y="1454" type="line"/>
      <point x="1315" y="1454" type="line"/>
      <point x="1300" y="1389" type="line"/>
      <point x="782" y="1389" type="line"/>
      <point x="487" y="0" type="line"/>
      <point x="418" y="0" type="line"/>
    </contour>
  </outline>
</glyph>
<glyph name="V" format="2">
  <advance width="1320"/>
  <unicode hex="0056"/>
  <outline>
    <contour>
      <point x="205" y="1454" type="line"/>
      <point x="279" y="1454" type="line"/>
      <point x="543" y="88" type="line"/>
      <point x="1382" y="1454" type="line"/>
      <point x="1458" y="1454" type="line"/>
      <point x="557" y="0" type="line"/>
      <point x="487" y="0" type="line"/>
    </contour>
  </outline>
</glyph>
<glyph name="X" format="2">
  <advance width="1214"/>
  <unicode hex="0058"/>
  <outline>
    <contour>
      <point x="588" y="717" type="line"/>
      <point x="195" y="1454" type="line"/>
      <point x="279" y="1454" type="line"/>
      <point x="641" y="770" type="line"/>
      <point x="1292" y="1454" type="line"/>
      <point x="1376" y="1454" type="line"/>
      <point x="670" y="717" type="line"/>
      <point x="1051" y="0" type="line"/>
      <point x="967" y="0" type="line"/>
      <point x="618" y="664" type="line"/>
      <point x="-14" y="0" type="line"/>
      <point x="-98" y="0" type="line"/>
    </contour>
  </outline>
</glyph>
<glyph name="Y" format="2">
  <advance width="1224"/>
  <unicode hex="0059"/>
  <anchor x="0" y="0" name="Anchor-11"/>
  <anchor x="0" y="0" name="Anchor-10"/>
  <anchor x="774" y="1448" name="Anchor-9"/>
  <anchor x="0" y="0" name="Anchor-8"/>
  <anchor x="0" y="0" name="Anchor-7"/>
  <outline>
    <contour>
      <point x="555" y="561" type="line"/>
      <point x="195" y="1454" type="line"/>
      <point x="274" y="1454" type="line"/>
      <point x="606" y="629" type="line"/>
      <point x="1290" y="1454" type="line"/>
      <point x="1368" y="1454" type="line"/>
      <point x="625" y="557" type="line"/>
      <point x="506" y="0" type="line"/>
      <point x="436" y="0" type="line"/>
    </contour>
  </outline>
</glyph>
<glyph name="Z" format="2">
  <advance width="1208"/>
  <unicode hex="005A"/>
  <anchor x="0" y="0" name="Anchor-11"/>
  <anchor x="0" y="0" name="Anchor-10"/>
  <anchor x="801" y="1454" name="Anchor-9"/>
  <anchor x="0" y="0" name="Anchor-8"/>
  <anchor x="492" y="0" name="Anchor-7"/>
  <outline>
    <contour>
      <point x="-66" y="61" type="line"/>
      <point x="1231" y="1389" type="line"/>
      <point x="227" y="1389" type="line"/>
      <point x="242" y="1454" type="line"/>
      <point x="1331" y="1454" type="line"/>
      <point x="1317" y="1393" type="line"/>
      <point x="23" y="66" type="line"/>
      <point x="1030" y="66" type="line"/>
      <point x="1016" y="0" type="line"/>
      <point x="-80" y="0" type="line"/>
    </contour>
  </outline>
</glyph>
<glyph name="bracketleft" format="2">
  <advance width="462"/>
  <unicode hex="005B"/>
  <outline>
    <contour>
      <point x="41" y="-82" type="line"/>
      <point x="381" y="1516" type="line"/>
      <point x="549" y="1516" type="line"/>
      <point x="535" y="1452" type="line"/>
      <point x="434" y="1452" type="line"/>
      <point x="121" y="-18" type="line"/>
      <point x="223" y="-18" type="line"/>
      <point x="211" y="-82" type="line"/>
    </contour>
  </outline>
</glyph>
<glyph name="backslash" format="2">
  <advance width="1015"/>
  <unicode hex="005C"/>
  <outline>
    <contour>
      <point x="299" y="1454" type="line"/>
      <point x="836" y="0" type="line"/>
      <point x="754" y="0" type="line"/>
      <point x="215" y="1454" type="line"/>
    </contour>
  </outline>
</glyph>
<glyph name="bracketright" format="2">
  <advance width="460"/>
  <unicode hex="005D"/>
  <outline>
    <contour>
      <point x="-43" y="-82" type="line"/>
      <point x="-31" y="-18" type="line"/>
      <point x="70" y="-18" type="line"/>
      <point x="383" y="1452" type="line"/>
      <point x="283" y="1452" type="line"/>
      <point x="297" y="1516" type="line"/>
      <point x="463" y="1516" type="line"/>
      <point x="125" y="-82" type="line"/>
    </contour>
  </outline>
</glyph>
<glyph name="asciicircum" format="2">
  <advance width="1056"/>
  <unicode hex="005E"/>
  <outline>
    <contour>
      <point x="111" y="621" type="line"/>
      <point x="516" y="1454" type="line"/>
      <point x="578" y="1454" type="line"/>
      <point x="981" y="621" type="line"/>
      <point x="911" y="621" type="line"/>
      <point x="547" y="1374" type="line"/>
      <point x="176" y="621" type="line"/>
    </contour>
  </outline>
</glyph>
<glyph name="underscore" format="2">
  <advance width="1038"/>
  <unicode hex="005F"/>
  <outline>
    <contour>
      <point x="-10" y="-66" type="line"/>
      <point x="4" y="0" type="line"/>
      <point x="762" y="0" type="line"/>
      <point x="748" y="-66" type="line"/>
    </contour>
  </outline>
</glyph>
<glyph name="grave" format="2">
  <advance width="417"/>
  <unicode hex="0060"/>
  <anchor x="416" y="1495" name="Anchor-13"/>
  <outline>
    <contour>
      <point x="307" y="1495" type="line"/>
      <point x="395" y="1495" type="line"/>
      <point x="485" y="1333" type="line"/>
      <point x="430" y="1307" type="line"/>
    </contour>
  </outline>
</glyph>
<glyph name="b" format="2">
  <advance width="1189"/>
  <unicode hex="0062"/>
  <outline>
    <contour>
      <point x="141" y="217" type="qcurve"/>
      <point x="94" y="0" type="line"/>
      <point x="31" y="0" type="line"/>
      <point x="348" y="1495" type="line"/>
      <point x="418" y="1495" type="line"/>
      <point x="274" y="823" type="line"/>
      <point x="496" y="1081"/>
      <point x="731" y="1081" type="qcurve" smooth="yes"/>
      <point x="803" y="1081"/>
      <point x="924" y="1032"/>
      <point x="1008" y="947"/>
      <point x="1068" y="835"/>
      <point x="1096" y="709"/>
      <point x="1096" y="643" type="qcurve" smooth="yes"/>
      <point x="1096" y="517"/>
      <point x="990" y="271"/>
      <point x="821" y="91"/>
      <point x="598" y="-20"/>
      <point x="487" y="-20" type="qcurve" smooth="yes"/>
      <point x="361" y="-20"/>
      <point x="181" y="114"/>
    </contour>
    <contour>
      <point x="1024" y="635" type="qcurve" smooth="yes"/>
      <point x="1024" y="737"/>
      <point x="951" y="907"/>
      <point x="801" y="1016"/>
      <point x="700" y="1016" type="qcurve" smooth="yes"/>
      <point x="617" y="1016"/>
      <point x="450" y="934"/>
      <point x="324" y="819"/>
      <point x="254" y="735" type="qcurve"/>
      <point x="166" y="305" type="line"/>
      <point x="183" y="188"/>
      <point x="364" y="45"/>
      <point x="489" y="45" type="qcurve" smooth="yes"/>
      <point x="623" y="45"/>
      <point x="872" y="215"/>
      <point x="1024" y="489"/>
    </contour>
  </outline>
</glyph>
<glyph name="f" format="2">
  <advance width="616"/>
  <unicode hex="0066"/>
  <outline>
    <contour>
      <point x="279" y="1004" type="line"/>
      <point x="135" y="1004" type="line"/>
      <point x="147" y="1065" type="line"/>
      <point x="293" y="1065" type="line"/>
      <point x="301" y="1104" type="line" smooth="yes"/>
      <point x="339" y="1296"/>
      <point x="536" y="1516"/>
      <point x="666" y="1516" type="qcurve" smooth="yes"/>
      <point x="722" y="1516"/>
      <point x="819" y="1477"/>
      <point x="844" y="1446" type="qcurve"/>
      <point x="801" y="1399" type="line"/>
      <point x="781" y="1423"/>
      <point x="705" y="1452"/>
      <point x="662" y="1452" type="qcurve" smooth="yes"/>
      <point x="557" y="1452"/>
      <point x="405" y="1272"/>
      <point x="371" y="1104" type="qcurve"/>
      <point x="362" y="1065" type="line"/>
      <point x="655" y="1065" type="line"/>
      <point x="643" y="1004" type="line"/>
      <point x="348" y="1004" type="line"/>
      <point x="43" y="-436" type="line"/>
      <point x="-27" y="-436" type="line"/>
    </contour>
  </outline>
</glyph>
<glyph name="h" format="2">
  <advance width="1118"/>
  <unicode hex="0068"/>
  <anchor x="0" y="0" name="Anchor-11"/>
  <anchor x="559" y="532" name="Anchor-10"/>
  <anchor x="752" y="1454" name="Anchor-9"/>
  <anchor x="0" y="0" name="Anchor-8"/>
  <anchor x="446" y="0" name="Anchor-7"/>
  <outline>
    <contour>
      <point x="348" y="1495" type="line"/>
      <point x="418" y="1495" type="line"/>
      <point x="270" y="799" type="line"/>
      <point x="359" y="928"/>
      <point x="616" y="1081"/>
      <point x="745" y="1081" type="qcurve" smooth="yes"/>
      <point x="987" y="1081"/>
      <point x="987" y="801" type="qcurve" smooth="yes"/>
      <point x="987" y="704"/>
      <point x="965" y="602" type="qcurve" smooth="yes"/>
      <point x="838" y="0" type="line"/>
      <point x="768" y="0" type="line"/>
      <point x="893" y="594" type="line" smooth="yes"/>
      <point x="915" y="704"/>
      <point x="915" y="776" type="qcurve" smooth="yes"/>
      <point x="915" y="1016"/>
      <point x="717" y="1016" type="qcurve" smooth="yes"/>
      <point x="585" y="1016"/>
      <point x="311" y="815"/>
      <point x="242" y="666" type="qcurve"/>
      <point x="100" y="0" type="line"/>
      <point x="31" y="0" type="line"/>
    </contour>
  </outline>
</glyph>
<glyph name="i" format="2">
  <advance width="391"/>
  <unicode hex="0069"/>
  <anchor x="0" y="0" name="Anchor-11"/>
  <anchor x="0" y="0" name="Anchor-10"/>
  <anchor x="0" y="0" name="Anchor-9"/>
  <anchor x="100" y="0" name="Anchor-8"/>
  <anchor x="66" y="0" name="Anchor-7"/>
  <outline>
    <contour>
      <point x="348" y="1495" type="line"/>
      <point x="418" y="1495" type="line"/>
      <point x="381" y="1323" type="line"/>
      <point x="311" y="1323" type="line"/>
    </contour>
    <contour>
      <point x="256" y="1065" type="line"/>
      <point x="326" y="1065" type="line"/>
      <point x="100" y="0" type="line"/>
      <point x="31" y="0" type="line"/>
    </contour>
  </outline>
</glyph>
<glyph name="q" format="2">
  <advance width="1189"/>
  <unicode hex="0071"/>
  <outline>
    <contour>
      <point x="879" y="238" type="line"/>
      <point x="656" y="-20"/>
      <point x="420" y="-20" type="qcurve" smooth="yes"/>
      <point x="306" y="-20"/>
      <point x="138" y="105"/>
      <point x="57" y="302"/>
      <point x="57" y="420" type="qcurve" smooth="yes"/>
      <point x="57" y="545"/>
      <point x="164" y="789"/>
      <point x="335" y="970"/>
      <point x="560" y="1081"/>
      <point x="674" y="1081" type="qcurve" smooth="yes"/>
      <point x="789" y="1081"/>
      <point x="972" y="947"/>
      <point x="1012" y="844" type="qcurve"/>
      <point x="1057" y="1065" type="line"/>
      <point x="1122" y="1065" type="line"/>
      <point x="805" y="-436" type="line"/>
      <point x="735" y="-436" type="line"/>
    </contour>
    <contour>
      <point x="899" y="338" type="qcurve"/>
      <point x="985" y="731" type="line"/>
      <point x="976" y="845"/>
      <point x="797" y="1016"/>
      <point x="670" y="1016" type="qcurve" smooth="yes"/>
      <point x="532" y="1016"/>
      <point x="278" y="843"/>
      <point x="127" y="571"/>
      <point x="127" y="430" type="qcurve" smooth="yes"/>
      <point x="127" y="268"/>
      <point x="301" y="45"/>
      <point x="446" y="45" type="qcurve" smooth="yes"/>
      <point x="575" y="45"/>
      <point x="812" y="210"/>
    </contour>
  </outline>
</glyph>
<glyph name="s" format="2">
  <advance width="931"/>
  <unicode hex="0073"/>
  <anchor x="0" y="0" name="Anchor-11"/>
  <anchor x="0" y="0" name="Anchor-10"/>
  <anchor x="575" y="1065" name="Anchor-9"/>
  <anchor x="0" y="0" name="Anchor-8"/>
  <anchor x="358" y="0" name="Anchor-7"/>
  <outline>
    <contour>
      <point x="-29" y="147" type="qcurve"/>
      <point x="18" y="195" type="line"/>
      <point x="145" y="41"/>
      <point x="344" y="41" type="qcurve" smooth="yes"/>
      <point x="505" y="41"/>
      <point x="715" y="192"/>
      <point x="715" y="315" type="qcurve" smooth="yes"/>
      <point x="715" y="344"/>
      <point x="699" y="390"/>
      <point x="660" y="427"/>
      <point x="618" y="454"/>
      <point x="543" y="482"/>
      <point x="478" y="502"/>
      <point x="424" y="516" type="qcurve" smooth="yes"/>
      <point x="359" y="533"/>
      <point x="288" y="554"/>
      <point x="207" y="590"/>
      <point x="169" y="629"/>
      <point x="143" y="688"/>
      <point x="143" y="727" type="qcurve" smooth="yes"/>
      <point x="143" y="839"/>
      <point x="265" y="1003"/>
      <point x="459" y="1081"/>
      <point x="697" y="1081"/>
      <point x="858" y="998"/>
      <point x="887" y="930" type="qcurve"/>
      <point x="836" y="895" type="line"/>
      <point x="807" y="955"/>
      <point x="660" y="1020"/>
      <point x="563" y="1020" type="qcurve" smooth="yes"/>
      <point x="498" y="1020"/>
      <point x="376" y="987"/>
      <point x="274" y="923"/>
      <point x="213" y="814"/>
      <point x="213" y="745" type="qcurve" smooth="yes"/>
      <point x="213" y="715"/>
      <point x="234" y="671"/>
      <point x="266" y="640"/>
      <point x="332" y="611"/>
      <point x="395" y="592"/>
      <point x="451" y="578" type="qcurve" smooth="yes"/>
      <point x="523" y="559"/>
      <point x="610" y="531"/>
      <point x="704" y="489"/>
      <point x="754" y="443"/>
      <point x="786" y="375"/>
      <point x="786" y="332" type="qcurve" smooth="yes"/>
      <point x="786" y="168"/>
      <point x="537" y="-20"/>
      <point x="336" y="-20" type="qcurve" smooth="yes"/>
      <point x="86" y="-20"/>
    </contour>
  </outline>
</glyph>
<glyph name="v" format="2">
  <advance width="948"/>
  <unicode hex="0076"/>
  <outline>
    <contour>
      <point x="127" y="1065" type="line"/>
      <point x="201" y="1065" type="line"/>
      <point x="352" y="78" type="line"/>
      <point x="535" y="291"/>
      <point x="807" y="816"/>
      <point x="883" y="1065" type="qcurve"/>
      <point x="952" y="1065" type="line"/>
      <point x="769" y="466"/>
      <point x="367" y="0" type="qcurve"/>
      <point x="297" y="0" type="line"/>
    </contour>
  </outline>
</glyph>
<glyph name="z" format="2">
  <advance width="942"/>
  <unicode hex="007A"/>
  <anchor x="0" y="0" name="Anchor-11"/>
  <anchor x="0" y="0" name="Anchor-10"/>
  <anchor x="584" y="1065" name="Anchor-9"/>
  <anchor x="0" y="0" name="Anchor-8"/>
  <anchor x="358" y="0" name="Anchor-7"/>
  <outline>
    <contour>
      <point x="-61" y="57" type="line"/>
      <point x="881" y="1006" type="line"/>
      <point x="152" y="1006" type="line"/>
      <point x="164" y="1065" type="line"/>
      <point x="975" y="1065" type="line"/>
      <point x="963" y="1008" type="line"/>
      <point x="25" y="59" type="line"/>
      <point x="758" y="59" type="line"/>
      <point x="743" y="0" type="line"/>
      <point x="-74" y="0" type="line"/>
    </contour>
  </outline>
</glyph>
<glyph name="braceleft" format="2">
  <advance width="464"/>
  <unicode hex="007B"/>
  <outline>
    <contour>
      <point x="434" y="1452" type="line"/>
      <point x="307" y="856" type="line" smooth="yes"/>
      <point x="305" y="834"/>
      <point x="270" y="763"/>
      <point x="238" y="737" type="qcurve"/>
      <point x="260" y="713"/>
      <point x="260" y="662" type="qcurve" smooth="yes"/>
      <point x="260" y="652"/>
      <point x="258" y="621"/>
      <point x="258" y="618" type="qcurve" smooth="yes"/>
      <point x="125" y="0" type="line"/>
      <point x="233" y="0" type="line"/>
      <point x="219" y="-63" type="line"/>
      <point x="90" y="-63" type="line" smooth="yes"/>
      <point x="57" y="-63"/>
      <point x="57" y="-25" type="qcurve" smooth="yes"/>
      <point x="57" y="-10"/>
      <point x="59" y="-2" type="qcurve" smooth="yes"/>
      <point x="190" y="608" type="line" smooth="yes"/>
      <point x="193" y="623"/>
      <point x="193" y="643" type="qcurve" smooth="yes"/>
      <point x="193" y="703"/>
      <point x="147" y="709" type="qcurve"/>
      <point x="160" y="770" type="line"/>
      <point x="196" y="770"/>
      <point x="239" y="837"/>
      <point x="244" y="866" type="qcurve" smooth="yes"/>
      <point x="369" y="1454" type="line" smooth="yes"/>
      <point x="376" y="1488"/>
      <point x="411" y="1516"/>
      <point x="426" y="1516" type="qcurve" smooth="yes"/>
      <point x="555" y="1516" type="line"/>
      <point x="541" y="1452" type="line"/>
    </contour>
  </outline>
</glyph>
<glyph name="braceright" format="2">
  <advance width="464"/>
  <unicode hex="007D"/>
  <outline>
    <contour>
      <point x="281" y="1452" type="line"/>
      <point x="293" y="1516" type="line"/>
      <point x="420" y="1516" type="line" smooth="yes"/>
      <point x="427" y="1516"/>
      <point x="441" y="1511"/>
      <point x="455" y="1490"/>
      <point x="455" y="1473" type="qcurve" smooth="yes"/>
      <point x="455" y="1460"/>
      <point x="453" y="1454" type="qcurve" smooth="yes"/>
      <point x="328" y="866" type="line" smooth="yes"/>
      <point x="324" y="854"/>
      <point x="324" y="834" type="qcurve" smooth="yes"/>
      <point x="324" y="770"/>
      <point x="371" y="770" type="qcurve"/>
      <point x="358" y="709" type="line"/>
      <point x="324" y="705"/>
      <point x="279" y="646"/>
      <point x="272" y="608" type="qcurve" smooth="yes"/>
      <point x="143" y="-2" type="line" smooth="yes"/>
      <point x="136" y="-33"/>
      <point x="103" y="-63"/>
      <point x="84" y="-63" type="qcurve" smooth="yes"/>
      <point x="-43" y="-63" type="line"/>
      <point x="-31" y="0" type="line"/>
      <point x="76" y="0" type="line"/>
      <point x="209" y="618" type="line" smooth="yes"/>
      <point x="211" y="639"/>
      <point x="248" y="713"/>
      <point x="279" y="737" type="qcurve"/>
      <point x="254" y="769"/>
      <point x="254" y="813" type="qcurve" smooth="yes"/>
      <point x="254" y="840"/>
      <point x="258" y="856" type="qcurve" smooth="yes"/>
      <point x="387" y="1452" type="line"/>
    </contour>
  </outline>
</glyph>
<glyph name="asciitilde" format="2">
  <advance width="935"/>
  <unicode hex="007E"/>
  <outline>
    <contour>
      <point x="305" y="688" type="qcurve" smooth="yes"/>
      <point x="343" y="688"/>
      <point x="428" y="649"/>
      <point x="491" y="602"/>
      <point x="574" y="563"/>
      <point x="610" y="563" type="qcurve" smooth="yes"/>
      <point x="654" y="563"/>
      <point x="726" y="616"/>
      <point x="756" y="665"/>
      <point x="756" y="674" type="qcurve"/>
      <point x="811" y="672" type="line"/>
      <point x="810" y="670" type="line"/>
      <point x="772" y="573"/>
      <point x="696" y="531" type="qcurve" smooth="yes"/>
      <point x="653" y="508"/>
      <point x="604" y="508" type="qcurve" smooth="yes"/>
      <point x="561" y="508"/>
      <point x="469" y="546"/>
      <point x="405" y="593"/>
      <point x="330" y="631"/>
      <point x="301" y="631" type="qcurve" smooth="yes"/>
      <point x="263" y="631"/>
      <point x="195" y="569"/>
      <point x="166" y="514"/>
      <point x="166" y="508" type="qcurve"/>
      <point x="113" y="508" type="line"/>
      <point x="113" y="514"/>
      <point x="127" y="551"/>
      <point x="159" y="604"/>
      <point x="202" y="653"/>
      <point x="268" y="688"/>
    </contour>
  </outline>
</glyph>
<glyph name="exclamdown" format="2">
  <advance width="473"/>
  <unicode hex="00A1"/>
  <outline>
    <contour>
      <point x="451" y="1466" type="line"/>
      <point x="412" y="1278" type="line"/>
      <point x="334" y="1278" type="line"/>
      <point x="381" y="1466" type="line"/>
    </contour>
    <contour>
      <point x="360" y="1040" type="line"/>
      <point x="139" y="-2" type="line"/>
      <point x="70" y="-2" type="line"/>
      <point x="291" y="1040" type="line"/>
    </contour>
  </outline>
</glyph>
<glyph name="cent" format="2">
  <advance width="1079"/>
  <unicode hex="00A2"/>
  <outline>
    <contour>
      <point x="358" y="-246" type="line"/>
      <point x="408" y="-18" type="line"/>
      <point x="302" y="-9"/>
      <point x="141" y="123"/>
      <point x="61" y="319"/>
      <point x="61" y="430" type="qcurve" smooth="yes"/>
      <point x="61" y="583"/>
      <point x="218" y="875"/>
      <point x="488" y="1070"/>
      <point x="641" y="1081" type="qcurve"/>
      <point x="692" y="1321" type="line"/>
      <point x="741" y="1321" type="line"/>
      <point x="690" y="1081" type="line"/>
      <point x="959" y="1073"/>
      <point x="1024" y="840" type="qcurve"/>
      <point x="950" y="815" type="line"/>
      <point x="891" y="1006"/>
      <point x="678" y="1016" type="qcurve"/>
      <point x="471" y="45" type="line"/>
      <point x="532" y="46"/>
      <point x="680" y="97"/>
      <point x="816" y="196"/>
      <point x="844" y="256" type="qcurve"/>
      <point x="909" y="236" type="line"/>
      <point x="865" y="155"/>
      <point x="702" y="35"/>
      <point x="533" y="-20"/>
      <point x="457" y="-20" type="qcurve"/>
      <point x="408" y="-246" type="line"/>
    </contour>
    <contour>
      <point x="422" y="49" type="qcurve"/>
      <point x="627" y="1014" type="line"/>
      <point x="524" y="1008"/>
      <point x="336" y="896"/>
      <point x="209" y="730"/>
      <point x="133" y="532"/>
      <point x="133" y="438" type="qcurve" smooth="yes"/>
      <point x="133" y="286"/>
      <point x="292" y="62"/>
    </contour>
  </outline>
</glyph>
<glyph name="sterling" format="2">
  <advance width="931"/>
  <unicode hex="00A3"/>
  <outline>
    <contour>
      <point x="672" y="1464" type="qcurve" smooth="yes"/>
      <point x="770" y="1464"/>
      <point x="920" y="1348"/>
      <point x="952" y="1249" type="qcurve"/>
      <point x="897" y="1206" type="line"/>
      <point x="868" y="1297"/>
      <point x="738" y="1401"/>
      <point x="653" y="1401" type="qcurve" smooth="yes"/>
      <point x="531" y="1401"/>
      <point x="332" y="1202"/>
      <point x="332" y="1069" type="qcurve" smooth="yes"/>
      <point x="332" y="1022"/>
      <point x="355" y="923"/>
      <point x="399" y="790"/>
      <point x="408" y="754" type="qcurve"/>
      <point x="750" y="754" type="line"/>
      <point x="735" y="692" type="line"/>
      <point x="420" y="692" type="line"/>
      <point x="428" y="630"/>
      <point x="428" y="594" type="qcurve" smooth="yes"/>
      <point x="428" y="503"/>
      <point x="386" y="372"/>
      <point x="242" y="189"/>
      <point x="100" y="59" type="qcurve"/>
      <point x="184" y="74"/>
      <point x="244" y="74" type="qcurve" smooth="yes"/>
      <point x="305" y="74"/>
      <point x="472" y="35"/>
      <point x="520" y="35" type="qcurve" smooth="yes"/>
      <point x="596" y="35"/>
      <point x="715" y="76" type="qcurve"/>
      <point x="721" y="16" type="line"/>
      <point x="603" y="-31"/>
      <point x="502" y="-31" type="qcurve" smooth="yes"/>
      <point x="445" y="-31"/>
      <point x="264" y="12"/>
      <point x="205" y="12" type="qcurve" smooth="yes"/>
      <point x="105" y="12"/>
      <point x="6" y="-14" type="qcurve"/>
      <point x="-6" y="39" type="line"/>
      <point x="118" y="150"/>
      <point x="260" y="295"/>
      <point x="338" y="421"/>
      <point x="360" y="516"/>
      <point x="360" y="586" type="qcurve" smooth="yes"/>
      <point x="360" y="637"/>
      <point x="350" y="692" type="qcurve"/>
      <point x="121" y="692" type="line"/>
      <point x="133" y="754" type="line"/>
      <point x="336" y="754" type="line"/>
      <point x="327" y="786"/>
      <point x="284" y="918"/>
      <point x="262" y="1014"/>
      <point x="262" y="1061" type="qcurve" smooth="yes"/>
      <point x="262" y="1166"/>
      <point x="381" y="1354"/>
      <point x="571" y="1464"/>
    </contour>
  </outline>
</glyph>
<glyph name="currency" format="2">
  <advance width="1134"/>
  <unicode hex="00A4"/>
  <outline>
    <contour>
      <point x="336" y="965" type="line"/>
      <point x="438" y="1057"/>
      <point x="575" y="1057" type="qcurve" smooth="yes"/>
      <point x="718" y="1057"/>
      <point x="821" y="961" type="qcurve"/>
      <point x="965" y="1104" type="line"/>
      <point x="1006" y="1063" type="line"/>
      <point x="860" y="920" type="line"/>
      <point x="940" y="812"/>
      <point x="940" y="686" type="qcurve" smooth="yes"/>
      <point x="940" y="558"/>
      <point x="856" y="453" type="qcurve"/>
      <point x="1006" y="307" type="line"/>
      <point x="967" y="268" type="line"/>
      <point x="817" y="414" type="line"/>
      <point x="712" y="319"/>
      <point x="575" y="319" type="qcurve" smooth="yes"/>
      <point x="442" y="319"/>
      <point x="338" y="410" type="qcurve"/>
      <point x="195" y="268" type="line"/>
      <point x="156" y="307" type="line"/>
      <point x="301" y="449" type="line"/>
      <point x="215" y="552"/>
      <point x="215" y="686" type="qcurve" smooth="yes"/>
      <point x="215" y="818"/>
      <point x="297" y="924" type="qcurve"/>
      <point x="156" y="1063" type="line"/>
      <point x="199" y="1104" type="line"/>
    </contour>
    <contour>
      <point x="575" y="375" type="qcurve" smooth="yes"/>
      <point x="698" y="375"/>
      <point x="877" y="561"/>
      <point x="877" y="688" type="qcurve" smooth="yes"/>
      <point x="877" y="818"/>
      <point x="699" y="999"/>
      <point x="575" y="999" type="qcurve" smooth="yes"/>
      <point x="454" y="999"/>
      <point x="279" y="815"/>
      <point x="279" y="684" type="qcurve" smooth="yes"/>
      <point x="279" y="557"/>
      <point x="453" y="375"/>
    </contour>
  </outline>
</glyph>
<glyph name="yen" format="2">
  <advance width="1298"/>
  <unicode hex="00A5"/>
  <outline>
    <contour>
      <point x="788" y="713" type="line"/>
      <point x="965" y="713" type="line"/>
      <point x="952" y="655" type="line"/>
      <point x="741" y="655" type="line"/>
      <point x="659" y="557" type="line"/>
      <point x="649" y="506" type="line"/>
      <point x="920" y="506" type="line"/>
      <point x="909" y="449" type="line"/>
      <point x="637" y="449" type="line"/>
      <point x="541" y="0" type="line"/>
      <point x="469" y="0" type="line"/>
      <point x="565" y="449" type="line"/>
      <point x="295" y="449" type="line"/>
      <point x="307" y="506" type="line"/>
      <point x="578" y="506" type="line"/>
      <point x="590" y="561" type="line"/>
      <point x="551" y="655" type="line"/>
      <point x="340" y="655" type="line"/>
      <point x="352" y="713" type="line"/>
      <point x="530" y="713" type="line"/>
      <point x="229" y="1454" type="line"/>
      <point x="309" y="1454" type="line"/>
      <point x="639" y="629" type="line"/>
      <point x="1323" y="1454" type="line"/>
      <point x="1403" y="1454" type="line"/>
    </contour>
  </outline>
</glyph>
<glyph name="brokenbar" format="2">
  <advance width="528"/>
  <unicode hex="00A6"/>
  <outline>
    <contour>
      <point x="307" y="1587" type="line"/>
      <point x="307" y="741" type="line"/>
      <point x="242" y="741" type="line"/>
      <point x="242" y="1587" type="line"/>
    </contour>
    <contour>
      <point x="307" y="580" type="line"/>
      <point x="307" y="-266" type="line"/>
      <point x="242" y="-266" type="line"/>
      <point x="242" y="580" type="line"/>
    </contour>
  </outline>
</glyph>
<glyph name="section" format="2">
  <advance width="970"/>
  <unicode hex="00A7"/>
  <outline>
    <contour>
      <point x="791" y="227" type="qcurve" smooth="yes"/>
      <point x="791" y="150"/>
      <point x="732" y="15"/>
      <point x="637" y="-79"/>
      <point x="517" y="-148"/>
      <point x="394" y="-180"/>
      <point x="336" y="-180" type="qcurve" smooth="yes"/>
      <point x="130" y="-180"/>
      <point x="2" y="-6" type="qcurve"/>
      <point x="59" y="37" type="line"/>
      <point x="120" y="-40"/>
      <point x="259" y="-113"/>
      <point x="350" y="-113" type="qcurve" smooth="yes"/>
      <point x="412" y="-113"/>
      <point x="540" y="-68"/>
      <point x="648" y="12"/>
      <point x="717" y="136"/>
      <point x="717" y="207" type="qcurve" smooth="yes"/>
      <point x="717" y="259"/>
      <point x="675" y="330"/>
      <point x="597" y="365"/>
      <point x="520" y="380"/>
      <point x="467" y="383" type="qcurve" smooth="yes"/>
      <point x="328" y="388"/>
      <point x="158" y="516"/>
      <point x="158" y="639" type="qcurve" smooth="yes"/>
      <point x="158" y="708"/>
      <point x="222" y="845"/>
      <point x="266" y="887" type="qcurve"/>
      <point x="234" y="910"/>
      <point x="199" y="1007"/>
      <point x="199" y="1067" type="qcurve" smooth="yes"/>
      <point x="199" y="1157"/>
      <point x="284" y="1311"/>
      <point x="416" y="1409"/>
      <point x="570" y="1464"/>
      <point x="643" y="1464" type="qcurve" smooth="yes"/>
      <point x="770" y="1464"/>
      <point x="907" y="1379"/>
      <point x="942" y="1298" type="qcurve"/>
      <point x="879" y="1272" type="line"/>
      <point x="859" y="1341"/>
      <point x="720" y="1399"/>
      <point x="631" y="1399" type="qcurve" smooth="yes"/>
      <point x="548" y="1399"/>
      <point x="385" y="1324"/>
      <point x="270" y="1172"/>
      <point x="270" y="1077" type="qcurve" smooth="yes"/>
      <point x="270" y="883"/>
      <point x="526" y="883" type="qcurve" smooth="yes"/>
      <point x="589" y="883"/>
      <point x="700" y="855"/>
      <point x="791" y="797"/>
      <point x="844" y="698"/>
      <point x="844" y="633" type="qcurve" smooth="yes"/>
      <point x="844" y="562"/>
      <point x="777" y="422"/>
      <point x="727" y="379" type="qcurve"/>
      <point x="791" y="336"/>
    </contour>
    <contour>
      <point x="666" y="403" type="qcurve"/>
      <point x="713" y="439"/>
      <point x="776" y="561"/>
      <point x="776" y="621" type="qcurve" smooth="yes"/>
      <point x="776" y="675"/>
      <point x="729" y="755"/>
      <point x="651" y="798"/>
      <point x="562" y="819"/>
      <point x="514" y="819" type="qcurve" smooth="yes"/>
      <point x="399" y="819"/>
      <point x="326" y="856" type="qcurve"/>
      <point x="283" y="820"/>
      <point x="225" y="703"/>
      <point x="225" y="639" type="qcurve" smooth="yes"/>
      <point x="225" y="570"/>
      <point x="290" y="484"/>
      <point x="398" y="450"/>
      <point x="510" y="434"/>
      <point x="634" y="418"/>
    </contour>
  </outline>
</glyph>
<glyph name="dieresis" format="2">
  <advance width="516"/>
  <unicode hex="00A8"/>
  <anchor x="463" y="1493" name="Anchor-13"/>
  <outline>
    <contour>
      <point x="272" y="1325" type="line"/>
      <point x="307" y="1493" type="line"/>
      <point x="371" y="1493" type="line"/>
      <point x="336" y="1325" type="line"/>
    </contour>
    <contour>
      <point x="518" y="1325" type="line"/>
      <point x="553" y="1493" type="line"/>
      <point x="616" y="1493" type="line"/>
      <point x="582" y="1325" type="line"/>
    </contour>
  </outline>
</glyph>
<glyph name="copyright" format="2">
  <advance width="1718"/>
  <unicode hex="00A9"/>
  <outline>
    <contour>
      <point x="137" y="727" type="qcurve" smooth="yes"/>
      <point x="137" y="852"/>
      <point x="209" y="1079"/>
      <point x="344" y="1259"/>
      <point x="526" y="1392"/>
      <point x="755" y="1464"/>
      <point x="881" y="1464" type="qcurve" smooth="yes"/>
      <point x="1091" y="1464"/>
      <point x="1432" y="1273"/>
      <point x="1626" y="935"/>
      <point x="1626" y="727" type="qcurve" smooth="yes"/>
      <point x="1626" y="518"/>
      <point x="1432" y="178"/>
      <point x="1091" y="-14"/>
      <point x="881" y="-14" type="qcurve" smooth="yes"/>
      <point x="724" y="-14"/>
      <point x="447" y="99"/>
      <point x="250" y="295"/>
      <point x="137" y="570"/>
    </contour>
    <contour>
      <point x="1573" y="721" type="qcurve" smooth="yes"/>
      <point x="1573" y="919"/>
      <point x="1395" y="1236"/>
      <point x="1079" y="1415"/>
      <point x="883" y="1415" type="qcurve" smooth="yes"/>
      <point x="736" y="1415"/>
      <point x="477" y="1310"/>
      <point x="294" y="1128"/>
      <point x="188" y="872"/>
      <point x="188" y="725" type="qcurve" smooth="yes"/>
      <point x="188" y="579"/>
      <point x="293" y="323"/>
      <point x="476" y="140"/>
      <point x="735" y="35"/>
      <point x="883" y="35" type="qcurve" smooth="yes"/>
      <point x="1028" y="35"/>
      <point x="1282" y="136"/>
      <point x="1466" y="313"/>
      <point x="1573" y="571"/>
    </contour>
    <contour>
      <point x="438" y="727" type="qcurve" smooth="yes"/>
      <point x="438" y="795"/>
      <point x="471" y="928"/>
      <point x="542" y="1051"/>
      <point x="644" y="1146"/>
      <point x="793" y="1202"/>
      <point x="881" y="1202" type="qcurve" smooth="yes"/>
      <point x="1006" y="1202"/>
      <point x="1201" y="1093"/>
      <point x="1241" y="991" type="qcurve"/>
      <point x="1176" y="969" type="line"/>
      <point x="1154" y="1019"/>
      <point x="1080" y="1090"/>
      <point x="993" y="1123"/>
      <point x="918" y="1137"/>
      <point x="881" y="1137" type="qcurve" smooth="yes"/>
      <point x="789" y="1137"/>
      <point x="642" y="1063"/>
      <point x="555" y="942"/>
      <point x="510" y="801"/>
      <point x="510" y="727" type="qcurve" smooth="yes"/>
      <point x="510" y="634"/>
      <point x="581" y="477"/>
      <point x="692" y="377"/>
      <point x="823" y="322"/>
      <point x="887" y="322" type="qcurve" smooth="yes"/>
      <point x="978" y="322"/>
      <point x="1159" y="420"/>
      <point x="1194" y="500" type="qcurve"/>
      <point x="1260" y="481" type="line"/>
      <point x="1250" y="449"/>
      <point x="1189" y="375"/>
      <point x="1097" y="305"/>
      <point x="965" y="258"/>
      <point x="895" y="258" type="qcurve" smooth="yes"/>
      <point x="812" y="258"/>
      <point x="650" y="323"/>
      <point x="519" y="439"/>
      <point x="438" y="620"/>
    </contour>
  </outline>
</glyph>
<glyph name="ordfeminine" format="2">
  <advance width="833"/>
  <unicode hex="00AA"/>
  <anchor x="0" y="0" name="Anchor-11"/>
  <anchor x="0" y="0" name="Anchor-10"/>
  <anchor x="403" y="1063" name="Anchor-9"/>
  <anchor x="0" y="0" name="Anchor-8"/>
  <anchor x="799" y="23" name="Anchor-7"/>
  <outline>
    <contour>
      <point x="160" y="899" type="qcurve" smooth="yes"/>
      <point x="160" y="1008"/>
      <point x="357" y="1149"/>
      <point x="500" y="1149" type="qcurve" smooth="yes"/>
      <point x="626" y="1149"/>
      <point x="707" y="1112" type="qcurve"/>
      <point x="721" y="1180" type="line" smooth="yes"/>
      <point x="727" y="1210"/>
      <point x="727" y="1235" type="qcurve" smooth="yes"/>
      <point x="727" y="1307"/>
      <point x="639" y="1391"/>
      <point x="561" y="1391" type="qcurve" smooth="yes"/>
      <point x="458" y="1391"/>
      <point x="317" y="1307" type="qcurve"/>
      <point x="299" y="1358" type="line"/>
      <point x="454" y="1452"/>
      <point x="578" y="1452" type="qcurve" smooth="yes"/>
      <point x="687" y="1452"/>
      <point x="805" y="1346"/>
      <point x="805" y="1249" type="qcurve" smooth="yes"/>
      <point x="805" y="1207"/>
      <point x="797" y="1171" type="qcurve" smooth="yes"/>
      <point x="727" y="838" type="line" smooth="yes"/>
      <point x="725" y="834"/>
      <point x="725" y="823" type="qcurve" smooth="yes"/>
      <point x="725" y="804"/>
      <point x="750" y="801" type="qcurve"/>
      <point x="733" y="729" type="line"/>
      <point x="671" y="726"/>
      <point x="668" y="764" type="qcurve"/>
      <point x="649" y="770"/>
      <point x="649" y="788" type="qcurve" smooth="yes"/>
      <point x="649" y="790"/>
      <point x="659" y="850" type="qcurve"/>
      <point x="598" y="786"/>
      <point x="435" y="717"/>
      <point x="348" y="717" type="qcurve" smooth="yes"/>
      <point x="265" y="717"/>
      <point x="160" y="821"/>
    </contour>
    <contour>
      <point x="670" y="938" type="qcurve" smooth="yes"/>
      <point x="694" y="1057" type="line"/>
      <point x="621" y="1094"/>
      <point x="500" y="1094" type="qcurve" smooth="yes"/>
      <point x="386" y="1094"/>
      <point x="238" y="995"/>
      <point x="238" y="913" type="qcurve" smooth="yes"/>
      <point x="238" y="856"/>
      <point x="316" y="780"/>
      <point x="379" y="780" type="qcurve" smooth="yes"/>
      <point x="440" y="780"/>
      <point x="567" y="821"/>
      <point x="661" y="896"/>
    </contour>
  </outline>
</glyph>
<glyph name="guillemotleft" format="2">
  <advance width="1050"/>
  <unicode hex="00AB"/>
  <outline>
    <contour>
      <point x="74" y="553" type="line"/>
      <point x="616" y="905" type="line"/>
      <point x="602" y="838" type="line"/>
      <point x="129" y="530" type="line"/>
      <point x="471" y="223" type="line"/>
      <point x="457" y="156" type="line"/>
      <point x="63" y="506" type="line"/>
    </contour>
    <contour>
      <point x="436" y="553" type="line"/>
      <point x="981" y="905" type="line"/>
      <point x="965" y="838" type="line"/>
      <point x="492" y="530" type="line"/>
      <point x="834" y="223" type="line"/>
      <point x="821" y="156" type="line"/>
      <point x="428" y="506" type="line"/>
    </contour>
  </outline>
</glyph>
<glyph name="logicalnot" format="2">
  <advance width="1118"/>
  <unicode hex="00AC"/>
  <outline>
    <contour>
      <point x="995" y="709" type="line"/>
      <point x="903" y="279" type="line"/>
      <point x="840" y="279" type="line"/>
      <point x="918" y="641" type="line"/>
      <point x="174" y="641" type="line"/>
      <point x="188" y="709" type="line"/>
    </contour>
  </outline>
</glyph>
<glyph name="sfthyphen" format="2">
  <advance width="1079"/>
  <unicode hex="00AD"/>
  <outline>
    <contour>
      <point x="117" y="522" type="line"/>
      <point x="129" y="590" type="line"/>
      <point x="938" y="590" type="line"/>
      <point x="924" y="522" type="line"/>
    </contour>
  </outline>
</glyph>
<glyph name="registered" format="2">
  <advance width="1718"/>
  <unicode hex="00AE"/>
  <outline>
    <contour>
      <point x="137" y="727" type="qcurve" smooth="yes"/>
      <point x="137" y="852"/>
      <point x="209" y="1079"/>
      <point x="344" y="1259"/>
      <point x="526" y="1392"/>
      <point x="755" y="1464"/>
      <point x="881" y="1464" type="qcurve" smooth="yes"/>
      <point x="1091" y="1464"/>
      <point x="1432" y="1273"/>
      <point x="1626" y="935"/>
      <point x="1626" y="727" type="qcurve" smooth="yes"/>
      <point x="1626" y="518"/>
      <point x="1432" y="178"/>
      <point x="1091" y="-14"/>
      <point x="881" y="-14" type="qcurve" smooth="yes"/>
      <point x="724" y="-14"/>
      <point x="447" y="99"/>
      <point x="250" y="295"/>
      <point x="137" y="570"/>
    </contour>
    <contour>
      <point x="1573" y="727" type="qcurve" smooth="yes"/>
      <point x="1573" y="872"/>
      <point x="1468" y="1128"/>
      <point x="1286" y="1310"/>
      <point x="1028" y="1415"/>
      <point x="881" y="1415" type="qcurve" smooth="yes"/>
      <point x="685" y="1415"/>
      <point x="369" y="1236"/>
      <point x="190" y="921"/>
      <point x="190" y="727" type="qcurve" smooth="yes"/>
      <point x="190" y="580"/>
      <point x="294" y="323"/>
      <point x="477" y="140"/>
      <point x="734" y="35"/>
      <point x="881" y="35" type="qcurve" smooth="yes"/>
      <point x="1076" y="35"/>
      <point x="1390" y="206"/>
      <point x="1573" y="523"/>
    </contour>
    <contour>
      <point x="580" y="1192" type="line"/>
      <point x="967" y="1192" type="line" smooth="yes"/>
      <point x="1081" y="1192"/>
      <point x="1235" y="1015"/>
      <point x="1235" y="903" type="qcurve" smooth="yes"/>
      <point x="1235" y="794"/>
      <point x="1105" y="631"/>
      <point x="1004" y="621" type="qcurve"/>
      <point x="1239" y="252" type="line"/>
      <point x="1169" y="252" type="line"/>
      <point x="938" y="616" type="line"/>
      <point x="641" y="616" type="line"/>
      <point x="641" y="252" type="line"/>
      <point x="580" y="252" type="line"/>
    </contour>
    <contour>
      <point x="973" y="672" type="line" smooth="yes"/>
      <point x="1069" y="672"/>
      <point x="1176" y="804"/>
      <point x="1176" y="903" type="qcurve" smooth="yes"/>
      <point x="1176" y="999"/>
      <point x="1056" y="1133"/>
      <point x="965" y="1133" type="qcurve" smooth="yes"/>
      <point x="641" y="1133" type="line"/>
      <point x="641" y="672" type="line"/>
    </contour>
  </outline>
</glyph>
<glyph name="macron" format="2">
  <advance width="755"/>
  <unicode hex="00AF"/>
  <anchor x="571" y="1448" name="Anchor-13"/>
  <outline>
    <contour>
      <point x="285" y="1391" type="line"/>
      <point x="297" y="1448" type="line"/>
      <point x="848" y="1448" type="line"/>
      <point x="836" y="1391" type="line"/>
    </contour>
  </outline>
</glyph>
<glyph name="degree" format="2">
  <advance width="509"/>
  <unicode hex="00B0"/>
  <outline>
    <contour>
      <point x="254" y="1300" type="qcurve" smooth="yes"/>
      <point x="254" y="1369"/>
      <point x="362" y="1483"/>
      <point x="434" y="1483" type="qcurve" smooth="yes"/>
      <point x="485" y="1483"/>
      <point x="549" y="1413"/>
      <point x="549" y="1360" type="qcurve" smooth="yes"/>
      <point x="549" y="1290"/>
      <point x="440" y="1184"/>
      <point x="369" y="1184" type="qcurve" smooth="yes"/>
      <point x="318" y="1184"/>
      <point x="254" y="1249"/>
    </contour>
    <contour>
      <point x="498" y="1352" type="qcurve" smooth="yes"/>
      <point x="498" y="1388"/>
      <point x="457" y="1425"/>
      <point x="422" y="1425" type="qcurve" smooth="yes"/>
      <point x="378" y="1425"/>
      <point x="311" y="1360"/>
      <point x="311" y="1315" type="qcurve" smooth="yes"/>
      <point x="311" y="1280"/>
      <point x="348" y="1235"/>
      <point x="381" y="1235" type="qcurve" smooth="yes"/>
      <point x="421" y="1235"/>
      <point x="498" y="1307"/>
    </contour>
  </outline>
</glyph>
<glyph name="plusminus" format="2">
  <advance width="989"/>
  <unicode hex="00B1"/>
  <outline>
    <contour>
      <point x="780" y="764" type="line"/>
      <point x="780" y="700" type="line"/>
      <point x="500" y="700" type="line"/>
      <point x="500" y="399" type="line"/>
      <point x="432" y="399" type="line"/>
      <point x="432" y="700" type="line"/>
      <point x="152" y="700" type="line"/>
      <point x="152" y="764" type="line"/>
      <point x="432" y="764" type="line"/>
      <point x="432" y="1065" type="line"/>
      <point x="500" y="1065" type="line"/>
      <point x="500" y="764" type="line"/>
    </contour>
    <contour>
      <point x="152" y="160" type="line"/>
      <point x="152" y="223" type="line"/>
      <point x="780" y="223" type="line"/>
      <point x="780" y="160" type="line"/>
    </contour>
  </outline>
</glyph>
<glyph name="twosuperior" format="2">
  <advance width="737"/>
  <unicode hex="00B2"/>
  <outline>
    <contour>
      <point x="131" y="856" type="line"/>
      <point x="163" y="1003"/>
      <point x="320" y="1170"/>
      <point x="451" y="1217" type="qcurve" smooth="yes"/>
      <point x="470" y="1224"/>
      <point x="553" y="1252"/>
      <point x="599" y="1269"/>
      <point x="670" y="1300"/>
      <point x="711" y="1332"/>
      <point x="753" y="1375"/>
      <point x="772" y="1431"/>
      <point x="772" y="1464" type="qcurve" smooth="yes"/>
      <point x="772" y="1528"/>
      <point x="688" y="1608"/>
      <point x="600" y="1608" type="qcurve" smooth="yes"/>
      <point x="442" y="1608"/>
      <point x="315" y="1481" type="qcurve"/>
      <point x="283" y="1524" type="line"/>
      <point x="297" y="1538"/>
      <point x="333" y="1567"/>
      <point x="421" y="1625"/>
      <point x="542" y="1661"/>
      <point x="608" y="1661" type="qcurve" smooth="yes"/>
      <point x="719" y="1661"/>
      <point x="829" y="1557"/>
      <point x="829" y="1475" type="qcurve" smooth="yes"/>
      <point x="829" y="1445"/>
      <point x="815" y="1392"/>
      <point x="797" y="1350"/>
      <point x="760" y="1310"/>
      <point x="730" y="1283"/>
      <point x="676" y="1252"/>
      <point x="643" y="1235"/>
      <point x="577" y="1210"/>
      <point x="547" y="1199"/>
      <point x="512" y="1188" type="qcurve" smooth="yes"/>
      <point x="500" y="1184"/>
      <point x="494" y="1182" type="qcurve" smooth="yes"/>
      <point x="260" y="1104"/>
      <point x="221" y="909" type="qcurve"/>
      <point x="715" y="909" type="line"/>
      <point x="705" y="856" type="line"/>
    </contour>
  </outline>
</glyph>
<glyph name="threesuperior" format="2">
  <advance width="749"/>
  <unicode hex="00B3"/>
  <outline>
    <contour>
      <point x="166" y="1038" type="qcurve"/>
      <point x="209" y="1063" type="line"/>
      <point x="209" y="987"/>
      <point x="326" y="897"/>
      <point x="430" y="897" type="qcurve" smooth="yes"/>
      <point x="542" y="897"/>
      <point x="709" y="1009"/>
      <point x="709" y="1090" type="qcurve" smooth="yes"/>
      <point x="709" y="1158"/>
      <point x="571" y="1237"/>
      <point x="453" y="1237" type="qcurve" smooth="yes"/>
      <point x="410" y="1237" type="line"/>
      <point x="420" y="1286" type="line"/>
      <point x="463" y="1286" type="line" smooth="yes"/>
      <point x="605" y="1286"/>
      <point x="762" y="1378"/>
      <point x="762" y="1464" type="qcurve" smooth="yes"/>
      <point x="762" y="1529"/>
      <point x="653" y="1610"/>
      <point x="567" y="1610" type="qcurve" smooth="yes"/>
      <point x="486" y="1610"/>
      <point x="350" y="1544"/>
      <point x="313" y="1489" type="qcurve"/>
      <point x="283" y="1528" type="line"/>
      <point x="325" y="1589"/>
      <point x="488" y="1661"/>
      <point x="578" y="1661" type="qcurve" smooth="yes"/>
      <point x="687" y="1661"/>
      <point x="823" y="1555"/>
      <point x="823" y="1473" type="qcurve" smooth="yes"/>
      <point x="823" y="1393"/>
      <point x="713" y="1286"/>
      <point x="606" y="1264" type="qcurve"/>
      <point x="678" y="1251"/>
      <point x="764" y="1156"/>
      <point x="764" y="1094" type="qcurve" smooth="yes"/>
      <point x="764" y="987"/>
      <point x="557" y="846"/>
      <point x="418" y="846" type="qcurve" smooth="yes"/>
      <point x="300" y="846"/>
      <point x="166" y="952"/>
    </contour>
  </outline>
</glyph>
<glyph name="acute" format="2">
  <advance width="417"/>
  <unicode hex="00B4"/>
  <anchor x="285" y="1495" name="Anchor-13"/>
  <outline>
    <contour>
      <point x="309" y="1307" type="line"/>
      <point x="266" y="1333" type="line"/>
      <point x="422" y="1495" type="line"/>
      <point x="512" y="1495" type="line"/>
    </contour>
  </outline>
</glyph>
<glyph name="mu" format="2">
  <advance width="1198"/>
  <unicode hex="00B5"/>
  <outline>
    <contour>
      <point x="274" y="1065" type="line"/>
      <point x="344" y="1065" type="line"/>
      <point x="217" y="467" type="line" smooth="yes"/>
      <point x="195" y="354"/>
      <point x="195" y="279" type="qcurve" smooth="yes"/>
      <point x="195" y="160"/>
      <point x="294" y="45"/>
      <point x="397" y="45" type="qcurve" smooth="yes"/>
      <point x="534" y="45"/>
      <point x="809" y="238"/>
      <point x="885" y="389" type="qcurve"/>
      <point x="1028" y="1065" type="line"/>
      <point x="1100" y="1065" type="line"/>
      <point x="897" y="111" type="line" smooth="yes"/>
      <point x="895" y="105"/>
      <point x="895" y="94" type="qcurve" smooth="yes"/>
      <point x="895" y="66"/>
      <point x="924" y="66" type="qcurve"/>
      <point x="907" y="0" type="line"/>
      <point x="853" y="0"/>
      <point x="850" y="47" type="qcurve"/>
      <point x="824" y="55"/>
      <point x="827" y="82" type="qcurve" smooth="yes"/>
      <point x="839" y="137"/>
      <point x="864" y="262" type="qcurve"/>
      <point x="774" y="135"/>
      <point x="511" y="-20"/>
      <point x="381" y="-20" type="qcurve" smooth="yes"/>
      <point x="179" y="-20"/>
      <point x="154" y="180" type="qcurve"/>
      <point x="25" y="-434" type="line"/>
      <point x="-45" y="-434" type="line"/>
    </contour>
  </outline>
</glyph>
<glyph name="paragraph" format="2">
  <advance width="1130"/>
  <unicode hex="00B6"/>
  <outline>
    <contour>
      <point x="795" y="1454" type="qcurve" smooth="yes"/>
      <point x="1210" y="1454" type="line"/>
      <point x="1196" y="1393" type="line"/>
      <point x="1061" y="1393" type="line"/>
      <point x="729" y="-164" type="line"/>
      <point x="666" y="-164" type="line"/>
      <point x="807" y="498" type="line"/>
      <point x="641" y="498" type="line"/>
      <point x="500" y="-164" type="line"/>
      <point x="434" y="-164" type="line"/>
      <point x="575" y="498" type="line"/>
      <point x="364" y="502"/>
      <point x="131" y="704"/>
      <point x="131" y="879" type="qcurve" smooth="yes"/>
      <point x="131" y="1138"/>
      <point x="494" y="1454"/>
    </contour>
    <contour>
      <point x="588" y="559" type="qcurve"/>
      <point x="766" y="1393" type="line"/>
      <point x="499" y="1393"/>
      <point x="197" y="1118"/>
      <point x="197" y="893" type="qcurve" smooth="yes"/>
      <point x="197" y="811"/>
      <point x="257" y="684"/>
      <point x="366" y="606"/>
      <point x="504" y="563"/>
    </contour>
    <contour>
      <point x="997" y="1393" type="line"/>
      <point x="831" y="1393" type="line"/>
      <point x="653" y="559" type="line"/>
      <point x="819" y="559" type="line"/>
    </contour>
  </outline>
</glyph>
<glyph name="cedilla" format="2">
  <advance width="585"/>
  <unicode hex="00B8"/>
  <outline>
    <contour>
      <point x="115" y="-346" type="qcurve" smooth="yes"/>
      <point x="9" y="-346"/>
      <point x="-74" y="-293" type="qcurve"/>
      <point x="-41" y="-248" type="line"/>
      <point x="4" y="-272"/>
      <point x="70" y="-293"/>
      <point x="117" y="-293" type="qcurve" smooth="yes"/>
      <point x="191" y="-293"/>
      <point x="283" y="-214"/>
      <point x="283" y="-154" type="qcurve" smooth="yes"/>
      <point x="283" y="-75"/>
      <point x="182" y="0" type="qcurve"/>
      <point x="229" y="25" type="line"/>
      <point x="281" y="-17"/>
      <point x="334" y="-100"/>
      <point x="334" y="-152" type="qcurve" smooth="yes"/>
      <point x="334" y="-246"/>
      <point x="213" y="-346"/>
    </contour>
  </outline>
</glyph>
<glyph name="onesuperior" format="2">
  <advance width="503"/>
  <unicode hex="00B9"/>
  <outline>
    <contour>
      <point x="526" y="909" type="line"/>
      <point x="514" y="854" type="line"/>
      <point x="150" y="854" type="line"/>
      <point x="162" y="909" type="line"/>
      <point x="322" y="909" type="line"/>
      <point x="467" y="1593" type="line"/>
      <point x="437" y="1563"/>
      <point x="302" y="1495"/>
      <point x="258" y="1495" type="qcurve"/>
      <point x="270" y="1550" type="line"/>
      <point x="307" y="1550"/>
      <point x="410" y="1604"/>
      <point x="477" y="1656"/>
      <point x="479" y="1661" type="qcurve"/>
      <point x="537" y="1661" type="line"/>
      <point x="375" y="909" type="line"/>
    </contour>
  </outline>
</glyph>
<glyph name="ordmasculine" format="2">
  <advance width="882"/>
  <unicode hex="00BA"/>
  <anchor x="0" y="0" name="Anchor-11"/>
  <anchor x="0" y="0" name="Anchor-10"/>
  <anchor x="467" y="1063" name="Anchor-9"/>
  <anchor x="0" y="0" name="Anchor-8"/>
  <anchor x="465" y="0" name="Anchor-7"/>
  <outline>
    <contour>
      <point x="184" y="1016" type="qcurve" smooth="yes"/>
      <point x="184" y="1100"/>
      <point x="256" y="1261"/>
      <point x="374" y="1380"/>
      <point x="531" y="1452"/>
      <point x="612" y="1452" type="qcurve" smooth="yes"/>
      <point x="737" y="1452"/>
      <point x="891" y="1279"/>
      <point x="891" y="1151" type="qcurve" smooth="yes"/>
      <point x="891" y="1041"/>
      <point x="770" y="839"/>
      <point x="568" y="717"/>
      <point x="457" y="717" type="qcurve" smooth="yes"/>
      <point x="333" y="717"/>
      <point x="184" y="890"/>
    </contour>
    <contour>
      <point x="825" y="1143" type="qcurve" smooth="yes"/>
      <point x="825" y="1250"/>
      <point x="699" y="1395"/>
      <point x="602" y="1395" type="qcurve" smooth="yes"/>
      <point x="516" y="1395"/>
      <point x="352" y="1294"/>
      <point x="248" y="1119"/>
      <point x="248" y="1022" type="qcurve" smooth="yes"/>
      <point x="248" y="916"/>
      <point x="372" y="772"/>
      <point x="469" y="772" type="qcurve" smooth="yes"/>
      <point x="603" y="772"/>
      <point x="825" y="998"/>
    </contour>
  </outline>
</glyph>
<glyph name="guillemotright" format="2">
  <advance width="1050"/>
  <unicode hex="00BB"/>
  <outline>
    <contour>
      <point x="578" y="506" type="line"/>
      <point x="35" y="156" type="line"/>
      <point x="49" y="223" type="line"/>
      <point x="522" y="530" type="line"/>
      <point x="180" y="838" type="line"/>
      <point x="195" y="905" type="line"/>
      <point x="586" y="553" type="line"/>
    </contour>
    <contour>
      <point x="940" y="506" type="line"/>
      <point x="399" y="156" type="line"/>
      <point x="412" y="223" type="line"/>
      <point x="885" y="530" type="line"/>
      <point x="543" y="838" type="line"/>
      <point x="557" y="905" type="line"/>
      <point x="950" y="553" type="line"/>
    </contour>
  </outline>
</glyph>
<glyph name="onequarter" format="2">
  <advance width="1501"/>
  <unicode hex="00BC"/>
  <outline>
    <contour>
      <point x="492" y="745" type="line"/>
      <point x="479" y="690" type="line"/>
      <point x="115" y="690" type="line"/>
      <point x="127" y="745" type="line"/>
      <point x="287" y="745" type="line"/>
      <point x="432" y="1430" type="line"/>
      <point x="402" y="1400"/>
      <point x="267" y="1331"/>
      <point x="223" y="1331" type="qcurve"/>
      <point x="236" y="1386" type="line"/>
      <point x="273" y="1386"/>
      <point x="376" y="1440"/>
      <point x="442" y="1492"/>
      <point x="444" y="1497" type="qcurve"/>
      <point x="502" y="1497" type="line"/>
      <point x="340" y="745" type="line"/>
    </contour>
    <contour>
      <point x="-51" y="33" type="line"/>
      <point x="608" y="707" type="line"/>
      <point x="1333" y="1458" type="line"/>
      <point x="1370" y="1423" type="line"/>
      <point x="639" y="674" type="line"/>
      <point x="-14" y="-4" type="line"/>
    </contour>
    <contour>
      <point x="1190" y="221" type="line"/>
      <point x="739" y="221" type="line"/>
      <point x="750" y="270" type="line"/>
      <point x="1327" y="795" type="line"/>
      <point x="1366" y="795" type="line"/>
      <point x="1255" y="274" type="line"/>
      <point x="1364" y="274" type="line"/>
      <point x="1354" y="221" type="line"/>
      <point x="1245" y="221" type="line"/>
      <point x="1196" y="0" type="line"/>
      <point x="1143" y="0" type="line"/>
    </contour>
    <contour>
      <point x="1202" y="274" type="line"/>
      <point x="1294" y="707" type="line"/>
      <point x="819" y="274" type="line"/>
    </contour>
  </outline>
</glyph>
<glyph name="onehalf" format="2">
  <advance width="1503"/>
  <unicode hex="00BD"/>
  <outline>
    <contour>
      <point x="492" y="745" type="line"/>
      <point x="479" y="690" type="line"/>
      <point x="115" y="690" type="line"/>
      <point x="127" y="745" type="line"/>
      <point x="287" y="745" type="line"/>
      <point x="432" y="1430" type="line"/>
      <point x="402" y="1400"/>
      <point x="267" y="1331"/>
      <point x="223" y="1331" type="qcurve"/>
      <point x="236" y="1386" type="line"/>
      <point x="273" y="1386"/>
      <point x="376" y="1440"/>
      <point x="442" y="1492"/>
      <point x="444" y="1497" type="qcurve"/>
      <point x="502" y="1497" type="line"/>
      <point x="340" y="745" type="line"/>
    </contour>
    <contour>
      <point x="-51" y="33" type="line"/>
      <point x="608" y="707" type="line"/>
      <point x="1333" y="1458" type="line"/>
      <point x="1370" y="1423" type="line"/>
      <point x="639" y="674" type="line"/>
      <point x="-14" y="-4" type="line"/>
    </contour>
    <contour>
      <point x="721" y="0" type="line"/>
      <point x="752" y="147"/>
      <point x="906" y="313"/>
      <point x="1036" y="360" type="qcurve" smooth="yes"/>
      <point x="1054" y="366"/>
      <point x="1140" y="395"/>
      <point x="1185" y="412"/>
      <point x="1257" y="444"/>
      <point x="1296" y="475"/>
      <point x="1339" y="519"/>
      <point x="1358" y="575"/>
      <point x="1358" y="608" type="qcurve" smooth="yes"/>
      <point x="1358" y="671"/>
      <point x="1272" y="752"/>
      <point x="1184" y="752" type="qcurve" smooth="yes"/>
      <point x="1095" y="752"/>
      <point x="948" y="672"/>
      <point x="903" y="625" type="qcurve"/>
      <point x="872" y="668" type="line"/>
      <point x="881" y="679"/>
      <point x="924" y="714"/>
      <point x="1006" y="768"/>
      <point x="1128" y="805"/>
      <point x="1192" y="805" type="qcurve" smooth="yes"/>
      <point x="1303" y="805"/>
      <point x="1415" y="700"/>
      <point x="1415" y="618" type="qcurve" smooth="yes"/>
      <point x="1415" y="580"/>
      <point x="1393" y="515"/>
      <point x="1364" y="467"/>
      <point x="1306" y="422"/>
      <point x="1264" y="395"/>
      <point x="1184" y="362"/>
      <point x="1143" y="347"/>
      <point x="1100" y="333" type="qcurve" smooth="yes"/>
      <point x="1095" y="331"/>
      <point x="1090" y="330"/>
      <point x="1082" y="327"/>
      <point x="1079" y="326" type="qcurve" smooth="yes"/>
      <point x="848" y="248"/>
      <point x="809" y="53" type="qcurve"/>
      <point x="1300" y="53" type="line"/>
      <point x="1288" y="0" type="line"/>
    </contour>
  </outline>
</glyph>
<glyph name="threequarters" format="2">
  <advance width="1746"/>
  <unicode hex="00BE"/>
  <outline>
    <contour>
      <point x="131" y="874" type="qcurve"/>
      <point x="174" y="899" type="line"/>
      <point x="174" y="830"/>
      <point x="293" y="733"/>
      <point x="395" y="733" type="qcurve" smooth="yes"/>
      <point x="507" y="733"/>
      <point x="674" y="845"/>
      <point x="674" y="926" type="qcurve" smooth="yes"/>
      <point x="674" y="994"/>
      <point x="536" y="1073"/>
      <point x="418" y="1073" type="qcurve" smooth="yes"/>
      <point x="375" y="1073" type="line"/>
      <point x="385" y="1122" type="line"/>
      <point x="428" y="1122" type="line" smooth="yes"/>
      <point x="570" y="1122"/>
      <point x="727" y="1213"/>
      <point x="727" y="1298" type="qcurve" smooth="yes"/>
      <point x="727" y="1364"/>
      <point x="618" y="1446"/>
      <point x="532" y="1446" type="qcurve" smooth="yes"/>
      <point x="452" y="1446"/>
      <point x="316" y="1380"/>
      <point x="279" y="1325" type="qcurve"/>
      <point x="248" y="1364" type="line"/>
      <point x="291" y="1424"/>
      <point x="453" y="1497"/>
      <point x="543" y="1497" type="qcurve" smooth="yes"/>
      <point x="652" y="1497"/>
      <point x="788" y="1390"/>
      <point x="788" y="1309" type="qcurve" smooth="yes"/>
      <point x="788" y="1229"/>
      <point x="678" y="1121"/>
      <point x="571" y="1098" type="qcurve"/>
      <point x="643" y="1086"/>
      <point x="729" y="993"/>
      <point x="729" y="930" type="qcurve" smooth="yes"/>
      <point x="729" y="823"/>
      <point x="522" y="682"/>
      <point x="383" y="682" type="qcurve" smooth="yes"/>
      <point x="285" y="682"/>
      <point x="131" y="782"/>
    </contour>
    <contour>
      <point x="195" y="33" type="line"/>
      <point x="854" y="707" type="line"/>
      <point x="1579" y="1458" type="line"/>
      <point x="1616" y="1423" type="line"/>
      <point x="885" y="674" type="line"/>
      <point x="231" y="-4" type="line"/>
    </contour>
    <contour>
      <point x="1436" y="221" type="line"/>
      <point x="985" y="221" type="line"/>
      <point x="995" y="270" type="line"/>
      <point x="1573" y="795" type="line"/>
      <point x="1612" y="795" type="line"/>
      <point x="1501" y="274" type="line"/>
      <point x="1610" y="274" type="line"/>
      <point x="1599" y="221" type="line"/>
      <point x="1491" y="221" type="line"/>
      <point x="1442" y="0" type="line"/>
      <point x="1389" y="0" type="line"/>
    </contour>
    <contour>
      <point x="1448" y="274" type="line"/>
      <point x="1540" y="707" type="line"/>
      <point x="1065" y="274" type="line"/>
    </contour>
  </outline>
</glyph>
<glyph name="questiondown" format="2">
  <advance width="915"/>
  <unicode hex="00BF"/>
  <outline>
    <contour>
      <point x="678" y="1036" type="line"/>
      <point x="639" y="850" type="line"/>
      <point x="575" y="850" type="line"/>
      <point x="614" y="1036" type="line"/>
    </contour>
    <contour>
      <point x="598" y="655" type="line"/>
      <point x="580" y="568"/>
      <point x="532" y="442"/>
      <point x="467" y="358"/>
      <point x="400" y="306"/>
      <point x="354" y="283" type="qcurve" smooth="yes"/>
      <point x="333" y="272"/>
      <point x="257" y="237"/>
      <point x="207" y="214"/>
      <point x="138" y="174"/>
      <point x="92" y="136"/>
      <point x="41" y="78"/>
      <point x="12" y="13"/>
      <point x="-8" y="-75"/>
      <point x="-8" y="-127" type="qcurve" smooth="yes"/>
      <point x="-8" y="-247"/>
      <point x="132" y="-373"/>
      <point x="238" y="-373" type="qcurve" smooth="yes"/>
      <point x="350" y="-373"/>
      <point x="568" y="-247"/>
      <point x="639" y="-143" type="qcurve"/>
      <point x="686" y="-172" type="line"/>
      <point x="607" y="-296"/>
      <point x="352" y="-436"/>
      <point x="225" y="-436" type="qcurve" smooth="yes"/>
      <point x="96" y="-436"/>
      <point x="-76" y="-276"/>
      <point x="-76" y="-133" type="qcurve" smooth="yes"/>
      <point x="-76" y="-88"/>
      <point x="-63" y="-9"/>
      <point x="-44" y="53"/>
      <point x="-10" y="111"/>
      <point x="23" y="153"/>
      <point x="74" y="196"/>
      <point x="115" y="224"/>
      <point x="177" y="259"/>
      <point x="220" y="280"/>
      <point x="289" y="314"/>
      <point x="309" y="324" type="qcurve" smooth="yes"/>
      <point x="352" y="346"/>
      <point x="408" y="385"/>
      <point x="471" y="458"/>
      <point x="517" y="573"/>
      <point x="535" y="655" type="qcurve"/>
    </contour>
  </outline>
</glyph>
<glyph name="Acircumflex" format="2">
  <advance width="1327"/>
  <unicode hex="00C2"/>
  <anchor x="0" y="0" name="Anchor-11"/>
  <anchor x="0" y="0" name="Anchor-10"/>
  <anchor x="926" y="1837" name="Anchor-9"/>
  <anchor x="1163" y="0" name="Anchor-8"/>
  <anchor x="551" y="0" name="Anchor-7"/>
  <outline>
    <contour>
      <point x="694" y="1679" type="line"/>
      <point x="911" y="1837" type="line"/>
      <point x="965" y="1837" type="line"/>
      <point x="1116" y="1679" type="line"/>
      <point x="1065" y="1649" type="line"/>
      <point x="926" y="1778" type="line"/>
      <point x="733" y="1649" type="line"/>
    </contour>
    <contour>
      <point x="819" y="1454" type="line"/>
      <point x="881" y="1454" type="line"/>
      <point x="1163" y="0" type="line"/>
      <point x="1087" y="0" type="line"/>
      <point x="991" y="502" type="line"/>
      <point x="303" y="502" type="line"/>
      <point x="-6" y="0" type="line"/>
      <point x="-84" y="0" type="line"/>
    </contour>
    <contour>
      <point x="983" y="563" type="line"/>
      <point x="831" y="1364" type="line"/>
      <point x="336" y="563" type="line"/>
    </contour>
  </outline>
</glyph>
<glyph name="Atilde" format="2">
  <advance width="1327"/>
  <unicode hex="00C3"/>
  <anchor x="0" y="0" name="Anchor-11"/>
  <anchor x="0" y="0" name="Anchor-10"/>
  <anchor x="944" y="1884" name="Anchor-9"/>
  <anchor x="1163" y="0" name="Anchor-8"/>
  <anchor x="551" y="0" name="Anchor-7"/>
  <outline>
    <contour>
      <point x="799" y="1810" type="qcurve" smooth="yes"/>
      <point x="770" y="1810"/>
      <point x="722" y="1784"/>
      <point x="694" y="1745"/>
      <point x="681" y="1721"/>
      <point x="678" y="1712" type="qcurve"/>
      <point x="627" y="1712" type="line"/>
      <point x="628" y="1722"/>
      <point x="649" y="1766"/>
      <point x="690" y="1824"/>
      <point x="766" y="1866"/>
      <point x="813" y="1866" type="qcurve" smooth="yes"/>
      <point x="856" y="1866"/>
      <point x="928" y="1826"/>
      <point x="999" y="1786"/>
      <point x="1040" y="1786" type="qcurve" smooth="yes"/>
      <point x="1069" y="1786"/>
      <point x="1118" y="1805"/>
      <point x="1146" y="1831"/>
      <point x="1168" y="1862"/>
      <point x="1175" y="1879"/>
      <point x="1176" y="1884" type="qcurve"/>
      <point x="1227" y="1884" type="line"/>
      <point x="1225" y="1872"/>
      <point x="1203" y="1830"/>
      <point x="1159" y="1773"/>
      <point x="1077" y="1733"/>
      <point x="1026" y="1733" type="qcurve" smooth="yes"/>
      <point x="977" y="1733"/>
      <point x="897" y="1772"/>
      <point x="831" y="1810"/>
    </contour>
    <contour>
      <point x="819" y="1454" type="line"/>
      <point x="881" y="1454" type="line"/>
      <point x="1163" y="0" type="line"/>
      <point x="1087" y="0" type="line"/>
      <point x="991" y="502" type="line"/>
      <point x="303" y="502" type="line"/>
      <point x="-6" y="0" type="line"/>
      <point x="-84" y="0" type="line"/>
    </contour>
    <contour>
      <point x="983" y="563" type="line"/>
      <point x="831" y="1364" type="line"/>
      <point x="336" y="563" type="line"/>
    </contour>
  </outline>
</glyph>
<glyph name="Adieresis" format="2">
  <advance width="1327"/>
  <unicode hex="00C4"/>
  <anchor x="0" y="0" name="Anchor-11"/>
  <anchor x="0" y="0" name="Anchor-10"/>
  <anchor x="944" y="1882" name="Anchor-9"/>
  <anchor x="1163" y="0" name="Anchor-8"/>
  <anchor x="551" y="0" name="Anchor-7"/>
  <outline>
    <contour>
      <point x="754" y="1714" type="line"/>
      <point x="788" y="1882" type="line"/>
      <point x="852" y="1882" type="line"/>
      <point x="817" y="1714" type="line"/>
    </contour>
    <contour>
      <point x="999" y="1714" type="line"/>
      <point x="1034" y="1882" type="line"/>
      <point x="1098" y="1882" type="line"/>
      <point x="1063" y="1714" type="line"/>
    </contour>
    <contour>
      <point x="819" y="1454" type="line"/>
      <point x="881" y="1454" type="line"/>
      <point x="1163" y="0" type="line"/>
      <point x="1087" y="0" type="line"/>
      <point x="991" y="502" type="line"/>
      <point x="303" y="502" type="line"/>
      <point x="-6" y="0" type="line"/>
      <point x="-84" y="0" type="line"/>
    </contour>
    <contour>
      <point x="983" y="563" type="line"/>
      <point x="831" y="1364" type="line"/>
      <point x="336" y="563" type="line"/>
    </contour>
  </outline>
</glyph>
<glyph name="Aring" format="2">
  <advance width="1327"/>
  <unicode hex="00C5"/>
  <anchor x="0" y="0" name="Anchor-11"/>
  <anchor x="0" y="0" name="Anchor-10"/>
  <anchor x="944" y="1884" name="Anchor-9"/>
  <anchor x="1163" y="0" name="Anchor-8"/>
  <anchor x="551" y="0" name="Anchor-7"/>
  <outline>
    <contour>
      <point x="944" y="1884" type="qcurve" smooth="yes"/>
      <point x="988" y="1884"/>
      <point x="1040" y="1829"/>
      <point x="1040" y="1786" type="qcurve" smooth="yes"/>
      <point x="1040" y="1726"/>
      <point x="951" y="1640"/>
      <point x="891" y="1640" type="qcurve" smooth="yes"/>
      <point x="847" y="1640"/>
      <point x="793" y="1696"/>
      <point x="793" y="1739" type="qcurve" smooth="yes"/>
      <point x="793" y="1800"/>
      <point x="883" y="1884"/>
    </contour>
    <contour>
      <point x="838" y="1747" type="qcurve" smooth="yes"/>
      <point x="838" y="1717"/>
      <point x="872" y="1679"/>
      <point x="901" y="1679" type="qcurve" smooth="yes"/>
      <point x="935" y="1679"/>
      <point x="999" y="1739"/>
      <point x="999" y="1778" type="qcurve" smooth="yes"/>
      <point x="999" y="1809"/>
      <point x="963" y="1845"/>
      <point x="934" y="1845" type="qcurve" smooth="yes"/>
      <point x="896" y="1845"/>
      <point x="838" y="1789"/>
    </contour>
    <contour>
      <point x="819" y="1454" type="line"/>
      <point x="881" y="1454" type="line"/>
      <point x="1163" y="0" type="line"/>
      <point x="1087" y="0" type="line"/>
      <point x="991" y="502" type="line"/>
      <point x="303" y="502" type="line"/>
      <point x="-6" y="0" type="line"/>
      <point x="-84" y="0" type="line"/>
    </contour>
    <contour>
      <point x="983" y="563" type="line"/>
      <point x="831" y="1364" type="line"/>
      <point x="336" y="563" type="line"/>
    </contour>
  </outline>
</glyph>
<glyph name="AE" format="2">
  <advance width="1888"/>
  <unicode hex="00C6"/>
  <anchor x="0" y="0" name="Anchor-11"/>
  <anchor x="0" y="0" name="Anchor-10"/>
  <anchor x="1280" y="1448" name="Anchor-9"/>
  <anchor x="0" y="0" name="Anchor-8"/>
  <anchor x="0" y="0" name="Anchor-7"/>
  <outline>
    <contour>
      <point x="1042" y="1454" type="line"/>
      <point x="1954" y="1454" type="line"/>
      <point x="1939" y="1389" type="line"/>
      <point x="1116" y="1389" type="line"/>
      <point x="987" y="776" type="line"/>
      <point x="1704" y="776" type="line"/>
      <point x="1690" y="711" type="line"/>
      <point x="973" y="711" type="line"/>
      <point x="836" y="66" type="line"/>
      <point x="1675" y="66" type="line"/>
      <point x="1661" y="0" type="line"/>
      <point x="752" y="0" type="line"/>
      <point x="858" y="502" type="line"/>
      <point x="326" y="502" type="line"/>
      <point x="-88" y="0" type="line"/>
      <point x="-170" y="0" type="line"/>
    </contour>
    <contour>
      <point x="870" y="567" type="line"/>
      <point x="1036" y="1358" type="line"/>
      <point x="377" y="567" type="line"/>
    </contour>
  </outline>
</glyph>
<glyph name="Eacute" format="2">
  <advance width="1200"/>
  <unicode hex="00C9"/>
  <anchor x="0" y="0" name="Anchor-11"/>
  <anchor x="0" y="0" name="Anchor-10"/>
  <anchor x="825" y="1884" name="Anchor-9"/>
  <anchor x="977" y="0" name="Anchor-8"/>
  <anchor x="487" y="0" name="Anchor-7"/>
  <outline>
    <contour>
      <point x="850" y="1696" type="line"/>
      <point x="807" y="1722" type="line"/>
      <point x="963" y="1884" type="line"/>
      <point x="1053" y="1884" type="line"/>
    </contour>
    <contour>
      <point x="371" y="1454" type="line"/>
      <point x="1268" y="1454" type="line"/>
      <point x="1253" y="1389" type="line"/>
      <point x="428" y="1389" type="line"/>
      <point x="297" y="776" type="line"/>
      <point x="1020" y="776" type="line"/>
      <point x="1006" y="711" type="line"/>
      <point x="285" y="711" type="line"/>
      <point x="145" y="66" type="line"/>
      <point x="989" y="66" type="line"/>
      <point x="977" y="0" type="line"/>
      <point x="61" y="0" type="line"/>
    </contour>
  </outline>
</glyph>
<glyph name="Ecircumflex" format="2">
  <advance width="1200"/>
  <unicode hex="00CA"/>
  <anchor x="0" y="0" name="Anchor-11"/>
  <anchor x="0" y="0" name="Anchor-10"/>
  <anchor x="870" y="1837" name="Anchor-9"/>
  <anchor x="977" y="0" name="Anchor-8"/>
  <anchor x="487" y="0" name="Anchor-7"/>
  <outline>
    <contour>
      <point x="639" y="1679" type="line"/>
      <point x="856" y="1837" type="line"/>
      <point x="909" y="1837" type="line"/>
      <point x="1061" y="1679" type="line"/>
      <point x="1010" y="1649" type="line"/>
      <point x="870" y="1778" type="line"/>
      <point x="678" y="1649" type="line"/>
    </contour>
    <contour>
      <point x="371" y="1454" type="line"/>
      <point x="1268" y="1454" type="line"/>
      <point x="1253" y="1389" type="line"/>
      <point x="428" y="1389" type="line"/>
      <point x="297" y="776" type="line"/>
      <point x="1020" y="776" type="line"/>
      <point x="1006" y="711" type="line"/>
      <point x="285" y="711" type="line"/>
      <point x="145" y="66" type="line"/>
      <point x="989" y="66" type="line"/>
      <point x="977" y="0" type="line"/>
      <point x="61" y="0" type="line"/>
    </contour>
  </outline>
</glyph>
<glyph name="Edieresis" format="2">
  <advance width="1200"/>
  <unicode hex="00CB"/>
  <anchor x="0" y="0" name="Anchor-11"/>
  <anchor x="0" y="0" name="Anchor-10"/>
  <anchor x="889" y="1882" name="Anchor-9"/>
  <anchor x="977" y="0" name="Anchor-8"/>
  <anchor x="487" y="0" name="Anchor-7"/>
  <outline>
    <contour>
      <point x="698" y="1714" type="line"/>
      <point x="733" y="1882" type="line"/>
      <point x="797" y="1882" type="line"/>
      <point x="762" y="1714" type="line"/>
    </contour>
    <contour>
      <point x="944" y="1714" type="line"/>
      <point x="979" y="1882" type="line"/>
      <point x="1042" y="1882" type="line"/>
      <point x="1008" y="1714" type="line"/>
    </contour>
    <contour>
      <point x="371" y="1454" type="line"/>
      <point x="1268" y="1454" type="line"/>
      <point x="1253" y="1389" type="line"/>
      <point x="428" y="1389" type="line"/>
      <point x="297" y="776" type="line"/>
      <point x="1020" y="776" type="line"/>
      <point x="1006" y="711" type="line"/>
      <point x="285" y="711" type="line"/>
      <point x="145" y="66" type="line"/>
      <point x="989" y="66" type="line"/>
      <point x="977" y="0" type="line"/>
      <point x="61" y="0" type="line"/>
    </contour>
  </outline>
</glyph>
<glyph name="Igrave" format="2">
  <advance width="456"/>
  <unicode hex="00CC"/>
  <anchor x="0" y="0" name="Anchor-11"/>
  <anchor x="0" y="0" name="Anchor-10"/>
  <anchor x="375" y="1880" name="Anchor-9"/>
  <anchor x="133" y="0" name="Anchor-8"/>
  <anchor x="98" y="0" name="Anchor-7"/>
  <outline>
    <contour>
      <point x="266" y="1880" type="line"/>
      <point x="354" y="1880" type="line"/>
      <point x="444" y="1718" type="line"/>
      <point x="389" y="1692" type="line"/>
    </contour>
    <contour>
      <point x="371" y="1452" type="line"/>
      <point x="442" y="1452" type="line"/>
      <point x="133" y="0" type="line"/>
      <point x="61" y="0" type="line"/>
    </contour>
  </outline>
</glyph>
<glyph name="Iacute" format="2">
  <advance width="456"/>
  <unicode hex="00CD"/>
  <anchor x="0" y="0" name="Anchor-11"/>
  <anchor x="0" y="0" name="Anchor-10"/>
  <anchor x="434" y="1880" name="Anchor-9"/>
  <anchor x="133" y="0" name="Anchor-8"/>
  <anchor x="98" y="0" name="Anchor-7"/>
  <outline>
    <contour>
      <point x="459" y="1692" type="line"/>
      <point x="416" y="1718" type="line"/>
      <point x="571" y="1880" type="line"/>
      <point x="662" y="1880" type="line"/>
    </contour>
    <contour>
      <point x="371" y="1452" type="line"/>
      <point x="442" y="1452" type="line"/>
      <point x="133" y="0" type="line"/>
      <point x="61" y="0" type="line"/>
    </contour>
  </outline>
</glyph>
<glyph name="Icircumflex" format="2">
  <advance width="456"/>
  <unicode hex="00CE"/>
  <anchor x="0" y="0" name="Anchor-11"/>
  <anchor x="0" y="0" name="Anchor-10"/>
  <anchor x="479" y="1833" name="Anchor-9"/>
  <anchor x="133" y="0" name="Anchor-8"/>
  <anchor x="98" y="0" name="Anchor-7"/>
  <outline>
    <contour>
      <point x="248" y="1675" type="line"/>
      <point x="465" y="1833" type="line"/>
      <point x="518" y="1833" type="line"/>
      <point x="670" y="1675" type="line"/>
      <point x="618" y="1645" type="line"/>
      <point x="479" y="1774" type="line"/>
      <point x="287" y="1645" type="line"/>
    </contour>
    <contour>
      <point x="371" y="1452" type="line"/>
      <point x="442" y="1452" type="line"/>
      <point x="133" y="0" type="line"/>
      <point x="61" y="0" type="line"/>
    </contour>
  </outline>
</glyph>
<glyph name="Idieresis" format="2">
  <advance width="456"/>
  <unicode hex="00CF"/>
  <anchor x="0" y="0" name="Anchor-11"/>
  <anchor x="0" y="0" name="Anchor-10"/>
  <anchor x="498" y="1878" name="Anchor-9"/>
  <anchor x="133" y="0" name="Anchor-8"/>
  <anchor x="98" y="0" name="Anchor-7"/>
  <outline>
    <contour>
      <point x="307" y="1710" type="line"/>
      <point x="342" y="1878" type="line"/>
      <point x="406" y="1878" type="line"/>
      <point x="371" y="1710" type="line"/>
    </contour>
    <contour>
      <point x="553" y="1710" type="line"/>
      <point x="588" y="1878" type="line"/>
      <point x="651" y="1878" type="line"/>
      <point x="616" y="1710" type="line"/>
    </contour>
    <contour>
      <point x="371" y="1452" type="line"/>
      <point x="442" y="1452" type="line"/>
      <point x="133" y="0" type="line"/>
      <point x="61" y="0" type="line"/>
    </contour>
  </outline>
</glyph>
<glyph name="Ntilde" format="2">
  <advance width="1519"/>
  <unicode hex="00D1"/>
  <anchor x="0" y="0" name="Anchor-11"/>
  <anchor x="0" y="0" name="Anchor-10"/>
  <anchor x="1055" y="1878" name="Anchor-9"/>
  <anchor x="0" y="0" name="Anchor-8"/>
  <anchor x="649" y="0" name="Anchor-7"/>
  <outline>
    <contour>
      <point x="909" y="1804" type="qcurve" smooth="yes"/>
      <point x="880" y="1804"/>
      <point x="832" y="1778"/>
      <point x="804" y="1739"/>
      <point x="791" y="1715"/>
      <point x="788" y="1706" type="qcurve"/>
      <point x="737" y="1706" type="line"/>
      <point x="738" y="1713"/>
      <point x="750" y="1745"/>
      <point x="780" y="1791"/>
      <point x="820" y="1831"/>
      <point x="886" y="1860"/>
      <point x="924" y="1860" type="qcurve" smooth="yes"/>
      <point x="976" y="1860"/>
      <point x="1102" y="1780"/>
      <point x="1151" y="1780" type="qcurve" smooth="yes"/>
      <point x="1180" y="1780"/>
      <point x="1229" y="1799"/>
      <point x="1257" y="1825"/>
      <point x="1278" y="1856"/>
      <point x="1285" y="1873"/>
      <point x="1286" y="1878" type="qcurve"/>
      <point x="1337" y="1878" type="line"/>
      <point x="1335" y="1869"/>
      <point x="1323" y="1839"/>
      <point x="1291" y="1793"/>
      <point x="1249" y="1754"/>
      <point x="1178" y="1726"/>
      <point x="1137" y="1726" type="qcurve" smooth="yes"/>
      <point x="1088" y="1726"/>
      <point x="1008" y="1765"/>
      <point x="941" y="1804"/>
    </contour>
    <contour>
      <point x="371" y="1454" type="line"/>
      <point x="426" y="1454" type="line"/>
      <point x="1151" y="113" type="line"/>
      <point x="1434" y="1452" type="line"/>
      <point x="1505" y="1452" type="line"/>
      <point x="1196" y="0" type="line"/>
      <point x="1128" y="0" type="line"/>
      <point x="414" y="1319" type="line"/>
      <point x="133" y="0" type="line"/>
      <point x="61" y="0" type="line"/>
    </contour>
  </outline>
</glyph>
<glyph name="multiply" format="2">
  <advance width="946"/>
  <unicode hex="00D7"/>
  <outline>
    <contour>
      <point x="774" y="287" type="line"/>
      <point x="725" y="240" type="line"/>
      <point x="457" y="508" type="line"/>
      <point x="188" y="240" type="line"/>
      <point x="143" y="289" type="line"/>
      <point x="410" y="555" type="line"/>
      <point x="141" y="823" type="line"/>
      <point x="190" y="870" type="line"/>
      <point x="457" y="602" type="line"/>
      <point x="727" y="872" type="line"/>
      <point x="772" y="823" type="line"/>
      <point x="504" y="555" type="line"/>
    </contour>
  </outline>
</glyph>
<glyph name="Oslash" format="2">
  <advance width="1484"/>
  <unicode hex="00D8"/>
  <anchor x="1155" y="1376" name="Anchor-11"/>
  <anchor x="743" y="727" name="Anchor-10"/>
  <anchor x="938" y="1448" name="Anchor-9"/>
  <anchor x="676" y="0" name="Anchor-8"/>
  <anchor x="621" y="0" name="Anchor-7"/>
  <outline>
    <contour>
      <point x="1286" y="1300" type="line"/>
      <point x="1356" y="1218"/>
      <point x="1427" y="991"/>
      <point x="1427" y="866" type="qcurve" smooth="yes"/>
      <point x="1427" y="752"/>
      <point x="1367" y="528"/>
      <point x="1261" y="336"/>
      <point x="1110" y="172"/>
      <point x="934" y="56"/>
      <point x="727" y="-10"/>
      <point x="621" y="-10" type="qcurve" smooth="yes"/>
      <point x="421" y="-10"/>
      <point x="293" y="102" type="qcurve"/>
      <point x="207" y="0" type="line"/>
      <point x="125" y="0" type="line"/>
      <point x="248" y="147" type="line"/>
      <point x="176" y="230"/>
      <point x="102" y="457"/>
      <point x="102" y="584" type="qcurve" smooth="yes"/>
      <point x="102" y="756"/>
      <point x="234" y="1080"/>
      <point x="453" y="1319"/>
      <point x="751" y="1464"/>
      <point x="909" y="1464" type="qcurve" smooth="yes"/>
      <point x="1112" y="1464"/>
      <point x="1241" y="1348" type="qcurve"/>
      <point x="1331" y="1454" type="line"/>
      <point x="1413" y="1454" type="line"/>
    </contour>
    <contour>
      <point x="174" y="588" type="qcurve" smooth="yes"/>
      <point x="174" y="350"/>
      <point x="295" y="205" type="qcurve"/>
      <point x="1196" y="1292" type="line"/>
      <point x="1081" y="1397"/>
      <point x="899" y="1397" type="qcurve" smooth="yes"/>
      <point x="751" y="1397"/>
      <point x="479" y="1258"/>
      <point x="288" y="1033"/>
      <point x="174" y="739"/>
    </contour>
    <contour>
      <point x="633" y="57" type="qcurve" smooth="yes"/>
      <point x="753" y="57"/>
      <point x="978" y="147"/>
      <point x="1154" y="304"/>
      <point x="1287" y="507"/>
      <point x="1358" y="744"/>
      <point x="1358" y="864" type="qcurve" smooth="yes"/>
      <point x="1358" y="1103"/>
      <point x="1239" y="1245" type="qcurve"/>
      <point x="338" y="160" type="line"/>
      <point x="459" y="57"/>
    </contour>
  </outline>
</glyph>
<glyph name="Udieresis" format="2">
  <advance width="1480"/>
  <unicode hex="00DC"/>
  <anchor x="1571" y="1376" name="Anchor-11"/>
  <anchor x="0" y="0" name="Anchor-10"/>
  <anchor x="1004" y="1876" name="Anchor-9"/>
  <anchor x="684" y="0" name="Anchor-8"/>
  <anchor x="614" y="0" name="Anchor-7"/>
  <outline>
    <contour>
      <point x="813" y="1708" type="line"/>
      <point x="848" y="1876" type="line"/>
      <point x="911" y="1876" type="line"/>
      <point x="877" y="1708" type="line"/>
    </contour>
    <contour>
      <point x="1059" y="1708" type="line"/>
      <point x="1094" y="1876" type="line"/>
      <point x="1157" y="1876" type="line"/>
      <point x="1122" y="1708" type="line"/>
    </contour>
    <contour>
      <point x="166" y="463" type="qcurve" smooth="yes"/>
      <point x="166" y="583"/>
      <point x="195" y="725" type="qcurve" smooth="yes"/>
      <point x="350" y="1454" type="line"/>
      <point x="420" y="1454" type="line"/>
      <point x="266" y="725" type="line" smooth="yes"/>
      <point x="236" y="585"/>
      <point x="236" y="475" type="qcurve" smooth="yes"/>
      <point x="236" y="57"/>
      <point x="616" y="57" type="qcurve" smooth="yes"/>
      <point x="730" y="57"/>
      <point x="926" y="135"/>
      <point x="1066" y="263"/>
      <point x="1177" y="440"/>
      <point x="1244" y="623"/>
      <point x="1266" y="725" type="qcurve" smooth="yes"/>
      <point x="1419" y="1454" type="line"/>
      <point x="1489" y="1454" type="line"/>
      <point x="1335" y="725" type="line" smooth="yes"/>
      <point x="1309" y="603"/>
      <point x="1228" y="392"/>
      <point x="1103" y="202"/>
      <point x="946" y="68"/>
      <point x="734" y="-10"/>
      <point x="610" y="-10" type="qcurve" smooth="yes"/>
      <point x="512" y="-10"/>
      <point x="359" y="39"/>
      <point x="259" y="124"/>
      <point x="194" y="245"/>
      <point x="166" y="382"/>
    </contour>
  </outline>
</glyph>
<glyph name="Thorn" format="2">
  <advance width="1177"/>
  <unicode hex="00DE"/>
  <outline>
    <contour>
      <point x="371" y="1454" type="line"/>
      <point x="442" y="1454" type="line"/>
      <point x="377" y="1153" type="line"/>
      <point x="836" y="1153" type="line" smooth="yes"/>
      <point x="930" y="1153"/>
      <point x="1074" y="1046"/>
      <point x="1145" y="880"/>
      <point x="1145" y="784" type="qcurve" smooth="yes"/>
      <point x="1145" y="658"/>
      <point x="1013" y="416"/>
      <point x="785" y="260"/>
      <point x="657" y="260" type="qcurve" smooth="yes"/>
      <point x="186" y="260" type="line"/>
      <point x="133" y="0" type="line"/>
      <point x="61" y="0" type="line"/>
    </contour>
    <contour>
      <point x="670" y="326" type="line" smooth="yes"/>
      <point x="779" y="326"/>
      <point x="969" y="464"/>
      <point x="1075" y="671"/>
      <point x="1075" y="776" type="qcurve" smooth="yes"/>
      <point x="1075" y="904"/>
      <point x="931" y="1085"/>
      <point x="817" y="1085" type="qcurve" smooth="yes"/>
      <point x="365" y="1085" type="line"/>
      <point x="203" y="326" type="line"/>
    </contour>
  </outline>
</glyph>
<glyph name="germandbls" format="2">
  <advance width="1075"/>
  <unicode hex="00DF"/>
  <outline>
    <contour>
      <point x="336" y="53" type="line"/>
      <point x="591" y="58"/>
      <point x="881" y="291"/>
      <point x="881" y="494" type="qcurve" smooth="yes"/>
      <point x="881" y="629"/>
      <point x="716" y="791"/>
      <point x="575" y="791" type="qcurve" smooth="yes"/>
      <point x="541" y="791" type="line"/>
      <point x="555" y="856" type="line"/>
      <point x="588" y="856" type="line" smooth="yes"/>
      <point x="726" y="856"/>
      <point x="930" y="1043"/>
      <point x="930" y="1174" type="qcurve" smooth="yes"/>
      <point x="930" y="1274"/>
      <point x="798" y="1397"/>
      <point x="692" y="1397" type="qcurve" smooth="yes"/>
      <point x="556" y="1397"/>
      <point x="353" y="1200"/>
      <point x="319" y="1040" type="qcurve" smooth="yes"/>
      <point x="98" y="0" type="line"/>
      <point x="31" y="0" type="line"/>
      <point x="252" y="1047" type="line" smooth="yes"/>
      <point x="292" y="1232"/>
      <point x="546" y="1462"/>
      <point x="709" y="1462" type="qcurve" smooth="yes"/>
      <point x="840" y="1462"/>
      <point x="1001" y="1312"/>
      <point x="1001" y="1194" type="qcurve" smooth="yes"/>
      <point x="1001" y="1069"/>
      <point x="818" y="851"/>
      <point x="702" y="827" type="qcurve"/>
      <point x="824" y="798"/>
      <point x="954" y="628"/>
      <point x="954" y="504" type="qcurve" smooth="yes"/>
      <point x="954" y="270"/>
      <point x="618" y="-1"/>
      <point x="322" y="-12" type="qcurve"/>
    </contour>
  </outline>
</glyph>
<glyph name="atilde" format="2">
  <advance width="1198"/>
  <unicode hex="00E3"/>
  <anchor x="0" y="0" name="Anchor-11"/>
  <anchor x="0" y="0" name="Anchor-10"/>
  <anchor x="805" y="1495" name="Anchor-9"/>
  <anchor x="936" y="0" name="Anchor-8"/>
  <anchor x="487" y="0" name="Anchor-7"/>
  <outline>
    <contour>
      <point x="659" y="1421" type="qcurve" smooth="yes"/>
      <point x="630" y="1421"/>
      <point x="582" y="1395"/>
      <point x="554" y="1356"/>
      <point x="542" y="1332"/>
      <point x="539" y="1323" type="qcurve"/>
      <point x="487" y="1323" type="line"/>
      <point x="488" y="1330"/>
      <point x="500" y="1362"/>
      <point x="530" y="1408"/>
      <point x="570" y="1448"/>
      <point x="636" y="1477"/>
      <point x="674" y="1477" type="qcurve" smooth="yes"/>
      <point x="726" y="1477"/>
      <point x="852" y="1397"/>
      <point x="901" y="1397" type="qcurve" smooth="yes"/>
      <point x="930" y="1397"/>
      <point x="979" y="1416"/>
      <point x="1007" y="1442"/>
      <point x="1028" y="1473"/>
      <point x="1035" y="1490"/>
      <point x="1036" y="1495" type="qcurve"/>
      <point x="1087" y="1495" type="line"/>
      <point x="1085" y="1486"/>
      <point x="1073" y="1456"/>
      <point x="1041" y="1410"/>
      <point x="999" y="1371"/>
      <point x="928" y="1343"/>
      <point x="887" y="1343" type="qcurve" smooth="yes"/>
      <point x="838" y="1343"/>
      <point x="758" y="1382"/>
      <point x="691" y="1421"/>
    </contour>
    <contour>
      <point x="59" y="428" type="qcurve" smooth="yes"/>
      <point x="59" y="550"/>
      <point x="159" y="789"/>
      <point x="322" y="969"/>
      <point x="541" y="1081"/>
      <point x="653" y="1081" type="qcurve" smooth="yes"/>
      <point x="783" y="1081"/>
      <point x="965" y="936"/>
      <point x="1006" y="823" type="qcurve"/>
      <point x="1057" y="1065" type="line"/>
      <point x="1128" y="1065" type="line"/>
      <point x="926" y="117" type="line" smooth="yes"/>
      <point x="922" y="105"/>
      <point x="922" y="92" type="qcurve" smooth="yes"/>
      <point x="922" y="66"/>
      <point x="950" y="66" type="qcurve"/>
      <point x="936" y="0" type="line"/>
      <point x="907" y="0" type="line"/>
      <point x="852" y="9"/>
      <point x="852" y="63" type="qcurve" smooth="yes"/>
      <point x="852" y="72"/>
      <point x="881" y="217" type="qcurve"/>
      <point x="795" y="110"/>
      <point x="555" y="-20"/>
      <point x="438" y="-20" type="qcurve" smooth="yes"/>
      <point x="324" y="-20"/>
      <point x="148" y="108"/>
      <point x="59" y="310"/>
    </contour>
    <contour>
      <point x="905" y="352" type="qcurve"/>
      <point x="983" y="719" type="line"/>
      <point x="965" y="842"/>
      <point x="782" y="1016"/>
      <point x="653" y="1016" type="qcurve" smooth="yes"/>
      <point x="521" y="1016"/>
      <point x="276" y="841"/>
      <point x="131" y="571"/>
      <point x="131" y="434" type="qcurve" smooth="yes"/>
      <point x="131" y="274"/>
      <point x="319" y="45"/>
      <point x="459" y="45" type="qcurve" smooth="yes"/>
      <point x="585" y="45"/>
      <point x="869" y="233"/>
    </contour>
  </outline>
</glyph>
<glyph name="ae" format="2">
  <advance width="1810"/>
  <unicode hex="00E6"/>
  <anchor x="0" y="0" name="Anchor-11"/>
  <anchor x="0" y="0" name="Anchor-10"/>
  <anchor x="928" y="1065" name="Anchor-9"/>
  <anchor x="0" y="0" name="Anchor-8"/>
  <anchor x="0" y="0" name="Anchor-7"/>
  <outline>
    <contour>
      <point x="0" y="248" type="qcurve" smooth="yes"/>
      <point x="0" y="410"/>
      <point x="284" y="616"/>
      <point x="494" y="616" type="qcurve" smooth="yes"/>
      <point x="630" y="616"/>
      <point x="758" y="575" type="qcurve"/>
      <point x="774" y="639"/>
      <point x="840" y="772" type="qcurve"/>
      <point x="840" y="886"/>
      <point x="708" y="1022"/>
      <point x="592" y="1022" type="qcurve" smooth="yes"/>
      <point x="437" y="1022"/>
      <point x="233" y="891" type="qcurve"/>
      <point x="213" y="942" type="line"/>
      <point x="438" y="1081"/>
      <point x="608" y="1081" type="qcurve" smooth="yes"/>
      <point x="728" y="1081"/>
      <point x="884" y="955"/>
      <point x="899" y="840" type="qcurve"/>
      <point x="988" y="950"/>
      <point x="1226" y="1081"/>
      <point x="1350" y="1081" type="qcurve" smooth="yes"/>
      <point x="1522" y="1081"/>
      <point x="1745" y="844"/>
      <point x="1745" y="664" type="qcurve" smooth="yes"/>
      <point x="1745" y="566"/>
      <point x="1718" y="500" type="qcurve"/>
      <point x="809" y="500" type="line"/>
      <point x="805" y="446"/>
      <point x="805" y="420" type="qcurve" smooth="yes"/>
      <point x="805" y="254"/>
      <point x="990" y="39"/>
      <point x="1141" y="39" type="qcurve" smooth="yes"/>
      <point x="1253" y="39"/>
      <point x="1470" y="159"/>
      <point x="1530" y="254" type="qcurve"/>
      <point x="1589" y="238" type="line"/>
      <point x="1523" y="126"/>
      <point x="1261" y="-20"/>
      <point x="1124" y="-20" type="qcurve" smooth="yes"/>
      <point x="999" y="-20"/>
      <point x="812" y="111"/>
      <point x="768" y="223" type="qcurve"/>
      <point x="685" y="103"/>
      <point x="401" y="-20"/>
      <point x="279" y="-20" type="qcurve" smooth="yes"/>
      <point x="147" y="-20"/>
      <point x="0" y="133"/>
    </contour>
    <contour>
      <point x="1663" y="557" type="line"/>
      <point x="1673" y="601"/>
      <point x="1673" y="664" type="qcurve" smooth="yes"/>
      <point x="1673" y="815"/>
      <point x="1497" y="1020"/>
      <point x="1339" y="1020" type="qcurve" smooth="yes"/>
      <point x="1167" y="1020"/>
      <point x="874" y="757"/>
      <point x="821" y="557" type="qcurve"/>
    </contour>
    <contour>
      <point x="748" y="289" type="qcurve"/>
      <point x="733" y="342"/>
      <point x="733" y="403" type="qcurve" smooth="yes"/>
      <point x="733" y="460"/>
      <point x="745" y="518" type="qcurve"/>
      <point x="629" y="561"/>
      <point x="492" y="561" type="qcurve" smooth="yes"/>
      <point x="306" y="561"/>
      <point x="68" y="396"/>
      <point x="68" y="262" type="qcurve" smooth="yes"/>
      <point x="68" y="168"/>
      <point x="187" y="39"/>
      <point x="303" y="39" type="qcurve" smooth="yes"/>
      <point x="386" y="39"/>
      <point x="572" y="103"/>
      <point x="725" y="221"/>
    </contour>
  </outline>
</glyph>
<glyph name="ccedilla" format="2">
  <advance width="1060"/>
  <unicode hex="00E7"/>
  <anchor x="0" y="0" name="Anchor-11"/>
  <anchor x="0" y="0" name="Anchor-10"/>
  <anchor x="680" y="1065" name="Anchor-9"/>
  <anchor x="0" y="0" name="Anchor-8"/>
  <anchor x="463" y="0" name="Anchor-7"/>
  <outline>
    <contour>
      <point x="680" y="1016" type="qcurve" smooth="yes"/>
      <point x="577" y="1016"/>
      <point x="377" y="923"/>
      <point x="225" y="768"/>
      <point x="131" y="555"/>
      <point x="131" y="442" type="qcurve" smooth="yes"/>
      <point x="131" y="272"/>
      <point x="315" y="45"/>
      <point x="459" y="45" type="qcurve" smooth="yes"/>
      <point x="572" y="45"/>
      <point x="800" y="171"/>
      <point x="840" y="256" type="qcurve"/>
      <point x="905" y="236" type="line"/>
      <point x="853" y="142"/>
      <point x="644" y="5"/>
      <point x="526" y="-14" type="qcurve"/>
      <point x="588" y="-76"/>
      <point x="588" y="-152" type="qcurve" smooth="yes"/>
      <point x="588" y="-246"/>
      <point x="467" y="-346"/>
      <point x="369" y="-346" type="qcurve" smooth="yes"/>
      <point x="263" y="-346"/>
      <point x="180" y="-293" type="qcurve"/>
      <point x="213" y="-248" type="line"/>
      <point x="258" y="-272"/>
      <point x="324" y="-293"/>
      <point x="371" y="-293" type="qcurve" smooth="yes"/>
      <point x="445" y="-293"/>
      <point x="537" y="-214"/>
      <point x="537" y="-154" type="qcurve" smooth="yes"/>
      <point x="537" y="-85"/>
      <point x="463" y="-20" type="qcurve"/>
      <point x="453" y="-20" type="line" smooth="yes"/>
      <point x="278" y="-20"/>
      <point x="59" y="239"/>
      <point x="59" y="430" type="qcurve" smooth="yes"/>
      <point x="59" y="601"/>
      <point x="233" y="903"/>
      <point x="521" y="1081"/>
      <point x="682" y="1081" type="qcurve" smooth="yes"/>
      <point x="815" y="1081"/>
      <point x="994" y="953"/>
      <point x="1022" y="840" type="qcurve"/>
      <point x="948" y="815" type="line"/>
      <point x="922" y="910"/>
      <point x="780" y="1016"/>
    </contour>
  </outline>
</glyph>
<glyph name="ecircumflex" format="2">
  <advance width="1075"/>
  <unicode hex="00EA"/>
  <anchor x="0" y="0" name="Anchor-11"/>
  <anchor x="0" y="0" name="Anchor-10"/>
  <anchor x="752" y="1448" name="Anchor-9"/>
  <anchor x="522" y="0" name="Anchor-8"/>
  <anchor x="455" y="0" name="Anchor-7"/>
  <outline>
    <contour>
      <point x="752" y="1389" type="line"/>
      <point x="559" y="1260" type="line"/>
      <point x="520" y="1290" type="line"/>
      <point x="737" y="1448" type="line"/>
      <point x="791" y="1448" type="line"/>
      <point x="942" y="1290" type="line"/>
      <point x="891" y="1260" type="line"/>
    </contour>
    <contour>
      <point x="461" y="500" type="qcurve" smooth="yes"/>
      <point x="328" y="500"/>
      <point x="137" y="512" type="qcurve"/>
      <point x="131" y="472"/>
      <point x="131" y="432" type="qcurve" smooth="yes"/>
      <point x="131" y="323"/>
      <point x="205" y="148"/>
      <point x="362" y="39"/>
      <point x="471" y="39" type="qcurve" smooth="yes"/>
      <point x="582" y="39"/>
      <point x="805" y="166"/>
      <point x="862" y="268" type="qcurve"/>
      <point x="924" y="250" type="line"/>
      <point x="854" y="129"/>
      <point x="595" y="-20"/>
      <point x="455" y="-20" type="qcurve" smooth="yes"/>
      <point x="334" y="-20"/>
      <point x="151" y="102"/>
      <point x="59" y="305"/>
      <point x="59" y="430" type="qcurve" smooth="yes"/>
      <point x="59" y="552"/>
      <point x="155" y="788"/>
      <point x="319" y="969"/>
      <point x="554" y="1081"/>
      <point x="684" y="1081" type="qcurve" smooth="yes"/>
      <point x="743" y="1081"/>
      <point x="857" y="1044"/>
      <point x="950" y="976"/>
      <point x="1008" y="866"/>
      <point x="1008" y="799" type="qcurve" smooth="yes"/>
      <point x="1008" y="500"/>
    </contour>
    <contour>
      <point x="674" y="1020" type="qcurve" smooth="yes"/>
      <point x="485" y="1020"/>
      <point x="193" y="758"/>
      <point x="147" y="571" type="qcurve"/>
      <point x="338" y="559"/>
      <point x="467" y="559" type="qcurve" smooth="yes"/>
      <point x="940" y="559"/>
      <point x="940" y="801" type="qcurve" smooth="yes"/>
      <point x="940" y="874"/>
      <point x="855" y="977"/>
      <point x="739" y="1020"/>
    </contour>
  </outline>
</glyph>
<glyph name="igrave" format="2">
  <advance width="391"/>
  <unicode hex="00EC"/>
  <anchor x="0" y="0" name="Anchor-11"/>
  <anchor x="0" y="0" name="Anchor-10"/>
  <anchor x="479" y="1403" name="Anchor-9"/>
  <anchor x="240" y="20" name="Anchor-8"/>
  <anchor x="66" y="0" name="Anchor-7"/>
  <outline>
    <contour>
      <point x="371" y="1403" type="line"/>
      <point x="459" y="1403" type="line"/>
      <point x="549" y="1241" type="line"/>
      <point x="494" y="1214" type="line"/>
    </contour>
    <contour>
      <point x="256" y="1065" type="line"/>
      <point x="326" y="1065" type="line"/>
      <point x="100" y="0" type="line"/>
      <point x="31" y="0" type="line"/>
    </contour>
  </outline>
</glyph>
<glyph name="iacute" format="2">
  <advance width="391"/>
  <unicode hex="00ED"/>
  <anchor x="0" y="0" name="Anchor-11"/>
  <anchor x="0" y="0" name="Anchor-10"/>
  <anchor x="319" y="1495" name="Anchor-9"/>
  <anchor x="240" y="20" name="Anchor-8"/>
  <anchor x="66" y="0" name="Anchor-7"/>
  <outline>
    <contour>
      <point x="344" y="1307" type="line"/>
      <point x="301" y="1333" type="line"/>
      <point x="457" y="1495" type="line"/>
      <point x="547" y="1495" type="line"/>
    </contour>
    <contour>
      <point x="256" y="1065" type="line"/>
      <point x="326" y="1065" type="line"/>
      <point x="100" y="0" type="line"/>
      <point x="31" y="0" type="line"/>
    </contour>
  </outline>
</glyph>
<glyph name="icircumflex" format="2">
  <advance width="391"/>
  <unicode hex="00EE"/>
  <anchor x="0" y="0" name="Anchor-11"/>
  <anchor x="0" y="0" name="Anchor-10"/>
  <anchor x="365" y="1448" name="Anchor-9"/>
  <anchor x="240" y="20" name="Anchor-8"/>
  <anchor x="66" y="0" name="Anchor-7"/>
  <outline>
    <contour>
      <point x="133" y="1290" type="line"/>
      <point x="350" y="1448" type="line"/>
      <point x="403" y="1448" type="line"/>
      <point x="555" y="1290" type="line"/>
      <point x="504" y="1260" type="line"/>
      <point x="365" y="1389" type="line"/>
      <point x="172" y="1260" type="line"/>
    </contour>
    <contour>
      <point x="256" y="1065" type="line"/>
      <point x="326" y="1065" type="line"/>
      <point x="100" y="0" type="line"/>
      <point x="31" y="0" type="line"/>
    </contour>
  </outline>
</glyph>
<glyph name="eth" format="2">
  <advance width="1169"/>
  <unicode hex="00F0"/>
  <outline>
    <contour>
      <point x="1106" y="1421" type="line"/>
      <point x="901" y="1300" type="line"/>
      <point x="1083" y="1069"/>
      <point x="1083" y="758" type="qcurve" smooth="yes"/>
      <point x="1083" y="584"/>
      <point x="969" y="285"/>
      <point x="786" y="90"/>
      <point x="558" y="-20"/>
      <point x="442" y="-20" type="qcurve" smooth="yes"/>
      <point x="270" y="-20"/>
      <point x="51" y="217"/>
      <point x="51" y="389" type="qcurve" smooth="yes"/>
      <point x="51" y="502"/>
      <point x="155" y="718"/>
      <point x="321" y="876"/>
      <point x="538" y="973"/>
      <point x="647" y="973" type="qcurve" smooth="yes"/>
      <point x="790" y="973"/>
      <point x="989" y="817"/>
      <point x="1014" y="692" type="qcurve"/>
      <point x="1018" y="733"/>
      <point x="1018" y="817" type="qcurve" smooth="yes"/>
      <point x="1011" y="1074"/>
      <point x="848" y="1272" type="qcurve"/>
      <point x="582" y="1114" type="line"/>
      <point x="563" y="1153" type="line"/>
      <point x="819" y="1305" type="line"/>
      <point x="727" y="1407"/>
      <point x="598" y="1495" type="qcurve"/>
      <point x="696" y="1495" type="line"/>
      <point x="795" y="1425"/>
      <point x="874" y="1333" type="qcurve"/>
      <point x="1087" y="1460" type="line"/>
    </contour>
    <contour>
      <point x="457" y="45" type="qcurve" smooth="yes"/>
      <point x="585" y="45"/>
      <point x="829" y="194"/>
      <point x="983" y="438"/>
      <point x="983" y="569" type="qcurve" smooth="yes"/>
      <point x="983" y="712"/>
      <point x="790" y="909"/>
      <point x="643" y="909" type="qcurve" smooth="yes"/>
      <point x="516" y="909"/>
      <point x="275" y="767"/>
      <point x="123" y="528"/>
      <point x="123" y="397" type="qcurve" smooth="yes"/>
      <point x="123" y="247"/>
      <point x="310" y="45"/>
    </contour>
  </outline>
</glyph>
<glyph name="ntilde" format="2">
  <advance width="1118"/>
  <unicode hex="00F1"/>
  <anchor x="0" y="0" name="Anchor-11"/>
  <anchor x="0" y="0" name="Anchor-10"/>
  <anchor x="795" y="1495" name="Anchor-9"/>
  <anchor x="0" y="0" name="Anchor-8"/>
  <anchor x="451" y="0" name="Anchor-7"/>
  <outline>
    <contour>
      <point x="649" y="1421" type="qcurve" smooth="yes"/>
      <point x="620" y="1421"/>
      <point x="572" y="1395"/>
      <point x="544" y="1356"/>
      <point x="531" y="1332"/>
      <point x="528" y="1323" type="qcurve"/>
      <point x="477" y="1323" type="line"/>
      <point x="478" y="1330"/>
      <point x="490" y="1362"/>
      <point x="520" y="1408"/>
      <point x="560" y="1448"/>
      <point x="626" y="1477"/>
      <point x="664" y="1477" type="qcurve" smooth="yes"/>
      <point x="707" y="1477"/>
      <point x="779" y="1437"/>
      <point x="850" y="1397"/>
      <point x="891" y="1397" type="qcurve" smooth="yes"/>
      <point x="920" y="1397"/>
      <point x="969" y="1416"/>
      <point x="997" y="1442"/>
      <point x="1018" y="1473"/>
      <point x="1025" y="1490"/>
      <point x="1026" y="1495" type="qcurve"/>
      <point x="1077" y="1495" type="line"/>
      <point x="1075" y="1486"/>
      <point x="1063" y="1456"/>
      <point x="1031" y="1410"/>
      <point x="989" y="1371"/>
      <point x="918" y="1343"/>
      <point x="877" y="1343" type="qcurve" smooth="yes"/>
      <point x="828" y="1343"/>
      <point x="748" y="1382"/>
      <point x="681" y="1421"/>
    </contour>
    <contour>
      <point x="256" y="1065" type="line"/>
      <point x="322" y="1065" type="line"/>
      <point x="266" y="799" type="line"/>
      <point x="354" y="925"/>
      <point x="631" y="1081"/>
      <point x="766" y="1081" type="qcurve" smooth="yes"/>
      <point x="882" y="1081"/>
      <point x="991" y="953"/>
      <point x="991" y="823" type="qcurve" smooth="yes"/>
      <point x="991" y="738"/>
      <point x="965" y="602" type="qcurve" smooth="yes"/>
      <point x="838" y="0" type="line"/>
      <point x="768" y="0" type="line"/>
      <point x="893" y="594" type="line" smooth="yes"/>
      <point x="918" y="719"/>
      <point x="918" y="799" type="qcurve" smooth="yes"/>
      <point x="918" y="1016"/>
      <point x="737" y="1016" type="qcurve" smooth="yes"/>
      <point x="647" y="1016"/>
      <point x="454" y="926"/>
      <point x="289" y="765"/>
      <point x="242" y="666" type="qcurve"/>
      <point x="100" y="0" type="line"/>
      <point x="31" y="0" type="line"/>
    </contour>
  </outline>
</glyph>
<glyph name="ograve" format="2">
  <advance width="1157"/>
  <unicode hex="00F2"/>
  <anchor x="915" y="987" name="Anchor-11"/>
  <anchor x="580" y="532" name="Anchor-10"/>
  <anchor x="641" y="1495" name="Anchor-9"/>
  <anchor x="526" y="0" name="Anchor-8"/>
  <anchor x="453" y="0" name="Anchor-7"/>
  <outline>
    <contour>
      <point x="532" y="1495" type="line"/>
      <point x="621" y="1495" type="line"/>
      <point x="711" y="1333" type="line"/>
      <point x="655" y="1307" type="line"/>
    </contour>
    <contour>
      <point x="57" y="422" type="qcurve" smooth="yes"/>
      <point x="57" y="557"/>
      <point x="160" y="803"/>
      <point x="328" y="978"/>
      <point x="551" y="1081"/>
      <point x="668" y="1081" type="qcurve" smooth="yes"/>
      <point x="795" y="1081"/>
      <point x="976" y="959"/>
      <point x="1061" y="761"/>
      <point x="1061" y="635" type="qcurve" smooth="yes"/>
      <point x="1061" y="458"/>
      <point x="892" y="155"/>
      <point x="612" y="-20"/>
      <point x="453" y="-20" type="qcurve" smooth="yes"/>
      <point x="262" y="-20"/>
      <point x="57" y="229"/>
    </contour>
    <contour>
      <point x="991" y="623" type="qcurve" smooth="yes"/>
      <point x="991" y="733"/>
      <point x="918" y="908"/>
      <point x="763" y="1016"/>
      <point x="655" y="1016" type="qcurve" smooth="yes"/>
      <point x="556" y="1016"/>
      <point x="364" y="925"/>
      <point x="218" y="770"/>
      <point x="129" y="552"/>
      <point x="129" y="432" type="qcurve" smooth="yes"/>
      <point x="129" y="262"/>
      <point x="304" y="45"/>
      <point x="465" y="45" type="qcurve" smooth="yes"/>
      <point x="564" y="45"/>
      <point x="756" y="135"/>
      <point x="902" y="287"/>
      <point x="991" y="504"/>
    </contour>
  </outline>
</glyph>
<glyph name="divide" format="2">
  <advance width="1116"/>
  <unicode hex="00F7"/>
  <outline>
    <contour>
      <point x="512" y="797" type="line"/>
      <point x="512" y="944" type="line"/>
      <point x="578" y="944" type="line"/>
      <point x="578" y="797" type="line"/>
    </contour>
    <contour>
      <point x="133" y="530" type="line"/>
      <point x="133" y="594" type="line"/>
      <point x="958" y="594" type="line"/>
      <point x="958" y="530" type="line"/>
    </contour>
    <contour>
      <point x="512" y="178" type="line"/>
      <point x="512" y="324" type="line"/>
      <point x="578" y="324" type="line"/>
      <point x="578" y="178" type="line"/>
    </contour>
  </outline>
</glyph>
<glyph name="oslash" format="2">
  <advance width="1157"/>
  <unicode hex="00F8"/>
  <outline>
    <contour>
      <point x="944" y="965" type="line"/>
      <point x="1061" y="835"/>
      <point x="1061" y="633" type="qcurve" smooth="yes"/>
      <point x="1061" y="467"/>
      <point x="884" y="163"/>
      <point x="598" y="-20"/>
      <point x="444" y="-20" type="qcurve" smooth="yes"/>
      <point x="308" y="-20"/>
      <point x="211" y="61" type="qcurve"/>
      <point x="158" y="0" type="line"/>
      <point x="94" y="0" type="line"/>
      <point x="176" y="94" type="line"/>
      <point x="57" y="222"/>
      <point x="57" y="424" type="qcurve" smooth="yes"/>
      <point x="57" y="550"/>
      <point x="165" y="794"/>
      <point x="338" y="972"/>
      <point x="564" y="1081"/>
      <point x="678" y="1081" type="qcurve" smooth="yes"/>
      <point x="812" y="1081"/>
      <point x="909" y="997" type="qcurve"/>
      <point x="967" y="1065" type="line"/>
      <point x="1030" y="1065" type="line"/>
    </contour>
    <contour>
      <point x="664" y="1016" type="qcurve" smooth="yes"/>
      <point x="568" y="1016"/>
      <point x="374" y="919"/>
      <point x="224" y="761"/>
      <point x="129" y="544"/>
      <point x="129" y="432" type="qcurve" smooth="yes"/>
      <point x="129" y="263"/>
      <point x="225" y="150" type="qcurve"/>
      <point x="862" y="940" type="line"/>
      <point x="776" y="1016"/>
    </contour>
    <contour>
      <point x="455" y="45" type="qcurve" smooth="yes"/>
      <point x="584" y="45"/>
      <point x="833" y="205"/>
      <point x="991" y="475"/>
      <point x="991" y="623" type="qcurve" smooth="yes"/>
      <point x="991" y="794"/>
      <point x="895" y="907" type="qcurve"/>
      <point x="256" y="119" type="line"/>
      <point x="339" y="45"/>
    </contour>
  </outline>
</glyph>
<glyph name="uacute" format="2">
  <advance width="1138"/>
  <unicode hex="00FA"/>
  <anchor x="1157" y="985" name="Anchor-11"/>
  <anchor x="0" y="0" name="Anchor-10"/>
  <anchor x="713" y="1495" name="Anchor-9"/>
  <anchor x="877" y="0" name="Anchor-8"/>
  <anchor x="459" y="0" name="Anchor-7"/>
  <outline>
    <contour>
      <point x="737" y="1307" type="line"/>
      <point x="694" y="1333" type="line"/>
      <point x="850" y="1495" type="line"/>
      <point x="940" y="1495" type="line"/>
    </contour>
    <contour>
      <point x="90" y="262" type="qcurve" smooth="yes"/>
      <point x="90" y="343"/>
      <point x="115" y="459" type="qcurve" smooth="yes"/>
      <point x="244" y="1065" type="line"/>
      <point x="313" y="1065" type="line"/>
      <point x="186" y="467" type="line" smooth="yes"/>
      <point x="162" y="359"/>
      <point x="162" y="279" type="qcurve" smooth="yes"/>
      <point x="162" y="45"/>
      <point x="367" y="45" type="qcurve" smooth="yes"/>
      <point x="504" y="45"/>
      <point x="778" y="237"/>
      <point x="854" y="389" type="qcurve"/>
      <point x="997" y="1065" type="line"/>
      <point x="1067" y="1065" type="line"/>
      <point x="874" y="154" type="line" smooth="yes"/>
      <point x="862" y="104"/>
      <point x="862" y="96" type="qcurve" smooth="yes"/>
      <point x="862" y="66"/>
      <point x="893" y="66" type="qcurve"/>
      <point x="877" y="0" type="line"/>
      <point x="852" y="0"/>
      <point x="844" y="2" type="qcurve" smooth="yes"/>
      <point x="795" y="11"/>
      <point x="795" y="63" type="qcurve" smooth="yes"/>
      <point x="795" y="79"/>
      <point x="834" y="262" type="qcurve"/>
      <point x="740" y="132"/>
      <point x="473" y="-20"/>
      <point x="338" y="-20" type="qcurve" smooth="yes"/>
      <point x="90" y="-20"/>
    </contour>
  </outline>
</glyph>
<glyph name="Abreve" format="2">
  <advance width="1327"/>
  <unicode hex="0102"/>
  <anchor x="0" y="0" name="Anchor-11"/>
  <anchor x="0" y="0" name="Anchor-10"/>
  <anchor x="942" y="1884" name="Anchor-9"/>
  <anchor x="1163" y="0" name="Anchor-8"/>
  <anchor x="551" y="0" name="Anchor-7"/>
  <outline>
    <contour>
      <point x="1053" y="1884" type="qcurve"/>
      <point x="1104" y="1884" type="line"/>
      <point x="1089" y="1814"/>
      <point x="972" y="1712"/>
      <point x="909" y="1712" type="qcurve" smooth="yes"/>
      <point x="852" y="1712"/>
      <point x="780" y="1790"/>
      <point x="780" y="1849" type="qcurve" smooth="yes"/>
      <point x="780" y="1860"/>
      <point x="784" y="1884" type="qcurve"/>
      <point x="838" y="1884" type="line"/>
      <point x="834" y="1868"/>
      <point x="834" y="1860" type="qcurve" smooth="yes"/>
      <point x="834" y="1818"/>
      <point x="882" y="1757"/>
      <point x="918" y="1757" type="qcurve" smooth="yes"/>
      <point x="958" y="1757"/>
      <point x="1038" y="1832"/>
    </contour>
    <contour>
      <point x="819" y="1454" type="line"/>
      <point x="881" y="1454" type="line"/>
      <point x="1163" y="0" type="line"/>
      <point x="1087" y="0" type="line"/>
      <point x="991" y="502" type="line"/>
      <point x="303" y="502" type="line"/>
      <point x="-6" y="0" type="line"/>
      <point x="-84" y="0" type="line"/>
    </contour>
    <contour>
      <point x="983" y="563" type="line"/>
      <point x="831" y="1364" type="line"/>
      <point x="336" y="563" type="line"/>
    </contour>
  </outline>
</glyph>
<glyph name="Aogonek" format="2">
  <advance width="1327"/>
  <unicode hex="0104"/>
  <anchor x="0" y="0" name="Anchor-11"/>
  <anchor x="0" y="0" name="Anchor-10"/>
  <anchor x="852" y="1454" name="Anchor-9"/>
  <anchor x="1163" y="0" name="Anchor-8"/>
  <anchor x="551" y="0" name="Anchor-7"/>
  <outline>
    <contour>
      <point x="1004" y="-215" type="qcurve" smooth="yes"/>
      <point x="1004" y="-246"/>
      <point x="1046" y="-283"/>
      <point x="1094" y="-295" type="qcurve"/>
      <point x="1059" y="-346" type="line"/>
      <point x="952" y="-324"/>
      <point x="952" y="-236" type="qcurve" smooth="yes"/>
      <point x="952" y="-180"/>
      <point x="1026" y="-69"/>
      <point x="1104" y="0" type="qcurve"/>
      <point x="1087" y="0" type="line"/>
      <point x="991" y="502" type="line"/>
      <point x="303" y="502" type="line"/>
      <point x="-6" y="0" type="line"/>
      <point x="-84" y="0" type="line"/>
      <point x="819" y="1454" type="line"/>
      <point x="881" y="1454" type="line"/>
      <point x="1163" y="0" type="line"/>
      <point x="1075" y="-76"/>
      <point x="1004" y="-172"/>
    </contour>
    <contour>
      <point x="336" y="563" type="line"/>
      <point x="983" y="563" type="line"/>
      <point x="831" y="1364" type="line"/>
    </contour>
  </outline>
</glyph>
<glyph name="aogonek" format="2">
  <advance width="1198"/>
  <unicode hex="0105"/>
  <anchor x="0" y="0" name="Anchor-11"/>
  <anchor x="0" y="0" name="Anchor-10"/>
  <anchor x="713" y="1065" name="Anchor-9"/>
  <anchor x="936" y="0" name="Anchor-8"/>
  <anchor x="487" y="0" name="Anchor-7"/>
  <outline>
    <contour>
      <point x="922" y="92" type="qcurve" smooth="yes"/>
      <point x="922" y="66"/>
      <point x="950" y="66" type="qcurve"/>
      <point x="936" y="0" type="line"/>
      <point x="847" y="-76"/>
      <point x="776" y="-172"/>
      <point x="776" y="-215" type="qcurve" smooth="yes"/>
      <point x="776" y="-246"/>
      <point x="818" y="-283"/>
      <point x="866" y="-295" type="qcurve"/>
      <point x="831" y="-346" type="line"/>
      <point x="725" y="-324"/>
      <point x="725" y="-236" type="qcurve" smooth="yes"/>
      <point x="725" y="-178"/>
      <point x="802" y="-66"/>
      <point x="885" y="6" type="qcurve"/>
      <point x="852" y="20"/>
      <point x="852" y="63" type="qcurve" smooth="yes"/>
      <point x="852" y="72"/>
      <point x="881" y="217" type="qcurve"/>
      <point x="795" y="110"/>
      <point x="555" y="-20"/>
      <point x="438" y="-20" type="qcurve" smooth="yes"/>
      <point x="324" y="-20"/>
      <point x="148" y="108"/>
      <point x="59" y="310"/>
      <point x="59" y="428" type="qcurve" smooth="yes"/>
      <point x="59" y="550"/>
      <point x="159" y="789"/>
      <point x="322" y="969"/>
      <point x="541" y="1081"/>
      <point x="653" y="1081" type="qcurve" smooth="yes"/>
      <point x="783" y="1081"/>
      <point x="965" y="936"/>
      <point x="1006" y="823" type="qcurve"/>
      <point x="1057" y="1065" type="line"/>
      <point x="1128" y="1065" type="line"/>
      <point x="926" y="117" type="line" smooth="yes"/>
      <point x="922" y="105"/>
    </contour>
    <contour>
      <point x="459" y="45" type="qcurve" smooth="yes"/>
      <point x="585" y="45"/>
      <point x="869" y="233"/>
      <point x="905" y="352" type="qcurve"/>
      <point x="983" y="719" type="line"/>
      <point x="965" y="842"/>
      <point x="782" y="1016"/>
      <point x="653" y="1016" type="qcurve" smooth="yes"/>
      <point x="521" y="1016"/>
      <point x="276" y="841"/>
      <point x="131" y="571"/>
      <point x="131" y="434" type="qcurve" smooth="yes"/>
      <point x="131" y="274"/>
      <point x="319" y="45"/>
    </contour>
  </outline>
</glyph>
<glyph name="Ccircumflex" format="2">
  <advance width="1353"/>
  <unicode hex="0108"/>
  <anchor x="0" y="0" name="Anchor-11"/>
  <anchor x="0" y="0" name="Anchor-10"/>
  <anchor x="948" y="1837" name="Anchor-9"/>
  <anchor x="0" y="0" name="Anchor-8"/>
  <anchor x="565" y="0" name="Anchor-7"/>
  <outline>
    <contour>
      <point x="717" y="1679" type="line"/>
      <point x="934" y="1837" type="line"/>
      <point x="987" y="1837" type="line"/>
      <point x="1139" y="1679" type="line"/>
      <point x="1087" y="1649" type="line"/>
      <point x="948" y="1778" type="line"/>
      <point x="756" y="1649" type="line"/>
    </contour>
    <contour>
      <point x="104" y="590" type="qcurve" smooth="yes"/>
      <point x="104" y="691"/>
      <point x="160" y="901"/>
      <point x="261" y="1094"/>
      <point x="410" y="1264"/>
      <point x="587" y="1389"/>
      <point x="806" y="1462"/>
      <point x="922" y="1462" type="qcurve" smooth="yes"/>
      <point x="1107" y="1462"/>
      <point x="1333" y="1290"/>
      <point x="1368" y="1145" type="qcurve"/>
      <point x="1303" y="1116" type="line"/>
      <point x="1224" y="1395"/>
      <point x="915" y="1395" type="qcurve" smooth="yes"/>
      <point x="789" y="1395"/>
      <point x="556" y="1300"/>
      <point x="378" y="1138"/>
      <point x="244" y="932"/>
      <point x="174" y="701"/>
      <point x="174" y="588" type="qcurve" smooth="yes"/>
      <point x="174" y="444"/>
      <point x="282" y="204"/>
      <point x="497" y="55"/>
      <point x="639" y="55" type="qcurve" smooth="yes"/>
      <point x="778" y="55"/>
      <point x="1064" y="203"/>
      <point x="1167" y="350" type="qcurve"/>
      <point x="1225" y="326" type="line"/>
      <point x="1122" y="165"/>
      <point x="792" y="-12"/>
      <point x="627" y="-12" type="qcurve" smooth="yes"/>
      <point x="505" y="-12"/>
      <point x="302" y="91"/>
      <point x="174" y="262"/>
      <point x="104" y="476"/>
    </contour>
  </outline>
</glyph>
<glyph name="ccaron" format="2">
  <advance width="1060"/>
  <unicode hex="010D"/>
  <anchor x="0" y="0" name="Anchor-11"/>
  <anchor x="0" y="0" name="Anchor-10"/>
  <anchor x="772" y="1495" name="Anchor-9"/>
  <anchor x="0" y="0" name="Anchor-8"/>
  <anchor x="463" y="0" name="Anchor-7"/>
  <outline>
    <contour>
      <point x="541" y="1466" type="line"/>
      <point x="592" y="1495" type="line"/>
      <point x="731" y="1366" type="line"/>
      <point x="924" y="1495" type="line"/>
      <point x="963" y="1466" type="line"/>
      <point x="743" y="1307" type="line"/>
      <point x="690" y="1307" type="line"/>
    </contour>
    <contour>
      <point x="59" y="430" type="qcurve" smooth="yes"/>
      <point x="59" y="601"/>
      <point x="233" y="903"/>
      <point x="521" y="1081"/>
      <point x="682" y="1081" type="qcurve" smooth="yes"/>
      <point x="815" y="1081"/>
      <point x="994" y="953"/>
      <point x="1022" y="840" type="qcurve"/>
      <point x="948" y="815" type="line"/>
      <point x="922" y="910"/>
      <point x="780" y="1016"/>
      <point x="680" y="1016" type="qcurve" smooth="yes"/>
      <point x="577" y="1016"/>
      <point x="377" y="923"/>
      <point x="225" y="768"/>
      <point x="131" y="555"/>
      <point x="131" y="442" type="qcurve" smooth="yes"/>
      <point x="131" y="272"/>
      <point x="315" y="45"/>
      <point x="459" y="45" type="qcurve" smooth="yes"/>
      <point x="572" y="45"/>
      <point x="800" y="171"/>
      <point x="840" y="256" type="qcurve"/>
      <point x="905" y="236" type="line"/>
      <point x="845" y="126"/>
      <point x="587" y="-20"/>
      <point x="453" y="-20" type="qcurve" smooth="yes"/>
      <point x="278" y="-20"/>
      <point x="59" y="239"/>
    </contour>
  </outline>
</glyph>
<glyph name="Dcaron" format="2">
  <advance width="1404"/>
  <unicode hex="010E"/>
  <anchor x="0" y="0" name="Anchor-11"/>
  <anchor x="662" y="727" name="Anchor-10"/>
  <anchor x="920" y="1884" name="Anchor-9"/>
  <anchor x="0" y="0" name="Anchor-8"/>
  <anchor x="504" y="0" name="Anchor-7"/>
  <outline>
    <contour>
      <point x="688" y="1855" type="line"/>
      <point x="739" y="1884" type="line"/>
      <point x="879" y="1755" type="line"/>
      <point x="1071" y="1884" type="line"/>
      <point x="1110" y="1855" type="line"/>
      <point x="891" y="1696" type="line"/>
      <point x="838" y="1696" type="line"/>
    </contour>
    <contour>
      <point x="371" y="1454" type="line"/>
      <point x="823" y="1454" type="line" smooth="yes"/>
      <point x="953" y="1454"/>
      <point x="1155" y="1369"/>
      <point x="1279" y="1217"/>
      <point x="1343" y="1018"/>
      <point x="1343" y="899" type="qcurve" smooth="yes"/>
      <point x="1343" y="709"/>
      <point x="1218" y="375"/>
      <point x="999" y="137"/>
      <point x="691" y="0"/>
      <point x="514" y="0" type="qcurve" smooth="yes"/>
      <point x="61" y="0" type="line"/>
    </contour>
    <contour>
      <point x="528" y="66" type="line" smooth="yes"/>
      <point x="664" y="66"/>
      <point x="902" y="153"/>
      <point x="1079" y="308"/>
      <point x="1207" y="514"/>
      <point x="1272" y="757"/>
      <point x="1272" y="887" type="qcurve" smooth="yes"/>
      <point x="1272" y="1114"/>
      <point x="1033" y="1389"/>
      <point x="809" y="1389" type="qcurve" smooth="yes"/>
      <point x="428" y="1389" type="line"/>
      <point x="145" y="66" type="line"/>
    </contour>
  </outline>
</glyph>
<glyph name="Dcroat" format="2">
  <advance width="1419"/>
  <unicode hex="0110"/>
  <outline>
    <contour>
      <point x="838" y="1454" type="line" smooth="yes"/>
      <point x="968" y="1454"/>
      <point x="1170" y="1369"/>
      <point x="1294" y="1217"/>
      <point x="1358" y="1018"/>
      <point x="1358" y="899" type="qcurve" smooth="yes"/>
      <point x="1358" y="645"/>
      <point x="1144" y="234"/>
      <point x="764" y="0"/>
      <point x="528" y="0" type="qcurve" smooth="yes"/>
      <point x="76" y="0" type="line"/>
      <point x="225" y="700" type="line"/>
      <point x="94" y="700" type="line"/>
      <point x="106" y="762" type="line"/>
      <point x="238" y="762" type="line"/>
      <point x="385" y="1454" type="line"/>
    </contour>
    <contour>
      <point x="543" y="66" type="line" smooth="yes"/>
      <point x="679" y="66"/>
      <point x="917" y="153"/>
      <point x="1093" y="308"/>
      <point x="1221" y="514"/>
      <point x="1286" y="757"/>
      <point x="1286" y="887" type="qcurve" smooth="yes"/>
      <point x="1286" y="1114"/>
      <point x="1047" y="1389"/>
      <point x="823" y="1389" type="qcurve" smooth="yes"/>
      <point x="442" y="1389" type="line"/>
      <point x="309" y="762" type="line"/>
      <point x="668" y="762" type="line"/>
      <point x="655" y="700" type="line"/>
      <point x="295" y="700" type="line"/>
      <point x="160" y="66" type="line"/>
    </contour>
  </outline>
</glyph>
<glyph name="Ebreve" format="2">
  <advance width="1200"/>
  <unicode hex="0114"/>
  <anchor x="0" y="0" name="Anchor-11"/>
  <anchor x="0" y="0" name="Anchor-10"/>
  <anchor x="887" y="1884" name="Anchor-9"/>
  <anchor x="977" y="0" name="Anchor-8"/>
  <anchor x="487" y="0" name="Anchor-7"/>
  <outline>
    <contour>
      <point x="997" y="1884" type="qcurve"/>
      <point x="1049" y="1884" type="line"/>
      <point x="1034" y="1814"/>
      <point x="917" y="1712"/>
      <point x="854" y="1712" type="qcurve" smooth="yes"/>
      <point x="797" y="1712"/>
      <point x="725" y="1790"/>
      <point x="725" y="1849" type="qcurve" smooth="yes"/>
      <point x="725" y="1860"/>
      <point x="729" y="1884" type="qcurve"/>
      <point x="782" y="1884" type="line"/>
      <point x="778" y="1868"/>
      <point x="778" y="1860" type="qcurve" smooth="yes"/>
      <point x="778" y="1818"/>
      <point x="826" y="1757"/>
      <point x="862" y="1757" type="qcurve" smooth="yes"/>
      <point x="902" y="1757"/>
      <point x="982" y="1832"/>
    </contour>
    <contour>
      <point x="371" y="1454" type="line"/>
      <point x="1268" y="1454" type="line"/>
      <point x="1253" y="1389" type="line"/>
      <point x="428" y="1389" type="line"/>
      <point x="297" y="776" type="line"/>
      <point x="1020" y="776" type="line"/>
      <point x="1006" y="711" type="line"/>
      <point x="285" y="711" type="line"/>
      <point x="145" y="66" type="line"/>
      <point x="989" y="66" type="line"/>
      <point x="977" y="0" type="line"/>
      <point x="61" y="0" type="line"/>
    </contour>
  </outline>
</glyph>
<glyph name="ebreve" format="2">
  <advance width="1075"/>
  <unicode hex="0115"/>
  <anchor x="0" y="0" name="Anchor-11"/>
  <anchor x="0" y="0" name="Anchor-10"/>
  <anchor x="768" y="1495" name="Anchor-9"/>
  <anchor x="522" y="0" name="Anchor-8"/>
  <anchor x="455" y="0" name="Anchor-7"/>
  <outline>
    <contour>
      <point x="735" y="1323" type="qcurve" smooth="yes"/>
      <point x="678" y="1323"/>
      <point x="606" y="1401"/>
      <point x="606" y="1460" type="qcurve" smooth="yes"/>
      <point x="606" y="1471"/>
      <point x="610" y="1495" type="qcurve"/>
      <point x="664" y="1495" type="line"/>
      <point x="659" y="1475"/>
      <point x="659" y="1470" type="qcurve" smooth="yes"/>
      <point x="659" y="1428"/>
      <point x="707" y="1368"/>
      <point x="743" y="1368" type="qcurve" smooth="yes"/>
      <point x="783" y="1368"/>
      <point x="864" y="1443"/>
      <point x="879" y="1495" type="qcurve"/>
      <point x="930" y="1495" type="line"/>
      <point x="915" y="1425"/>
      <point x="798" y="1323"/>
    </contour>
    <contour>
      <point x="461" y="500" type="qcurve" smooth="yes"/>
      <point x="328" y="500"/>
      <point x="137" y="512" type="qcurve"/>
      <point x="131" y="472"/>
      <point x="131" y="432" type="qcurve" smooth="yes"/>
      <point x="131" y="323"/>
      <point x="205" y="148"/>
      <point x="362" y="39"/>
      <point x="471" y="39" type="qcurve" smooth="yes"/>
      <point x="582" y="39"/>
      <point x="805" y="166"/>
      <point x="862" y="268" type="qcurve"/>
      <point x="924" y="250" type="line"/>
      <point x="854" y="129"/>
      <point x="595" y="-20"/>
      <point x="455" y="-20" type="qcurve" smooth="yes"/>
      <point x="334" y="-20"/>
      <point x="151" y="102"/>
      <point x="59" y="305"/>
      <point x="59" y="430" type="qcurve" smooth="yes"/>
      <point x="59" y="552"/>
      <point x="155" y="788"/>
      <point x="319" y="969"/>
      <point x="554" y="1081"/>
      <point x="684" y="1081" type="qcurve" smooth="yes"/>
      <point x="743" y="1081"/>
      <point x="857" y="1044"/>
      <point x="950" y="976"/>
      <point x="1008" y="866"/>
      <point x="1008" y="799" type="qcurve" smooth="yes"/>
      <point x="1008" y="500"/>
    </contour>
    <contour>
      <point x="674" y="1020" type="qcurve" smooth="yes"/>
      <point x="485" y="1020"/>
      <point x="193" y="758"/>
      <point x="147" y="571" type="qcurve"/>
      <point x="338" y="559"/>
      <point x="467" y="559" type="qcurve" smooth="yes"/>
      <point x="940" y="559"/>
      <point x="940" y="801" type="qcurve" smooth="yes"/>
      <point x="940" y="874"/>
      <point x="855" y="977"/>
      <point x="739" y="1020"/>
    </contour>
  </outline>
</glyph>
<glyph name="Edot" format="2">
  <advance width="1200"/>
  <unicode hex="0116"/>
  <anchor x="0" y="0" name="Anchor-11"/>
  <anchor x="0" y="0" name="Anchor-10"/>
  <anchor x="889" y="1884" name="Anchor-9"/>
  <anchor x="977" y="0" name="Anchor-8"/>
  <anchor x="487" y="0" name="Anchor-7"/>
  <outline>
    <contour>
      <point x="821" y="1714" type="line"/>
      <point x="856" y="1884" type="line"/>
      <point x="922" y="1884" type="line"/>
      <point x="887" y="1714" type="line"/>
    </contour>
    <contour>
      <point x="371" y="1454" type="line"/>
      <point x="1268" y="1454" type="line"/>
      <point x="1253" y="1389" type="line"/>
      <point x="428" y="1389" type="line"/>
      <point x="297" y="776" type="line"/>
      <point x="1020" y="776" type="line"/>
      <point x="1006" y="711" type="line"/>
      <point x="285" y="711" type="line"/>
      <point x="145" y="66" type="line"/>
      <point x="989" y="66" type="line"/>
      <point x="977" y="0" type="line"/>
      <point x="61" y="0" type="line"/>
    </contour>
  </outline>
</glyph>
<glyph name="Eogonek" format="2">
  <advance width="1200"/>
  <unicode hex="0118"/>
  <anchor x="0" y="0" name="Anchor-11"/>
  <anchor x="0" y="0" name="Anchor-10"/>
  <anchor x="797" y="1454" name="Anchor-9"/>
  <anchor x="977" y="0" name="Anchor-8"/>
  <anchor x="487" y="0" name="Anchor-7"/>
  <outline>
    <contour>
      <point x="1253" y="1389" type="line"/>
      <point x="428" y="1389" type="line"/>
      <point x="297" y="776" type="line"/>
      <point x="1020" y="776" type="line"/>
      <point x="1006" y="711" type="line"/>
      <point x="285" y="711" type="line"/>
      <point x="145" y="66" type="line"/>
      <point x="989" y="66" type="line"/>
      <point x="977" y="0" type="line"/>
      <point x="888" y="-76"/>
      <point x="817" y="-172"/>
      <point x="817" y="-215" type="qcurve" smooth="yes"/>
      <point x="817" y="-246"/>
      <point x="859" y="-283"/>
      <point x="907" y="-295" type="qcurve"/>
      <point x="872" y="-346" type="line"/>
      <point x="766" y="-324"/>
      <point x="766" y="-236" type="qcurve" smooth="yes"/>
      <point x="766" y="-180"/>
      <point x="840" y="-69"/>
      <point x="918" y="0" type="qcurve"/>
      <point x="61" y="0" type="line"/>
      <point x="371" y="1454" type="line"/>
      <point x="1268" y="1454" type="line"/>
    </contour>
  </outline>
</glyph>
<glyph name="Ecaron" format="2">
  <advance width="1200"/>
  <unicode hex="011A"/>
  <anchor x="0" y="0" name="Anchor-11"/>
  <anchor x="0" y="0" name="Anchor-10"/>
  <anchor x="889" y="1884" name="Anchor-9"/>
  <anchor x="977" y="0" name="Anchor-8"/>
  <anchor x="487" y="0" name="Anchor-7"/>
  <outline>
    <contour>
      <point x="657" y="1855" type="line"/>
      <point x="709" y="1884" type="line"/>
      <point x="848" y="1755" type="line"/>
      <point x="1040" y="1884" type="line"/>
      <point x="1079" y="1855" type="line"/>
      <point x="860" y="1696" type="line"/>
      <point x="807" y="1696" type="line"/>
    </contour>
    <contour>
      <point x="371" y="1454" type="line"/>
      <point x="1268" y="1454" type="line"/>
      <point x="1253" y="1389" type="line"/>
      <point x="428" y="1389" type="line"/>
      <point x="297" y="776" type="line"/>
      <point x="1020" y="776" type="line"/>
      <point x="1006" y="711" type="line"/>
      <point x="285" y="711" type="line"/>
      <point x="145" y="66" type="line"/>
      <point x="989" y="66" type="line"/>
      <point x="977" y="0" type="line"/>
      <point x="61" y="0" type="line"/>
    </contour>
  </outline>
</glyph>
<glyph name="Gbreve" format="2">
  <advance width="1409"/>
  <unicode hex="011E"/>
  <anchor x="0" y="0" name="Anchor-11"/>
  <anchor x="0" y="0" name="Anchor-10"/>
  <anchor x="995" y="1878" name="Anchor-9"/>
  <anchor x="0" y="0" name="Anchor-8"/>
  <anchor x="623" y="0" name="Anchor-7"/>
  <outline>
    <contour>
      <point x="963" y="1706" type="qcurve" smooth="yes"/>
      <point x="906" y="1706"/>
      <point x="834" y="1784"/>
      <point x="834" y="1843" type="qcurve" smooth="yes"/>
      <point x="834" y="1854"/>
      <point x="838" y="1878" type="qcurve"/>
      <point x="891" y="1878" type="line"/>
      <point x="887" y="1862"/>
      <point x="887" y="1853" type="qcurve" smooth="yes"/>
      <point x="887" y="1811"/>
      <point x="935" y="1751"/>
      <point x="971" y="1751" type="qcurve" smooth="yes"/>
      <point x="1011" y="1751"/>
      <point x="1091" y="1826"/>
      <point x="1106" y="1878" type="qcurve"/>
      <point x="1157" y="1878" type="line"/>
      <point x="1142" y="1808"/>
      <point x="1026" y="1706"/>
    </contour>
    <contour>
      <point x="913" y="637" type="line"/>
      <point x="926" y="698" type="line"/>
      <point x="1309" y="698" type="line"/>
      <point x="1159" y="0" type="line"/>
      <point x="1096" y="0" type="line"/>
      <point x="1147" y="238" type="line"/>
      <point x="887" y="-10"/>
      <point x="612" y="-10" type="qcurve" smooth="yes"/>
      <point x="492" y="-10"/>
      <point x="295" y="93"/>
      <point x="171" y="266"/>
      <point x="104" y="482"/>
      <point x="104" y="600" type="qcurve" smooth="yes"/>
      <point x="104" y="730"/>
      <point x="186" y="987"/>
      <point x="337" y="1203"/>
      <point x="537" y="1370"/>
      <point x="789" y="1464"/>
      <point x="922" y="1464" type="qcurve" smooth="yes"/>
      <point x="1109" y="1464"/>
      <point x="1333" y="1293"/>
      <point x="1370" y="1147" type="qcurve"/>
      <point x="1303" y="1116" type="line"/>
      <point x="1225" y="1397"/>
      <point x="913" y="1397" type="qcurve" smooth="yes"/>
      <point x="759" y="1397"/>
      <point x="480" y="1257"/>
      <point x="287" y="1032"/>
      <point x="174" y="746"/>
      <point x="174" y="602" type="qcurve" smooth="yes"/>
      <point x="174" y="454"/>
      <point x="285" y="207"/>
      <point x="499" y="57"/>
      <point x="637" y="57" type="qcurve" smooth="yes"/>
      <point x="890" y="57"/>
      <point x="1165" y="326" type="qcurve"/>
      <point x="1231" y="637" type="line"/>
    </contour>
  </outline>
</glyph>
<glyph name="gcedilla" format="2">
  <advance width="1189"/>
  <unicode hex="0123"/>
  <anchor x="0" y="0" name="Anchor-11"/>
  <anchor x="0" y="0" name="Anchor-10"/>
  <anchor x="780" y="1495" name="Anchor-9"/>
  <anchor x="0" y="0" name="Anchor-8"/>
  <anchor x="0" y="0" name="Anchor-7"/>
  <outline>
    <contour>
      <point x="803" y="1495" type="line"/>
      <point x="760" y="1372" type="line"/>
      <point x="776" y="1372" type="line"/>
      <point x="748" y="1245" type="line"/>
      <point x="698" y="1245" type="line"/>
      <point x="729" y="1372" type="line"/>
      <point x="776" y="1495" type="line"/>
    </contour>
    <contour>
      <point x="-51" y="-207" type="qcurve"/>
      <point x="6" y="-178" type="line"/>
      <point x="41" y="-287"/>
      <point x="226" y="-395"/>
      <point x="352" y="-395" type="qcurve" smooth="yes"/>
      <point x="520" y="-395"/>
      <point x="782" y="-206"/>
      <point x="819" y="-33" type="qcurve" smooth="yes"/>
      <point x="874" y="217" type="line"/>
      <point x="788" y="112"/>
      <point x="549" y="-18"/>
      <point x="436" y="-18" type="qcurve" smooth="yes"/>
      <point x="321" y="-18"/>
      <point x="145" y="110"/>
      <point x="57" y="312"/>
      <point x="57" y="430" type="qcurve" smooth="yes"/>
      <point x="57" y="549"/>
      <point x="156" y="786"/>
      <point x="318" y="967"/>
      <point x="541" y="1081"/>
      <point x="657" y="1081" type="qcurve" smooth="yes"/>
      <point x="889" y="1081"/>
      <point x="1008" y="823" type="qcurve"/>
      <point x="1059" y="1065" type="line"/>
      <point x="1122" y="1065" type="line"/>
      <point x="889" y="-33" type="line" smooth="yes"/>
      <point x="868" y="-136"/>
      <point x="758" y="-301"/>
      <point x="608" y="-404"/>
      <point x="432" y="-457"/>
      <point x="340" y="-457" type="qcurve" smooth="yes"/>
      <point x="170" y="-457"/>
      <point x="-13" y="-328"/>
    </contour>
    <contour>
      <point x="903" y="352" type="qcurve"/>
      <point x="981" y="719" type="line"/>
      <point x="962" y="848"/>
      <point x="774" y="1016"/>
      <point x="651" y="1016" type="qcurve" smooth="yes"/>
      <point x="545" y="1016"/>
      <point x="347" y="908"/>
      <point x="211" y="741"/>
      <point x="129" y="537"/>
      <point x="129" y="440" type="qcurve" smooth="yes"/>
      <point x="129" y="275"/>
      <point x="315" y="45"/>
      <point x="463" y="45" type="qcurve" smooth="yes"/>
      <point x="550" y="45"/>
      <point x="740" y="138"/>
      <point x="880" y="280"/>
    </contour>
  </outline>
</glyph>
<glyph name="Hcircumflex" format="2">
  <advance width="1439"/>
  <unicode hex="0124"/>
  <anchor x="0" y="0" name="Anchor-11"/>
  <anchor x="762" y="727" name="Anchor-10"/>
  <anchor x="991" y="1837" name="Anchor-9"/>
  <anchor x="0" y="0" name="Anchor-8"/>
  <anchor x="608" y="0" name="Anchor-7"/>
  <outline>
    <contour>
      <point x="760" y="1679" type="line"/>
      <point x="977" y="1837" type="line"/>
      <point x="1030" y="1837" type="line"/>
      <point x="1182" y="1679" type="line"/>
      <point x="1130" y="1649" type="line"/>
      <point x="991" y="1778" type="line"/>
      <point x="799" y="1649" type="line"/>
    </contour>
    <contour>
      <point x="371" y="1454" type="line"/>
      <point x="442" y="1454" type="line"/>
      <point x="297" y="776" type="line"/>
      <point x="1210" y="776" type="line"/>
      <point x="1356" y="1454" type="line"/>
      <point x="1425" y="1454" type="line"/>
      <point x="1116" y="0" type="line"/>
      <point x="1047" y="0" type="line"/>
      <point x="1196" y="711" type="line"/>
      <point x="285" y="711" type="line"/>
      <point x="133" y="0" type="line"/>
      <point x="61" y="0" type="line"/>
    </contour>
  </outline>
</glyph>
<glyph name="hcircumflex" format="2">
  <advance width="1118"/>
  <unicode hex="0125"/>
  <anchor x="0" y="0" name="Anchor-11"/>
  <anchor x="559" y="532" name="Anchor-10"/>
  <anchor x="823" y="1835" name="Anchor-9"/>
  <anchor x="0" y="0" name="Anchor-8"/>
  <anchor x="446" y="0" name="Anchor-7"/>
  <outline>
    <contour>
      <point x="596" y="1677" type="line"/>
      <point x="809" y="1835" type="line"/>
      <point x="862" y="1835" type="line"/>
      <point x="1012" y="1677" type="line"/>
      <point x="961" y="1647" type="line"/>
      <point x="823" y="1776" type="line"/>
      <point x="635" y="1647" type="line"/>
    </contour>
    <contour>
      <point x="348" y="1495" type="line"/>
      <point x="418" y="1495" type="line"/>
      <point x="270" y="799" type="line"/>
      <point x="359" y="928"/>
      <point x="616" y="1081"/>
      <point x="745" y="1081" type="qcurve" smooth="yes"/>
      <point x="987" y="1081"/>
      <point x="987" y="801" type="qcurve" smooth="yes"/>
      <point x="987" y="704"/>
      <point x="965" y="602" type="qcurve" smooth="yes"/>
      <point x="838" y="0" type="line"/>
      <point x="768" y="0" type="line"/>
      <point x="893" y="594" type="line" smooth="yes"/>
      <point x="915" y="704"/>
      <point x="915" y="776" type="qcurve" smooth="yes"/>
      <point x="915" y="1016"/>
      <point x="717" y="1016" type="qcurve" smooth="yes"/>
      <point x="585" y="1016"/>
      <point x="311" y="815"/>
      <point x="242" y="666" type="qcurve"/>
      <point x="100" y="0" type="line"/>
      <point x="31" y="0" type="line"/>
    </contour>
  </outline>
</glyph>
<glyph name="Hbar" format="2">
  <advance width="1458"/>
  <unicode hex="0126"/>
  <outline>
    <contour>
      <point x="1475" y="1184" type="line"/>
      <point x="1462" y="1133" type="line"/>
      <point x="1368" y="1133" type="line"/>
      <point x="1126" y="0" type="line"/>
      <point x="1055" y="0" type="line"/>
      <point x="1206" y="711" type="line"/>
      <point x="293" y="711" type="line"/>
      <point x="141" y="0" type="line"/>
      <point x="72" y="0" type="line"/>
      <point x="313" y="1133" type="line"/>
      <point x="215" y="1133" type="line"/>
      <point x="227" y="1184" type="line"/>
      <point x="324" y="1184" type="line"/>
      <point x="381" y="1454" type="line"/>
      <point x="451" y="1454" type="line"/>
      <point x="393" y="1184" type="line"/>
      <point x="1307" y="1184" type="line"/>
      <point x="1364" y="1454" type="line"/>
      <point x="1436" y="1454" type="line"/>
      <point x="1378" y="1184" type="line"/>
    </contour>
    <contour>
      <point x="1221" y="776" type="line"/>
      <point x="1296" y="1133" type="line"/>
      <point x="383" y="1133" type="line"/>
      <point x="307" y="776" type="line"/>
    </contour>
  </outline>
</glyph>
<glyph name="Itilde" format="2">
  <advance width="456"/>
  <unicode hex="0128"/>
  <anchor x="0" y="0" name="Anchor-11"/>
  <anchor x="0" y="0" name="Anchor-10"/>
  <anchor x="498" y="1880" name="Anchor-9"/>
  <anchor x="133" y="0" name="Anchor-8"/>
  <anchor x="98" y="0" name="Anchor-7"/>
  <outline>
    <contour>
      <point x="352" y="1806" type="qcurve" smooth="yes"/>
      <point x="323" y="1806"/>
      <point x="275" y="1780"/>
      <point x="247" y="1741"/>
      <point x="234" y="1717"/>
      <point x="231" y="1708" type="qcurve"/>
      <point x="180" y="1708" type="line"/>
      <point x="181" y="1715"/>
      <point x="193" y="1747"/>
      <point x="223" y="1793"/>
      <point x="263" y="1833"/>
      <point x="329" y="1862"/>
      <point x="367" y="1862" type="qcurve" smooth="yes"/>
      <point x="410" y="1862"/>
      <point x="482" y="1822"/>
      <point x="553" y="1782"/>
      <point x="594" y="1782" type="qcurve" smooth="yes"/>
      <point x="623" y="1782"/>
      <point x="672" y="1801"/>
      <point x="700" y="1827"/>
      <point x="721" y="1858"/>
      <point x="728" y="1875"/>
      <point x="729" y="1880" type="qcurve"/>
      <point x="780" y="1880" type="line"/>
      <point x="778" y="1871"/>
      <point x="766" y="1841"/>
      <point x="734" y="1795"/>
      <point x="692" y="1757"/>
      <point x="621" y="1729"/>
      <point x="580" y="1729" type="qcurve" smooth="yes"/>
      <point x="531" y="1729"/>
      <point x="451" y="1768"/>
      <point x="384" y="1806"/>
    </contour>
    <contour>
      <point x="371" y="1452" type="line"/>
      <point x="442" y="1452" type="line"/>
      <point x="133" y="0" type="line"/>
      <point x="61" y="0" type="line"/>
    </contour>
  </outline>
</glyph>
<glyph name="itilde" format="2">
  <advance width="391"/>
  <unicode hex="0129"/>
  <anchor x="0" y="0" name="Anchor-11"/>
  <anchor x="0" y="0" name="Anchor-10"/>
  <anchor x="551" y="1389" name="Anchor-9"/>
  <anchor x="240" y="20" name="Anchor-8"/>
  <anchor x="66" y="0" name="Anchor-7"/>
  <outline>
    <contour>
      <point x="406" y="1315" type="qcurve" smooth="yes"/>
      <point x="377" y="1315"/>
      <point x="329" y="1289"/>
      <point x="301" y="1250"/>
      <point x="288" y="1226"/>
      <point x="285" y="1217" type="qcurve"/>
      <point x="233" y="1217" type="line"/>
      <point x="234" y="1227"/>
      <point x="255" y="1271"/>
      <point x="296" y="1328"/>
      <point x="373" y="1370"/>
      <point x="420" y="1370" type="qcurve" smooth="yes"/>
      <point x="472" y="1370"/>
      <point x="598" y="1290"/>
      <point x="647" y="1290" type="qcurve" smooth="yes"/>
      <point x="676" y="1290"/>
      <point x="725" y="1310"/>
      <point x="753" y="1335"/>
      <point x="774" y="1367"/>
      <point x="781" y="1384"/>
      <point x="782" y="1389" type="qcurve"/>
      <point x="834" y="1389" type="line"/>
      <point x="832" y="1380"/>
      <point x="820" y="1350"/>
      <point x="788" y="1304"/>
      <point x="745" y="1265"/>
      <point x="674" y="1237"/>
      <point x="633" y="1237" type="qcurve" smooth="yes"/>
      <point x="594" y="1237"/>
      <point x="526" y="1261"/>
      <point x="486" y="1291"/>
      <point x="432" y="1315"/>
    </contour>
    <contour>
      <point x="256" y="1065" type="line"/>
      <point x="326" y="1065" type="line"/>
      <point x="100" y="0" type="line"/>
      <point x="31" y="0" type="line"/>
    </contour>
  </outline>
</glyph>
<glyph name="Imacron" format="2">
  <advance width="456"/>
  <unicode hex="012A"/>
  <anchor x="0" y="0" name="Anchor-11"/>
  <anchor x="0" y="0" name="Anchor-10"/>
  <anchor x="487" y="1833" name="Anchor-9"/>
  <anchor x="133" y="0" name="Anchor-8"/>
  <anchor x="98" y="0" name="Anchor-7"/>
  <outline>
    <contour>
      <point x="201" y="1776" type="line"/>
      <point x="213" y="1833" type="line"/>
      <point x="764" y="1833" type="line"/>
      <point x="752" y="1776" type="line"/>
    </contour>
    <contour>
      <point x="371" y="1452" type="line"/>
      <point x="442" y="1452" type="line"/>
      <point x="133" y="0" type="line"/>
      <point x="61" y="0" type="line"/>
    </contour>
  </outline>
</glyph>
<glyph name="imacron" format="2">
  <advance width="391"/>
  <unicode hex="012B"/>
  <anchor x="0" y="0" name="Anchor-11"/>
  <anchor x="0" y="0" name="Anchor-10"/>
  <anchor x="373" y="1448" name="Anchor-9"/>
  <anchor x="240" y="20" name="Anchor-8"/>
  <anchor x="66" y="0" name="Anchor-7"/>
  <outline>
    <contour>
      <point x="86" y="1391" type="line"/>
      <point x="98" y="1448" type="line"/>
      <point x="649" y="1448" type="line"/>
      <point x="637" y="1391" type="line"/>
    </contour>
    <contour>
      <point x="256" y="1065" type="line"/>
      <point x="326" y="1065" type="line"/>
      <point x="100" y="0" type="line"/>
      <point x="31" y="0" type="line"/>
    </contour>
  </outline>
</glyph>
<glyph name="Ibreve" format="2">
  <advance width="456"/>
  <unicode hex="012C"/>
  <anchor x="0" y="0" name="Anchor-11"/>
  <anchor x="0" y="0" name="Anchor-10"/>
  <anchor x="496" y="1880" name="Anchor-9"/>
  <anchor x="133" y="0" name="Anchor-8"/>
  <anchor x="98" y="0" name="Anchor-7"/>
  <outline>
    <contour>
      <point x="606" y="1880" type="qcurve"/>
      <point x="657" y="1880" type="line"/>
      <point x="642" y="1810"/>
      <point x="526" y="1708"/>
      <point x="463" y="1708" type="qcurve" smooth="yes"/>
      <point x="406" y="1708"/>
      <point x="334" y="1786"/>
      <point x="334" y="1845" type="qcurve" smooth="yes"/>
      <point x="334" y="1856"/>
      <point x="338" y="1880" type="qcurve"/>
      <point x="391" y="1880" type="line"/>
      <point x="387" y="1864"/>
      <point x="387" y="1855" type="qcurve" smooth="yes"/>
      <point x="387" y="1813"/>
      <point x="435" y="1753"/>
      <point x="471" y="1753" type="qcurve" smooth="yes"/>
      <point x="511" y="1753"/>
      <point x="591" y="1828"/>
    </contour>
    <contour>
      <point x="371" y="1452" type="line"/>
      <point x="442" y="1452" type="line"/>
      <point x="133" y="0" type="line"/>
      <point x="61" y="0" type="line"/>
    </contour>
  </outline>
</glyph>
<glyph name="ibreve" format="2">
  <advance width="391"/>
  <unicode hex="012D"/>
  <anchor x="0" y="0" name="Anchor-11"/>
  <anchor x="0" y="0" name="Anchor-10"/>
  <anchor x="381" y="1495" name="Anchor-9"/>
  <anchor x="240" y="20" name="Anchor-8"/>
  <anchor x="66" y="0" name="Anchor-7"/>
  <outline>
    <contour>
      <point x="492" y="1495" type="qcurve"/>
      <point x="543" y="1495" type="line"/>
      <point x="528" y="1425"/>
      <point x="411" y="1323"/>
      <point x="348" y="1323" type="qcurve" smooth="yes"/>
      <point x="291" y="1323"/>
      <point x="219" y="1401"/>
      <point x="219" y="1460" type="qcurve" smooth="yes"/>
      <point x="219" y="1471"/>
      <point x="223" y="1495" type="qcurve"/>
      <point x="276" y="1495" type="line"/>
      <point x="272" y="1479"/>
      <point x="272" y="1470" type="qcurve" smooth="yes"/>
      <point x="272" y="1428"/>
      <point x="320" y="1368"/>
      <point x="356" y="1368" type="qcurve" smooth="yes"/>
      <point x="396" y="1368"/>
      <point x="477" y="1443"/>
    </contour>
    <contour>
      <point x="256" y="1065" type="line"/>
      <point x="326" y="1065" type="line"/>
      <point x="100" y="0" type="line"/>
      <point x="31" y="0" type="line"/>
    </contour>
  </outline>
</glyph>
<glyph name="Iogonek" format="2">
  <advance width="456"/>
  <unicode hex="012E"/>
  <anchor x="0" y="0" name="Anchor-11"/>
  <anchor x="0" y="0" name="Anchor-10"/>
  <anchor x="406" y="1450" name="Anchor-9"/>
  <anchor x="133" y="0" name="Anchor-8"/>
  <anchor x="98" y="0" name="Anchor-7"/>
  <outline>
    <contour>
      <point x="133" y="0" type="line"/>
      <point x="44" y="-76"/>
      <point x="-27" y="-172"/>
      <point x="-27" y="-215" type="qcurve" smooth="yes"/>
      <point x="-27" y="-246"/>
      <point x="15" y="-283"/>
      <point x="63" y="-295" type="qcurve"/>
      <point x="29" y="-346" type="line"/>
      <point x="-78" y="-324"/>
      <point x="-78" y="-236" type="qcurve" smooth="yes"/>
      <point x="-78" y="-180"/>
      <point x="-4" y="-69"/>
      <point x="74" y="0" type="qcurve"/>
      <point x="61" y="0" type="line"/>
      <point x="371" y="1452" type="line"/>
      <point x="442" y="1452" type="line"/>
    </contour>
  </outline>
</glyph>
<glyph name="iogonek" format="2">
  <advance width="391"/>
  <unicode hex="012F"/>
  <anchor x="0" y="0" name="Anchor-11"/>
  <anchor x="0" y="0" name="Anchor-10"/>
  <anchor x="0" y="0" name="Anchor-9"/>
  <anchor x="100" y="0" name="Anchor-8"/>
  <anchor x="66" y="0" name="Anchor-7"/>
  <outline>
    <contour>
      <point x="348" y="1495" type="line"/>
      <point x="418" y="1495" type="line"/>
      <point x="381" y="1323" type="line"/>
      <point x="311" y="1323" type="line"/>
    </contour>
    <contour>
      <point x="31" y="0" type="line"/>
      <point x="256" y="1065" type="line"/>
      <point x="326" y="1065" type="line"/>
      <point x="100" y="0" type="line"/>
      <point x="12" y="-76"/>
      <point x="-59" y="-172"/>
      <point x="-59" y="-215" type="qcurve" smooth="yes"/>
      <point x="-59" y="-246"/>
      <point x="-17" y="-283"/>
      <point x="31" y="-295" type="qcurve"/>
      <point x="-4" y="-346" type="line"/>
      <point x="-111" y="-324"/>
      <point x="-111" y="-236" type="qcurve" smooth="yes"/>
      <point x="-111" y="-180"/>
      <point x="-37" y="-69"/>
      <point x="41" y="0" type="qcurve"/>
    </contour>
  </outline>
</glyph>
<glyph name="Idotaccent" format="2">
  <advance width="456"/>
  <unicode hex="0130"/>
  <anchor x="0" y="0" name="Anchor-11"/>
  <anchor x="0" y="0" name="Anchor-10"/>
  <anchor x="498" y="1880" name="Anchor-9"/>
  <anchor x="133" y="0" name="Anchor-8"/>
  <anchor x="98" y="0" name="Anchor-7"/>
  <outline>
    <contour>
      <point x="430" y="1710" type="line"/>
      <point x="465" y="1880" type="line"/>
      <point x="530" y="1880" type="line"/>
      <point x="496" y="1710" type="line"/>
    </contour>
    <contour>
      <point x="371" y="1452" type="line"/>
      <point x="442" y="1452" type="line"/>
      <point x="133" y="0" type="line"/>
      <point x="61" y="0" type="line"/>
    </contour>
  </outline>
</glyph>
<glyph name="dotlessi" format="2">
  <advance width="391"/>
  <unicode hex="0131"/>
  <anchor x="0" y="0" name="Anchor-11"/>
  <anchor x="0" y="0" name="Anchor-10"/>
  <anchor x="291" y="1065" name="Anchor-9"/>
  <anchor x="240" y="20" name="Anchor-8"/>
  <anchor x="66" y="0" name="Anchor-7"/>
  <outline>
    <contour>
      <point x="256" y="1065" type="line"/>
      <point x="326" y="1065" type="line"/>
      <point x="100" y="0" type="line"/>
      <point x="31" y="0" type="line"/>
    </contour>
  </outline>
</glyph>
<glyph name="Jcircumflex" format="2">
  <advance width="944"/>
  <unicode hex="0134"/>
  <anchor x="0" y="0" name="Anchor-11"/>
  <anchor x="0" y="0" name="Anchor-10"/>
  <anchor x="987" y="1831" name="Anchor-9"/>
  <anchor x="0" y="0" name="Anchor-8"/>
  <anchor x="0" y="0" name="Anchor-7"/>
  <outline>
    <contour>
      <point x="756" y="1673" type="line"/>
      <point x="973" y="1831" type="line"/>
      <point x="1026" y="1831" type="line"/>
      <point x="1178" y="1673" type="line"/>
      <point x="1126" y="1642" type="line"/>
      <point x="987" y="1772" type="line"/>
      <point x="795" y="1642" type="line"/>
    </contour>
    <contour>
      <point x="-68" y="68" type="qcurve"/>
      <point x="-29" y="125" type="line"/>
      <point x="69" y="41"/>
      <point x="233" y="41" type="qcurve" smooth="yes"/>
      <point x="299" y="41"/>
      <point x="409" y="73"/>
      <point x="493" y="128"/>
      <point x="564" y="223"/>
      <point x="615" y="324"/>
      <point x="664" y="475"/>
      <point x="700" y="615"/>
      <point x="721" y="715" type="qcurve" smooth="yes"/>
      <point x="879" y="1452" type="line"/>
      <point x="948" y="1452" type="line"/>
      <point x="791" y="715" type="line" smooth="yes"/>
      <point x="771" y="620"/>
      <point x="738" y="482"/>
      <point x="693" y="331"/>
      <point x="645" y="227"/>
      <point x="581" y="122"/>
      <point x="505" y="55"/>
      <point x="410" y="1"/>
      <point x="292" y="-23"/>
      <point x="221" y="-23" type="qcurve" smooth="yes"/>
      <point x="54" y="-23"/>
    </contour>
  </outline>
</glyph>
<glyph name="Kcedilla" format="2">
  <advance width="1224"/>
  <unicode hex="0136"/>
  <anchor x="0" y="0" name="Anchor-11"/>
  <anchor x="0" y="0" name="Anchor-10"/>
  <anchor x="0" y="0" name="Anchor-9"/>
  <anchor x="0" y="0" name="Anchor-8"/>
  <anchor x="528" y="0" name="Anchor-7"/>
  <outline>
    <contour>
      <point x="371" y="1452" type="line"/>
      <point x="442" y="1452" type="line"/>
      <point x="248" y="539" type="line"/>
      <point x="1282" y="1454" type="line"/>
      <point x="1370" y="1454" type="line"/>
      <point x="653" y="817" type="line"/>
      <point x="1087" y="0" type="line"/>
      <point x="1008" y="0" type="line"/>
      <point x="598" y="774" type="line"/>
      <point x="229" y="451" type="line"/>
      <point x="133" y="0" type="line"/>
      <point x="61" y="0" type="line"/>
    </contour>
    <contour>
      <point x="416" y="-360" type="line"/>
      <point x="467" y="-233" type="line"/>
      <point x="442" y="-233" type="line"/>
      <point x="471" y="-102" type="line"/>
      <point x="545" y="-102" type="line"/>
      <point x="516" y="-233" type="line"/>
      <point x="457" y="-360" type="line"/>
    </contour>
  </outline>
</glyph>
<glyph name="kcedilla" format="2">
  <advance width="1075"/>
  <unicode hex="0137"/>
  <anchor x="0" y="0" name="Anchor-11"/>
  <anchor x="0" y="0" name="Anchor-10"/>
  <anchor x="0" y="0" name="Anchor-9"/>
  <anchor x="0" y="0" name="Anchor-8"/>
  <anchor x="420" y="0" name="Anchor-7"/>
  <outline>
    <contour>
      <point x="1047" y="872" type="qcurve" smooth="yes"/>
      <point x="1047" y="738"/>
      <point x="812" y="531"/>
      <point x="608" y="485" type="qcurve"/>
      <point x="852" y="0" type="line"/>
      <point x="774" y="0" type="line"/>
      <point x="520" y="522" type="line"/>
      <point x="741" y="566"/>
      <point x="977" y="744"/>
      <point x="977" y="862" type="qcurve" smooth="yes"/>
      <point x="977" y="941"/>
      <point x="875" y="1026"/>
      <point x="784" y="1026" type="qcurve" smooth="yes"/>
      <point x="518" y="1026"/>
      <point x="229" y="612" type="qcurve"/>
      <point x="100" y="0" type="line"/>
      <point x="31" y="0" type="line"/>
      <point x="348" y="1495" type="line"/>
      <point x="418" y="1495" type="line"/>
      <point x="252" y="717" type="line"/>
      <point x="377" y="896"/>
      <point x="657" y="1087"/>
      <point x="799" y="1087" type="qcurve" smooth="yes"/>
      <point x="918" y="1087"/>
      <point x="1047" y="973"/>
    </contour>
    <contour>
      <point x="334" y="-233" type="line"/>
      <point x="362" y="-102" type="line"/>
      <point x="436" y="-102" type="line"/>
      <point x="408" y="-233" type="line"/>
      <point x="348" y="-360" type="line"/>
      <point x="307" y="-360" type="line"/>
      <point x="358" y="-233" type="line"/>
    </contour>
  </outline>
</glyph>
<glyph name="kgreenlandic" format="2">
  <advance width="1005"/>
  <unicode hex="0138"/>
  <outline>
    <contour>
      <point x="256" y="1065" type="line"/>
      <point x="326" y="1065" type="line"/>
      <point x="190" y="424" type="line"/>
      <point x="975" y="1061" type="line"/>
      <point x="1059" y="1061" type="line"/>
      <point x="539" y="635" type="line"/>
      <point x="846" y="0" type="line"/>
      <point x="768" y="0" type="line"/>
      <point x="479" y="590" type="line"/>
      <point x="172" y="342" type="line"/>
      <point x="100" y="0" type="line"/>
      <point x="31" y="0" type="line"/>
    </contour>
  </outline>
</glyph>
<glyph name="Lacute" format="2">
  <advance width="1132"/>
  <unicode hex="0139"/>
  <anchor x="940" y="1065" name="Anchor-11"/>
  <anchor x="608" y="727" name="Anchor-10"/>
  <anchor x="430" y="1884" name="Anchor-9"/>
  <anchor x="0" y="0" name="Anchor-8"/>
  <anchor x="520" y="0" name="Anchor-7"/>
  <outline>
    <contour>
      <point x="455" y="1696" type="line"/>
      <point x="412" y="1722" type="line"/>
      <point x="567" y="1884" type="line"/>
      <point x="657" y="1884" type="line"/>
    </contour>
    <contour>
      <point x="371" y="1454" type="line"/>
      <point x="442" y="1454" type="line"/>
      <point x="145" y="66" type="line"/>
      <point x="991" y="66" type="line"/>
      <point x="977" y="0" type="line"/>
      <point x="61" y="0" type="line"/>
    </contour>
  </outline>
</glyph>
<glyph name="Lcedilla" format="2">
  <advance width="1132"/>
  <unicode hex="013B"/>
  <anchor x="940" y="1065" name="Anchor-11"/>
  <anchor x="608" y="727" name="Anchor-10"/>
  <anchor x="401" y="1454" name="Anchor-9"/>
  <anchor x="0" y="0" name="Anchor-8"/>
  <anchor x="520" y="0" name="Anchor-7"/>
  <outline>
    <contour>
      <point x="371" y="1454" type="line"/>
      <point x="442" y="1454" type="line"/>
      <point x="145" y="66" type="line"/>
      <point x="991" y="66" type="line"/>
      <point x="977" y="0" type="line"/>
      <point x="61" y="0" type="line"/>
    </contour>
    <contour>
      <point x="408" y="-360" type="line"/>
      <point x="459" y="-233" type="line"/>
      <point x="434" y="-233" type="line"/>
      <point x="463" y="-102" type="line"/>
      <point x="537" y="-102" type="line"/>
      <point x="508" y="-233" type="line"/>
      <point x="449" y="-360" type="line"/>
    </contour>
  </outline>
</glyph>
